<?xml version="1.0" encoding="UTF-8"?>
<svg xmlns="http://www.w3.org/2000/svg" xmlns:xlink="http://www.w3.org/1999/xlink" width="50px" height="50px" viewBox="0 0 50 50" version="1.1">
<g id="surface1">
<path style=" stroke:none;fill-rule:nonzero;fill:rgb(100%,100%,100%);fill-opacity:1;" d="M 5.234375 37.648438 L 5.457031 37.984375 C 6.835938 40.042969 8.453125 41.804688 10.296875 43.292969 L 10.34375 43.328125 L 10.648438 43.582031 L 10.648438 43.1875 C 10.457031 41.875 10.316406 40.300781 10.261719 38.703125 L 10.257812 38.628906 L 10.257812 38.488281 L 10.117188 38.488281 C 8.425781 38.324219 6.898438 38.058594 5.410156 37.6875 L 5.628906 37.734375 Z M 11.65625 33.546875 L 11.65625 33.769531 C 11.507812 34.804688 11.398438 36.039062 11.363281 37.289062 L 11.359375 37.339844 L 11.359375 37.492188 L 13.179688 37.492188 C 13.738281 37.492188 14.398438 37.515625 15.023438 37.492188 L 15.433594 37.492188 L 15.109375 37.238281 C 13.867188 36.21875 12.808594 35.035156 11.945312 33.71875 L 11.90625 33.65625 Z M 6.6875 31.265625 L 6.621094 31.421875 C 5.925781 32.777344 5.273438 34.378906 4.757812 36.042969 L 4.703125 36.261719 L 4.703125 36.417969 L 4.867188 36.417969 C 6.371094 36.851562 8.152344 37.195312 9.984375 37.382812 L 10.117188 37.394531 L 10.257812 37.410156 L 10.257812 37.242188 C 10.289062 35.792969 10.40625 34.40625 10.601562 33.042969 L 10.578125 33.226562 L 10.578125 33.097656 L 10.453125 33.097656 C 9.015625 32.507812 7.828125 31.921875 6.6875 31.265625 L 6.84375 31.347656 Z M 1.722656 27.742188 L 1.722656 28.132812 C 2.046875 30.546875 2.695312 32.738281 3.628906 34.769531 L 3.570312 34.625 L 3.722656 34.988281 L 3.863281 34.609375 C 4.402344 33.058594 4.960938 31.769531 5.59375 30.527344 L 5.511719 30.707031 L 5.625 30.582031 L 5.5 30.5 C 4.179688 29.664062 3.050781 28.835938 1.976562 27.945312 L 2.03125 27.992188 Z M 9.488281 26.804688 L 9.25 27.140625 C 8.671875 27.933594 8.078125 28.84375 7.539062 29.792969 L 7.460938 29.9375 L 7.375 30.078125 L 7.515625 30.164062 C 8.324219 30.628906 9.328125 31.128906 10.355469 31.578125 L 10.566406 31.660156 L 10.941406 31.828125 L 10.773438 31.449219 C 10.1875 30.21875 9.734375 28.796875 9.5 27.296875 L 9.484375 27.210938 Z M 5.867188 22.761719 L 5.726562 22.859375 C 4.4375 23.921875 3.28125 25.027344 2.210938 26.214844 L 2.1875 26.242188 L 2.074219 26.355469 L 2.203125 26.46875 C 3.355469 27.484375 4.625 28.4375 5.964844 29.289062 L 6.089844 29.363281 L 6.230469 29.460938 L 6.3125 29.304688 C 7.019531 28.058594 7.699219 27.015625 8.433594 26.011719 L 8.371094 26.101562 L 8.371094 26.003906 L 8.285156 25.90625 C 7.503906 25.011719 6.742188 24.03125 6.035156 23.011719 L 5.960938 22.898438 Z M 10.1875 19.820312 L 9.835938 20.015625 C 8.929688 20.550781 8.019531 21.136719 7.152344 21.753906 L 7.023438 21.851562 L 7.121094 21.976562 C 7.726562 22.828125 8.382812 23.667969 9.066406 24.46875 L 9.335938 24.789062 L 9.335938 24.382812 C 9.386719 22.867188 9.644531 21.429688 10.078125 20.070312 L 10.046875 20.183594 Z M 2.828125 17.375 L 2.703125 17.765625 C 2.042969 19.714844 1.632812 21.960938 1.570312 24.292969 L 1.570312 24.734375 L 1.847656 24.4375 C 2.808594 23.445312 3.816406 22.523438 4.878906 21.660156 L 4.941406 21.609375 L 5.054688 21.527344 L 4.96875 21.402344 C 4.304688 20.378906 3.636719 19.183594 3.046875 17.941406 L 2.96875 17.75 Z M 8.890625 13.972656 C 6.945312 14.332031 5.242188 14.816406 3.605469 15.441406 L 3.808594 15.371094 L 3.65625 15.371094 L 3.65625 15.527344 C 4.429688 17.453125 5.261719 19.089844 6.214844 20.640625 L 6.132812 20.492188 L 6.214844 20.632812 L 6.355469 20.539062 C 7.320312 19.835938 8.425781 19.136719 9.578125 18.507812 L 9.742188 18.421875 L 9.851562 18.355469 L 9.851562 18.246094 C 9.542969 17.125 9.265625 15.738281 9.074219 14.324219 L 9.054688 14.15625 L 9.054688 13.976562 Z M 13.871094 13.707031 C 12.78125 13.722656 11.730469 13.796875 10.695312 13.929688 L 10.835938 13.917969 C 10.960938 14.9375 11.140625 15.945312 11.367188 16.953125 C 12.097656 15.71875 12.925781 14.65625 13.871094 13.707031 Z M 17.242188 8.964844 C 16.960938 9.816406 16.722656 10.699219 16.5 11.59375 C 17.433594 10.996094 18.511719 10.46875 19.648438 10.0625 L 19.757812 10.027344 C 18.933594 9.636719 18.109375 9.285156 17.242188 8.964844 Z M 8.636719 8.402344 C 7.269531 9.761719 6.066406 11.285156 5.070312 12.945312 L 5.007812 13.050781 C 5.976562 12.742188 7.210938 12.445312 8.472656 12.214844 L 8.675781 12.183594 C 8.628906 11.515625 8.601562 10.742188 8.601562 9.960938 C 8.601562 9.410156 8.613281 8.867188 8.640625 8.324219 Z M 10.707031 7.328125 C 10.652344 8.007812 10.617188 8.804688 10.617188 9.609375 C 10.617188 10.410156 10.652344 11.207031 10.714844 11.992188 L 10.707031 11.890625 C 11.855469 11.761719 13.042969 11.695312 14.246094 11.679688 C 14.546875 10.296875 14.867188 9.15625 15.25 8.039062 L 15.183594 8.265625 C 13.941406 7.894531 12.425781 7.566406 10.878906 7.347656 Z M 19.96875 3.035156 C 19.316406 4.117188 18.667969 5.398438 18.105469 6.726562 L 18.027344 6.9375 C 19.308594 7.382812 20.34375 7.820312 21.347656 8.304688 L 21.160156 8.222656 C 21.425781 7.878906 21.703125 7.546875 22 7.230469 C 22.457031 6.671875 22.921875 6.140625 23.398438 5.632812 C 22.378906 4.730469 21.257812 3.875 20.082031 3.101562 L 19.96875 3.03125 Z M 17.523438 2.894531 C 15.5625 3.578125 13.871094 4.417969 12.304688 5.4375 L 12.398438 5.382812 C 13.800781 5.628906 14.992188 5.921875 16.152344 6.28125 L 15.9375 6.222656 C 16.503906 4.859375 17.035156 3.765625 17.617188 2.703125 Z M 25.085938 1.632812 C 24.148438 1.636719 23.226562 1.691406 22.320312 1.796875 L 22.429688 1.785156 C 23.753906 2.703125 24.90625 3.621094 26 4.609375 L 25.96875 4.585938 L 26.90625 5.4375 L 26 6.316406 C 25.234375 7.054688 24.515625 7.820312 23.835938 8.625 L 23.800781 8.671875 L 23.453125 9.089844 C 23.953125 9.03125 24.535156 8.996094 25.125 8.992188 L 25.132812 8.992188 C 33.847656 9.097656 40.871094 16.1875 40.871094 24.914062 C 40.871094 33.710938 33.742188 40.839844 24.949219 40.839844 C 21.925781 40.839844 19.097656 39.996094 16.691406 38.535156 L 16.761719 38.574219 C 15.695312 38.707031 14.453125 38.78125 13.199219 38.78125 C 13.1875 38.78125 13.179688 38.78125 13.167969 38.78125 L 11.488281 38.78125 C 11.542969 40.804688 11.726562 42.734375 12.039062 44.625 L 12.003906 44.375 C 15.667969 46.875 20.191406 48.367188 25.0625 48.367188 C 37.96875 48.367188 48.429688 37.90625 48.429688 25 C 48.429688 12.105469 37.980469 1.648438 25.085938 1.632812 Z M 25.085938 1.632812 "/>
</g>
</svg>
