<?xml version="1.0" encoding="UTF-8"?>
<svg xmlns="http://www.w3.org/2000/svg" xmlns:xlink="http://www.w3.org/1999/xlink" width="50px" height="50px" viewBox="0 0 50 50" version="1.1">
<g id="surface1">
<path style=" stroke:none;fill-rule:nonzero;fill:rgb(100%,100%,100%);fill-opacity:1;" d="M 25 0 C 11.1875 0 0 11.1875 0 25 C 0 38.8125 11.1875 50 25 50 C 38.8125 50 50 38.8125 50 25 C 50 11.1875 38.8125 0 25 0 Z M 14.5 16 C 16.070312 16 17.292969 17.144531 17.429688 18.5 C 17.578125 19.71875 17.074219 20.785156 15.722656 21.429688 C 15.007812 21.785156 14.722656 21.785156 14.574219 21.574219 C 14.5 21.429688 14.574219 21.289062 14.71875 21.140625 C 16.007812 20.078125 16.007812 19.214844 15.859375 18.003906 C 15.785156 17.214844 15.21875 16.714844 14.648438 16.714844 C 12.140625 16.714844 8.578125 22.28125 9.070312 26.359375 C 9.292969 27.929688 10.21875 29.785156 12.214844 29.785156 C 12.859375 29.785156 13.574219 29.574219 14.214844 29.289062 C 15.257812 28.734375 15.882812 28.3125 16.503906 27.621094 C 16.347656 25.773438 17.96875 23.359375 20.359375 23.359375 C 21.433594 23.359375 22.289062 23.789062 22.359375 24.578125 C 22.5 25.644531 21.570312 25.789062 21.289062 25.789062 C 21 25.789062 20.5 25.71875 20.5 25.433594 C 20.433594 25.148438 21.140625 25.289062 21.074219 24.644531 C 21 24.210938 20.570312 24.074219 20.148438 24.074219 C 18.640625 24.074219 17.789062 26.148438 18 27.425781 C 18.074219 28.003906 18.355469 28.574219 18.9375 28.574219 C 19.359375 28.574219 20.003906 27.929688 20.210938 27.003906 C 20.359375 26.359375 20.929688 25.929688 21.433594 25.929688 C 21.644531 25.929688 21.78125 26.003906 21.855469 26.289062 L 21.855469 26.574219 C 21.792969 26.859375 21.570312 27.722656 21.644531 27.929688 C 21.644531 28.078125 21.71875 28.289062 22 28.289062 C 22.1875 28.289062 22.90625 27.914062 23.621094 27.328125 C 23.859375 26.097656 24.140625 24.625 24.140625 24.503906 C 24.214844 24 24.429688 23.503906 25.429688 23.503906 C 25.648438 23.503906 25.785156 23.578125 25.859375 23.859375 L 25.859375 24.148438 L 25.574219 25.433594 C 26.503906 24.21875 27.859375 23.367188 28.714844 23.367188 C 29.074219 23.367188 29.359375 23.578125 29.359375 23.933594 C 29.359375 24.148438 29.359375 24.503906 29.210938 24.863281 C 28.929688 25.644531 28.570312 26.867188 28.355469 27.929688 C 28.355469 28.21875 28.429688 28.5 28.789062 28.5 C 29.144531 28.5 30.210938 28.078125 31.066406 26.929688 L 31.085938 26.921875 C 31.085938 26.785156 31.066406 26.648438 31.066406 26.507812 C 31.066406 25.648438 31.140625 24.9375 31.289062 24.433594 C 31.433594 23.863281 32.140625 23.367188 32.574219 23.367188 C 32.785156 23.367188 33.003906 23.503906 33.003906 23.71875 C 33.003906 23.789062 33.003906 23.9375 32.929688 24.003906 C 32.644531 24.9375 32.425781 25.792969 32.425781 26.648438 C 32.425781 27.152344 32.5 27.859375 32.644531 28.289062 C 32.644531 28.363281 32.710938 28.4375 32.78125 28.4375 C 32.929688 28.4375 33.929688 27.507812 34.640625 26.289062 C 33.996094 25.863281 33.636719 25.148438 33.636719 24.292969 C 33.636719 22.789062 34.574219 22.007812 35.429688 22.007812 C 36.148438 22.007812 36.714844 22.503906 36.714844 23.503906 C 36.714844 24.148438 36.503906 24.867188 36.148438 25.507812 L 36.359375 25.507812 C 36.8125 25.523438 37.261719 25.335938 37.570312 25.011719 C 37.644531 24.898438 37.742188 24.816406 37.855469 24.765625 C 38.554688 23.878906 39.582031 23.222656 40.792969 23.222656 C 41.792969 23.222656 42.714844 23.652344 42.789062 24.433594 C 42.933594 25.507812 42 25.71875 41.710938 25.71875 C 41.429688 25.71875 40.925781 25.648438 40.925781 25.363281 C 40.925781 25.078125 41.566406 25.21875 41.5 24.582031 C 41.429688 24.148438 40.996094 24.003906 40.566406 24.003906 C 39.140625 24.003906 38.214844 25.859375 38.421875 27.367188 C 38.496094 27.933594 38.78125 28.578125 39.351562 28.578125 C 39.785156 28.578125 40.425781 27.933594 40.710938 27.007812 C 40.847656 26.4375 41.429688 25.933594 41.921875 25.933594 C 42.140625 25.933594 42.28125 26.007812 42.355469 26.289062 C 42.355469 26.4375 42.355469 26.722656 42.070312 27.652344 C 41.710938 28.292969 41.710938 28.652344 41.785156 28.9375 C 41.851562 29.507812 42.136719 29.9375 42.429688 30.148438 C 42.492188 30.222656 42.566406 30.359375 42.566406 30.359375 C 42.566406 30.507812 42.492188 30.65625 42.28125 30.65625 C 42.207031 30.65625 42.140625 30.65625 42.070312 30.582031 C 40.996094 30.148438 40.5625 29.433594 40.425781 28.71875 C 39.992188 29.222656 39.5 29.507812 38.921875 29.507812 C 37.992188 29.507812 37.070312 28.652344 36.925781 27.578125 C 36.882812 27.121094 36.933594 26.65625 37.082031 26.226562 C 36.65625 26.496094 36.203125 26.648438 35.78125 26.648438 L 35.429688 26.648438 C 34.492188 28.007812 33.492188 28.9375 32.785156 29.359375 C 32.539062 29.492188 32.273438 29.566406 31.996094 29.578125 C 31.859375 29.578125 31.640625 29.507812 31.570312 29.359375 C 31.371094 29.042969 31.246094 28.546875 31.164062 27.976562 C 30.164062 29.066406 28.78125 29.652344 28.140625 29.652344 C 27.421875 29.652344 27 29.222656 26.925781 28.507812 L 26.925781 27.726562 C 27.136719 26.15625 27.714844 25.21875 27.714844 24.933594 C 27.707031 24.859375 27.648438 24.796875 27.566406 24.789062 C 27.070312 24.789062 25.429688 26.507812 25.140625 27.652344 L 24.921875 28.578125 C 24.785156 29.222656 24.140625 29.652344 23.710938 29.652344 C 23.5 29.652344 23.351562 29.578125 23.289062 29.296875 L 23.289062 29.011719 L 23.375 28.523438 C 22.472656 29.164062 21.570312 29.578125 21.136719 29.578125 C 20.496094 29.578125 20.136719 29.222656 20.074219 28.71875 C 19.640625 29.296875 19.144531 29.578125 18.503906 29.578125 C 17.761719 29.578125 17.046875 29.074219 16.703125 28.34375 C 16.191406 28.921875 15.613281 29.5 14.929688 29.9375 C 13.929688 30.582031 12.789062 31.078125 11.429688 31.078125 C 10.21875 31.078125 9.144531 30.433594 8.574219 29.863281 C 7.710938 29.074219 7.214844 27.863281 7.140625 26.722656 C 6.71875 23.222656 8.859375 18.722656 12.136719 16.71875 C 12.925781 16.289062 13.71875 16.007812 14.5 16.007812 Z M 34.855469 22.859375 C 34.644531 22.859375 34.5 23.21875 34.5 23.566406 C 34.5 24.148438 34.78125 24.789062 35.140625 25.148438 C 35.289062 24.757812 35.351562 24.34375 35.359375 23.925781 C 35.359375 23.21875 35.074219 22.863281 34.855469 22.863281 Z M 34.855469 22.859375 "/>
</g>
</svg>
