<?xml version="1.0" encoding="UTF-8"?>
<svg xmlns="http://www.w3.org/2000/svg" xmlns:xlink="http://www.w3.org/1999/xlink" width="50px" height="50px" viewBox="0 0 60 60" version="1.1">
<g id="surface1">
<path style=" stroke:none;fill-rule:nonzero;fill:rgb(95.294118%,47.058824%,12.156863%);fill-opacity:1;" d="M 41.222656 41.644531 C 42.121094 42.613281 42.617188 43.828125 42.601562 45.148438 C 42.476562 46.503906 41.984375 47.632812 40.988281 48.570312 C 39.726562 49.574219 38.488281 49.847656 36.894531 49.695312 C 35.699219 49.503906 34.6875 48.8125 33.960938 47.867188 C 33.117188 46.597656 32.992188 45.472656 33.148438 43.949219 C 33.394531 42.867188 33.945312 41.960938 34.800781 41.25 C 36.980469 39.890625 39.257812 39.875 41.222656 41.644531 Z M 41.222656 41.644531 "/>
<path style=" stroke:none;fill-rule:nonzero;fill:rgb(98.823529%,98.823529%,98.823529%);fill-opacity:1;" d="M 24.816406 25.976562 C 25.871094 26.726562 26.558594 27.679688 26.851562 28.949219 C 27.046875 30.496094 26.855469 31.714844 25.949219 33 C 25.585938 33.421875 25.214844 33.742188 24.75 34.050781 C 24.652344 34.117188 24.558594 34.179688 24.460938 34.246094 C 23.417969 34.820312 22.152344 34.832031 21 34.648438 C 19.777344 34.269531 18.859375 33.613281 18.148438 32.550781 C 18.085938 32.453125 18.019531 32.359375 17.953125 32.257812 C 17.382812 31.21875 17.367188 29.953125 17.550781 28.800781 C 17.929688 27.578125 18.585938 26.65625 19.648438 25.949219 C 19.796875 25.851562 19.796875 25.851562 19.941406 25.753906 C 21.449219 24.921875 23.375 25.140625 24.816406 25.976562 Z M 24.816406 25.976562 "/>
<path style=" stroke:none;fill-rule:nonzero;fill:rgb(16.470589%,49.019608%,87.450981%);fill-opacity:1;" d="M 24.75 10.949219 C 25.738281 11.625 26.414062 12.488281 26.792969 13.625 C 27.070312 15.164062 26.90625 16.589844 26.023438 17.882812 C 25.316406 18.765625 24.378906 19.445312 23.25 19.648438 C 21.601562 19.777344 20.316406 19.621094 19.003906 18.570312 C 17.933594 17.570312 17.535156 16.433594 17.484375 15 C 17.476562 13.6875 17.867188 12.671875 18.730469 11.675781 C 20.371094 10.125 22.765625 9.769531 24.75 10.949219 Z M 24.75 10.949219 "/>
<path style=" stroke:none;fill-rule:nonzero;fill:rgb(9.411765%,73.725492%,72.941178%);fill-opacity:1;" d="M 40.410156 25.976562 C 41.46875 26.722656 42.15625 27.679688 42.449219 28.949219 C 42.632812 30.582031 42.402344 31.898438 41.382812 33.195312 C 40.625 34.003906 39.507812 34.597656 38.394531 34.6875 C 37.246094 34.710938 36.378906 34.660156 35.398438 34.050781 C 35.292969 33.984375 35.1875 33.917969 35.078125 33.851562 C 34.039062 33.144531 33.488281 32.25 33.148438 31.050781 C 32.980469 29.414062 33.191406 28.097656 34.226562 26.804688 C 35.851562 25.078125 38.386719 24.8125 40.410156 25.976562 Z M 40.410156 25.976562 "/>
<path style=" stroke:none;fill-rule:nonzero;fill:rgb(80.000001%,45.09804%,20.784314%);fill-opacity:1;" d="M 41.101562 41.699219 C 41.960938 42.441406 42.40625 43.339844 42.582031 44.464844 C 42.671875 45.765625 42.320312 46.949219 41.550781 48 C 40.59375 49.058594 39.5625 49.65625 38.125 49.730469 C 36.96875 49.753906 36.070312 49.550781 35.101562 48.898438 C 35.398438 48.75 35.398438 48.75 35.65625 48.835938 C 35.8125 48.898438 35.8125 48.898438 35.972656 48.964844 C 37.351562 49.449219 38.8125 49.25 40.199219 48.898438 C 40.199219 48.800781 40.199219 48.703125 40.199219 48.601562 C 40.351562 48.601562 40.496094 48.601562 40.648438 48.601562 C 40.648438 48.402344 40.648438 48.207031 40.648438 48 C 40.847656 48 41.042969 48 41.25 48 C 41.25 47.75 41.25 47.503906 41.25 47.25 C 41.398438 47.199219 41.546875 47.152344 41.699219 47.101562 C 42.148438 46.1875 42.195312 45.472656 42.101562 44.476562 C 42.09375 44.351562 42.085938 44.226562 42.074219 44.101562 C 42.050781 43.800781 42.027344 43.5 42 43.199219 C 41.902344 43.199219 41.804688 43.199219 41.699219 43.199219 C 41.5 42.699219 41.300781 42.203125 41.101562 41.699219 Z M 41.101562 41.699219 "/>
<path style=" stroke:none;fill-rule:nonzero;fill:rgb(82.352942%,45.882353%,19.607843%);fill-opacity:1;" d="M 34.648438 41.398438 C 34.800781 41.851562 34.800781 41.851562 34.621094 42.320312 C 34.351562 42.75 34.351562 42.75 34.023438 42.882812 C 33.886719 42.890625 33.886719 42.890625 33.75 42.898438 C 33.609375 43.625 33.5625 44.328125 33.554688 45.066406 C 33.546875 45.171875 33.542969 45.28125 33.539062 45.394531 C 33.53125 46.238281 33.746094 46.691406 34.199219 47.398438 C 34.199219 47.5 34.199219 47.597656 34.199219 47.699219 C 34.296875 47.699219 34.398438 47.699219 34.5 47.699219 C 34.550781 47.851562 34.597656 47.996094 34.648438 48.148438 C 34.800781 48.25 34.945312 48.347656 35.101562 48.449219 C 35.101562 48.546875 35.101562 48.648438 35.101562 48.75 C 34.214844 48.375 33.804688 47.582031 33.320312 46.789062 C 32.890625 45.679688 32.992188 44.226562 33.394531 43.125 C 33.707031 42.445312 34.132812 41.9375 34.648438 41.398438 Z M 34.648438 41.398438 "/>
<path style=" stroke:none;fill-rule:nonzero;fill:rgb(20.784314%,44.705883%,74.901962%);fill-opacity:1;" d="M 25.648438 17.25 C 25.847656 17.25 26.042969 17.25 26.25 17.25 C 26.042969 18.097656 25.433594 18.5625 24.75 19.050781 C 23.511719 19.78125 22.09375 19.882812 20.710938 19.542969 C 19.945312 19.261719 19.421875 18.921875 18.898438 18.300781 C 19.492188 18.472656 19.917969 18.664062 20.398438 19.050781 C 20.808594 19.1875 21.046875 19.21875 21.464844 19.21875 C 21.582031 19.21875 21.699219 19.21875 21.820312 19.21875 C 21.941406 19.21875 22.0625 19.21875 22.191406 19.21875 C 22.3125 19.21875 22.433594 19.21875 22.5625 19.21875 C 22.734375 19.21875 22.734375 19.21875 22.917969 19.21875 C 23.023438 19.21875 23.132812 19.21875 23.242188 19.21875 C 23.558594 19.199219 23.84375 19.140625 24.148438 19.050781 C 24.074219 18.824219 24.074219 18.824219 24 18.601562 C 24.160156 18.558594 24.324219 18.515625 24.488281 18.46875 C 24.914062 18.34375 25.265625 18.214844 25.648438 18 C 25.648438 17.75 25.648438 17.503906 25.648438 17.25 Z M 25.648438 17.25 "/>
<path style=" stroke:none;fill-rule:nonzero;fill:rgb(14.509805%,69.01961%,66.666669%);fill-opacity:1;" d="M 33.601562 27.75 C 33.652344 27.75 33.699219 27.75 33.75 27.75 C 33.71875 27.957031 33.71875 27.957031 33.683594 28.164062 C 33.65625 28.375 33.628906 28.589844 33.601562 28.800781 C 33.582031 28.945312 33.5625 29.085938 33.539062 29.230469 C 33.429688 30.1875 33.421875 30.804688 33.898438 31.648438 C 34.097656 31.597656 34.292969 31.550781 34.5 31.5 C 34.53125 31.742188 34.566406 31.988281 34.59375 32.230469 C 34.613281 32.367188 34.625 32.503906 34.644531 32.644531 C 34.644531 32.761719 34.648438 32.878906 34.648438 33 C 34.550781 33.097656 34.453125 33.195312 34.351562 33.300781 C 34.203125 33.09375 34.058594 32.886719 33.917969 32.679688 C 33.839844 32.5625 33.757812 32.453125 33.675781 32.335938 C 33.007812 31.203125 32.933594 29.8125 33.253906 28.546875 C 33.375 28.21875 33.375 28.21875 33.601562 27.75 Z M 33.601562 27.75 "/>
<path style=" stroke:none;fill-rule:nonzero;fill:rgb(17.254902%,67.843139%,65.098041%);fill-opacity:1;" d="M 42 28.050781 C 42.535156 28.585938 42.484375 29.207031 42.496094 29.945312 C 42.484375 31.410156 42.074219 32.433594 41.070312 33.507812 C 40.714844 33.824219 40.34375 34.027344 39.898438 34.199219 C 39.953125 34.003906 40 33.804688 40.050781 33.601562 C 40.421875 33.523438 40.421875 33.523438 40.800781 33.449219 C 40.800781 33.300781 40.800781 33.15625 40.800781 33 C 40.949219 33 41.09375 33 41.25 33 C 41.265625 32.832031 41.28125 32.667969 41.296875 32.492188 C 41.328125 32.316406 41.367188 32.132812 41.398438 31.949219 C 41.550781 31.851562 41.695312 31.753906 41.851562 31.648438 C 41.996094 31.210938 42.019531 30.929688 42.015625 30.46875 C 42.015625 30.328125 42.015625 30.1875 42.015625 30.042969 C 42.015625 29.890625 42.007812 29.746094 42.007812 29.597656 C 42.007812 29.445312 42.007812 29.300781 42.007812 29.148438 C 42.003906 28.78125 42.003906 28.414062 42 28.050781 Z M 42 28.050781 "/>
<path style=" stroke:none;fill-rule:nonzero;fill:rgb(20.784314%,45.09804%,75.294119%);fill-opacity:1;" d="M 25.5 11.699219 C 26.390625 12.441406 26.785156 13.320312 26.902344 14.46875 C 26.925781 15.5 26.84375 16.316406 26.398438 17.25 C 26.347656 17.25 26.300781 17.25 26.25 17.25 C 26.273438 17.070312 26.300781 16.898438 26.324219 16.714844 C 26.398438 16.054688 26.421875 15.394531 26.429688 14.726562 C 26.433594 14.441406 26.433594 14.441406 26.433594 14.152344 C 26.40625 13.6875 26.363281 13.429688 26.101562 13.050781 C 26 13 25.902344 12.953125 25.800781 12.898438 C 25.707031 12.625 25.707031 12.625 25.632812 12.289062 C 25.609375 12.183594 25.578125 12.070312 25.554688 11.957031 C 25.539062 11.875 25.519531 11.789062 25.5 11.699219 Z M 25.5 11.699219 "/>
<path style=" stroke:none;fill-rule:nonzero;fill:rgb(77.64706%,42.745098%,18.039216%);fill-opacity:1;" d="M 40.949219 41.398438 C 41.023438 41.550781 41.023438 41.550781 41.101562 41.699219 C 40.578125 41.546875 40.121094 41.367188 39.65625 41.089844 C 38.863281 40.636719 38.210938 40.632812 37.3125 40.640625 C 37.144531 40.640625 37.144531 40.640625 36.976562 40.640625 C 36.699219 40.644531 36.425781 40.644531 36.148438 40.648438 C 37.640625 39.65625 39.652344 40.402344 40.949219 41.398438 Z M 40.949219 41.398438 "/>
<path style=" stroke:none;fill-rule:nonzero;fill:rgb(18.431373%,46.27451%,81.568629%);fill-opacity:1;" d="M 23.25 10.351562 C 23.25 10.402344 23.25 10.449219 23.25 10.5 C 23.078125 10.503906 23.078125 10.503906 22.898438 10.507812 C 21.859375 10.570312 21.144531 10.714844 20.25 11.25 C 20.347656 11.347656 20.445312 11.445312 20.550781 11.550781 C 20.203125 11.71875 20.203125 11.71875 19.800781 11.851562 C 19.648438 11.75 19.503906 11.652344 19.351562 11.550781 C 19.351562 11.398438 19.351562 11.253906 19.351562 11.101562 C 20.6875 10.320312 21.746094 10.257812 23.25 10.351562 Z M 23.25 10.351562 "/>
<path style=" stroke:none;fill-rule:nonzero;fill:rgb(78.431374%,43.921569%,19.607843%);fill-opacity:1;" d="M 33.148438 45.601562 C 33.726562 46.175781 33.960938 46.9375 34.199219 47.699219 C 34.296875 47.699219 34.398438 47.699219 34.5 47.699219 C 34.550781 47.851562 34.597656 47.996094 34.648438 48.148438 C 34.800781 48.25 34.945312 48.347656 35.101562 48.449219 C 35.101562 48.546875 35.101562 48.648438 35.101562 48.75 C 34.214844 48.375 33.707031 47.539062 33.320312 46.6875 C 33.148438 46.199219 33.148438 46.199219 33.148438 45.601562 Z M 33.148438 45.601562 "/>
<path style=" stroke:none;fill-rule:nonzero;fill:rgb(16.078432%,66.666669%,64.313728%);fill-opacity:1;" d="M 37.867188 25.3125 C 38.0625 25.3125 38.253906 25.3125 38.457031 25.3125 C 38.960938 25.34375 39.300781 25.429688 39.75 25.648438 C 39.300781 25.800781 39.140625 25.800781 38.691406 25.726562 C 38.132812 25.597656 38.132812 25.597656 37.800781 25.800781 C 37.519531 25.785156 37.238281 25.761719 36.957031 25.734375 C 36.804688 25.71875 36.65625 25.703125 36.5 25.6875 C 36.382812 25.671875 36.265625 25.664062 36.148438 25.648438 C 36.707031 25.289062 37.214844 25.308594 37.867188 25.3125 Z M 37.867188 25.3125 "/>
<path style=" stroke:none;fill-rule:nonzero;fill:rgb(15.294118%,65.098041%,62.352943%);fill-opacity:1;" d="M 41.25 32.699219 C 41.347656 32.699219 41.445312 32.699219 41.550781 32.699219 C 41.335938 33.214844 41.085938 33.464844 40.632812 33.789062 C 40.46875 33.90625 40.46875 33.90625 40.304688 34.023438 C 40.21875 34.082031 40.132812 34.140625 40.050781 34.199219 C 40 34.050781 39.953125 33.90625 39.898438 33.75 C 40.351562 33.449219 40.351562 33.449219 40.800781 33.449219 C 40.800781 33.300781 40.800781 33.15625 40.800781 33 C 40.949219 33 41.09375 33 41.25 33 C 41.25 32.902344 41.25 32.804688 41.25 32.699219 Z M 41.25 32.699219 "/>
<path style=" stroke:none;fill-rule:nonzero;fill:rgb(20%,42.745098%,70.588237%);fill-opacity:1;" d="M 25.5 11.699219 C 26.054688 12.207031 26.410156 12.660156 26.699219 13.351562 C 26.699219 13.449219 26.699219 13.546875 26.699219 13.648438 C 26.550781 13.597656 26.40625 13.550781 26.25 13.5 C 26.199219 13.351562 26.152344 13.203125 26.101562 13.050781 C 26 13 25.902344 12.953125 25.800781 12.898438 C 25.707031 12.625 25.707031 12.625 25.632812 12.289062 C 25.609375 12.183594 25.578125 12.070312 25.554688 11.957031 C 25.539062 11.875 25.519531 11.789062 25.5 11.699219 Z M 25.5 11.699219 "/>
<path style=" stroke:none;fill-rule:nonzero;fill:rgb(22.352941%,43.137255%,69.411767%);fill-opacity:1;" d="M 22.152344 10.339844 C 22.257812 10.339844 22.363281 10.339844 22.472656 10.339844 C 22.730469 10.34375 22.992188 10.34375 23.25 10.351562 C 23.25 10.402344 23.25 10.449219 23.25 10.5 C 23.125 10.507812 22.996094 10.519531 22.867188 10.527344 C 22.703125 10.542969 22.539062 10.550781 22.367188 10.566406 C 22.203125 10.578125 22.039062 10.589844 21.871094 10.601562 C 21.460938 10.625 21.460938 10.625 21.148438 10.800781 C 20.851562 10.804688 20.550781 10.804688 20.25 10.800781 C 20.804688 10.246094 21.417969 10.332031 22.152344 10.339844 Z M 22.152344 10.339844 "/>
<path style=" stroke:none;fill-rule:nonzero;fill:rgb(13.725491%,49.803922%,90.980393%);fill-opacity:1;" d="M 25.199219 17.25 C 25.296875 17.347656 25.398438 17.445312 25.5 17.550781 C 25.445312 17.992188 25.367188 18.132812 25.050781 18.449219 C 24.898438 18.449219 24.753906 18.449219 24.601562 18.449219 C 24.6875 17.949219 24.875 17.644531 25.199219 17.25 Z M 25.199219 17.25 "/>
<path style=" stroke:none;fill-rule:nonzero;fill:rgb(21.176471%,43.137255%,69.411767%);fill-opacity:1;" d="M 18.898438 18.300781 C 19.492188 18.472656 19.917969 18.664062 20.398438 19.050781 C 20.550781 19.101562 20.695312 19.148438 20.851562 19.199219 C 20.851562 19.296875 20.851562 19.398438 20.851562 19.5 C 20.0625 19.289062 19.539062 18.945312 18.898438 18.449219 C 18.898438 18.398438 18.898438 18.351562 18.898438 18.300781 Z M 18.898438 18.300781 "/>
<path style=" stroke:none;fill-rule:nonzero;fill:rgb(80.000001%,45.09804%,21.176471%);fill-opacity:1;" d="M 39.148438 40.648438 C 40.007812 40.710938 40.445312 41.035156 41.101562 41.550781 C 40.949219 41.625 40.949219 41.625 40.800781 41.699219 C 40.210938 41.394531 39.671875 41.066406 39.148438 40.648438 Z M 39.148438 40.648438 "/>
<path style=" stroke:none;fill-rule:nonzero;fill:rgb(92.156863%,48.235294%,14.509805%);fill-opacity:1;" d="M 36 42.148438 C 36 42.300781 36 42.445312 36 42.601562 C 35.902344 42.601562 35.804688 42.601562 35.699219 42.601562 C 35.699219 42.699219 35.699219 42.796875 35.699219 42.898438 C 35.601562 42.898438 35.503906 42.898438 35.398438 42.898438 C 35.398438 43 35.398438 43.097656 35.398438 43.199219 C 35.25 43.199219 35.105469 43.199219 34.949219 43.199219 C 35.417969 42.148438 35.417969 42.148438 36 42.148438 Z M 36 42.148438 "/>
<path style=" stroke:none;fill-rule:nonzero;fill:rgb(84.313726%,45.490196%,18.039216%);fill-opacity:1;" d="M 34.648438 41.398438 C 34.800781 41.851562 34.800781 41.851562 34.613281 42.320312 C 34.351562 42.75 34.351562 42.75 33.898438 42.898438 C 33.898438 42.800781 33.898438 42.703125 33.898438 42.601562 C 34 42.601562 34.097656 42.601562 34.199219 42.601562 C 34.1875 42.425781 34.1875 42.425781 34.171875 42.253906 C 34.199219 41.851562 34.199219 41.851562 34.425781 41.578125 C 34.5 41.515625 34.574219 41.460938 34.648438 41.398438 Z M 34.648438 41.398438 "/>
<path style=" stroke:none;fill-rule:nonzero;fill:rgb(20.392157%,43.137255%,70.588237%);fill-opacity:1;" d="M 24.449219 10.949219 C 25 11.136719 25.167969 11.199219 25.5 11.699219 C 24.96875 11.699219 24.835938 11.59375 24.449219 11.25 C 24.449219 11.152344 24.449219 11.054688 24.449219 10.949219 Z M 24.449219 10.949219 "/>
<path style=" stroke:none;fill-rule:nonzero;fill:rgb(13.333334%,50.196081%,91.37255%);fill-opacity:1;" d="M 20.699219 10.800781 C 20.851562 10.851562 20.996094 10.898438 21.148438 10.949219 C 21 11.175781 21 11.175781 20.851562 11.398438 C 20.457031 11.429688 20.457031 11.429688 20.101562 11.398438 C 20.296875 11.203125 20.492188 11.007812 20.699219 10.800781 Z M 20.699219 10.800781 "/>
</g>
</svg>
