<?xml version="1.0" encoding="UTF-8"?>
<svg xmlns="http://www.w3.org/2000/svg" xmlns:xlink="http://www.w3.org/1999/xlink" width="50px" height="50px" viewBox="0 0 50 50" version="1.1">
<g id="surface1">
<path style=" stroke:none;fill-rule:nonzero;fill:rgb(95.294118%,47.058824%,12.156863%);fill-opacity:1;" d="M 34.351562 34.703125 C 35.101562 35.511719 35.515625 36.523438 35.5 37.625 C 35.398438 38.753906 34.988281 39.695312 34.15625 40.476562 C 33.105469 41.3125 32.074219 41.539062 30.746094 41.414062 C 29.75 41.253906 28.90625 40.675781 28.300781 39.890625 C 27.597656 38.832031 27.492188 37.894531 27.625 36.625 C 27.828125 35.722656 28.289062 34.96875 29 34.375 C 30.816406 33.242188 32.714844 33.230469 34.351562 34.703125 Z M 34.351562 34.703125 "/>
<path style=" stroke:none;fill-rule:nonzero;fill:rgb(98.823529%,98.823529%,98.823529%);fill-opacity:1;" d="M 20.679688 21.648438 C 21.558594 22.273438 22.132812 23.066406 22.375 24.125 C 22.539062 25.414062 22.378906 26.429688 21.625 27.5 C 21.320312 27.851562 21.011719 28.117188 20.625 28.375 C 20.542969 28.429688 20.464844 28.484375 20.382812 28.539062 C 19.515625 29.015625 18.460938 29.027344 17.5 28.875 C 16.480469 28.558594 15.714844 28.011719 15.125 27.125 C 15.070312 27.042969 15.015625 26.964844 14.960938 26.882812 C 14.484375 26.015625 14.472656 24.960938 14.625 24 C 14.941406 22.980469 15.488281 22.214844 16.375 21.625 C 16.496094 21.542969 16.496094 21.542969 16.617188 21.460938 C 17.875 20.769531 19.480469 20.949219 20.679688 21.648438 Z M 20.679688 21.648438 "/>
<path style=" stroke:none;fill-rule:nonzero;fill:rgb(16.470589%,49.019608%,87.450981%);fill-opacity:1;" d="M 20.625 9.125 C 21.449219 9.6875 22.011719 10.40625 22.328125 11.355469 C 22.558594 12.636719 22.421875 13.824219 21.6875 14.902344 C 21.097656 15.636719 20.316406 16.203125 19.375 16.375 C 18 16.480469 16.929688 16.351562 15.835938 15.476562 C 14.945312 14.640625 14.613281 13.695312 14.570312 12.5 C 14.5625 11.40625 14.890625 10.558594 15.609375 9.730469 C 16.976562 8.4375 18.972656 8.140625 20.625 9.125 Z M 20.625 9.125 "/>
<path style=" stroke:none;fill-rule:nonzero;fill:rgb(9.411765%,73.725492%,72.941178%);fill-opacity:1;" d="M 33.675781 21.648438 C 34.558594 22.269531 35.128906 23.066406 35.375 24.125 C 35.527344 25.484375 35.335938 26.582031 34.484375 27.664062 C 33.855469 28.335938 32.921875 28.832031 31.996094 28.90625 C 31.039062 28.925781 30.316406 28.882812 29.5 28.375 C 29.410156 28.320312 29.324219 28.265625 29.230469 28.210938 C 28.367188 27.621094 27.90625 26.875 27.625 25.875 C 27.484375 24.511719 27.660156 23.414062 28.523438 22.335938 C 29.875 20.898438 31.988281 20.675781 33.675781 21.648438 Z M 33.675781 21.648438 "/>
<path style=" stroke:none;fill-rule:nonzero;fill:rgb(80.000001%,45.09804%,20.784314%);fill-opacity:1;" d="M 34.25 34.75 C 34.96875 35.367188 35.339844 36.117188 35.484375 37.054688 C 35.558594 38.136719 35.265625 39.125 34.625 40 C 33.828125 40.882812 32.96875 41.378906 31.769531 41.441406 C 30.808594 41.460938 30.058594 41.292969 29.25 40.75 C 29.5 40.625 29.5 40.625 29.714844 40.695312 C 29.84375 40.75 29.84375 40.75 29.976562 40.804688 C 31.125 41.207031 32.34375 41.042969 33.5 40.75 C 33.5 40.667969 33.5 40.585938 33.5 40.5 C 33.625 40.5 33.746094 40.5 33.875 40.5 C 33.875 40.335938 33.875 40.171875 33.875 40 C 34.039062 40 34.203125 40 34.375 40 C 34.375 39.792969 34.375 39.585938 34.375 39.375 C 34.5 39.332031 34.621094 39.292969 34.75 39.25 C 35.125 38.488281 35.164062 37.894531 35.085938 37.0625 C 35.078125 36.960938 35.070312 36.855469 35.0625 36.75 C 35.042969 36.5 35.023438 36.25 35 36 C 34.917969 36 34.835938 36 34.75 36 C 34.582031 35.582031 34.417969 35.167969 34.25 34.75 Z M 34.25 34.75 "/>
<path style=" stroke:none;fill-rule:nonzero;fill:rgb(82.352942%,45.882353%,19.607843%);fill-opacity:1;" d="M 28.875 34.5 C 29 34.875 29 34.875 28.851562 35.265625 C 28.625 35.625 28.625 35.625 28.351562 35.734375 C 28.238281 35.742188 28.238281 35.742188 28.125 35.75 C 28.007812 36.355469 27.96875 36.941406 27.960938 37.554688 C 27.957031 37.644531 27.953125 37.734375 27.949219 37.828125 C 27.941406 38.53125 28.121094 38.910156 28.5 39.5 C 28.5 39.582031 28.5 39.664062 28.5 39.75 C 28.582031 39.75 28.664062 39.75 28.75 39.75 C 28.792969 39.875 28.832031 39.996094 28.875 40.125 C 29 40.207031 29.121094 40.289062 29.25 40.375 C 29.25 40.457031 29.25 40.539062 29.25 40.625 C 28.511719 40.3125 28.171875 39.652344 27.765625 38.992188 C 27.410156 38.066406 27.492188 36.855469 27.828125 35.9375 C 28.089844 35.371094 28.445312 34.949219 28.875 34.5 Z M 28.875 34.5 "/>
<path style=" stroke:none;fill-rule:nonzero;fill:rgb(20.784314%,44.705883%,74.901962%);fill-opacity:1;" d="M 21.375 14.375 C 21.539062 14.375 21.703125 14.375 21.875 14.375 C 21.703125 15.082031 21.195312 15.46875 20.625 15.875 C 19.59375 16.484375 18.410156 16.570312 17.257812 16.285156 C 16.621094 16.050781 16.183594 15.769531 15.75 15.25 C 16.242188 15.394531 16.597656 15.554688 17 15.875 C 17.339844 15.988281 17.539062 16.015625 17.886719 16.015625 C 17.984375 16.015625 18.082031 16.015625 18.183594 16.015625 C 18.285156 16.015625 18.386719 16.015625 18.492188 16.015625 C 18.59375 16.015625 18.695312 16.015625 18.800781 16.015625 C 18.945312 16.015625 18.945312 16.015625 19.097656 16.015625 C 19.1875 16.015625 19.277344 16.015625 19.367188 16.015625 C 19.632812 16 19.871094 15.949219 20.125 15.875 C 20.0625 15.6875 20.0625 15.6875 20 15.5 C 20.132812 15.464844 20.269531 15.429688 20.40625 15.390625 C 20.761719 15.285156 21.054688 15.179688 21.375 15 C 21.375 14.792969 21.375 14.585938 21.375 14.375 Z M 21.375 14.375 "/>
<path style=" stroke:none;fill-rule:nonzero;fill:rgb(14.509805%,69.01961%,66.666669%);fill-opacity:1;" d="M 28 23.125 C 28.042969 23.125 28.082031 23.125 28.125 23.125 C 28.097656 23.296875 28.097656 23.296875 28.070312 23.46875 C 28.046875 23.644531 28.023438 23.824219 28 24 C 27.984375 24.121094 27.96875 24.238281 27.949219 24.359375 C 27.859375 25.15625 27.851562 25.671875 28.25 26.375 C 28.414062 26.332031 28.578125 26.292969 28.75 26.25 C 28.777344 26.453125 28.804688 26.65625 28.828125 26.859375 C 28.84375 26.972656 28.855469 27.085938 28.871094 27.203125 C 28.871094 27.300781 28.875 27.398438 28.875 27.5 C 28.792969 27.582031 28.710938 27.664062 28.625 27.75 C 28.503906 27.578125 28.382812 27.40625 28.265625 27.234375 C 28.199219 27.136719 28.132812 27.042969 28.0625 26.945312 C 27.507812 26.003906 27.445312 24.84375 27.710938 23.789062 C 27.8125 23.515625 27.8125 23.515625 28 23.125 Z M 28 23.125 "/>
<path style=" stroke:none;fill-rule:nonzero;fill:rgb(17.254902%,67.843139%,65.098041%);fill-opacity:1;" d="M 35 23.375 C 35.445312 23.820312 35.402344 24.339844 35.414062 24.953125 C 35.402344 26.175781 35.0625 27.027344 34.226562 27.921875 C 33.929688 28.1875 33.621094 28.355469 33.25 28.5 C 33.292969 28.335938 33.332031 28.171875 33.375 28 C 33.683594 27.9375 33.683594 27.9375 34 27.875 C 34 27.75 34 27.628906 34 27.5 C 34.125 27.5 34.246094 27.5 34.375 27.5 C 34.386719 27.359375 34.402344 27.222656 34.414062 27.078125 C 34.441406 26.929688 34.472656 26.777344 34.5 26.625 C 34.625 26.542969 34.746094 26.460938 34.875 26.375 C 34.996094 26.007812 35.015625 25.773438 35.011719 25.390625 C 35.011719 25.273438 35.011719 25.15625 35.011719 25.035156 C 35.011719 24.910156 35.007812 24.789062 35.007812 24.664062 C 35.007812 24.539062 35.007812 24.417969 35.007812 24.289062 C 35.003906 23.984375 35.003906 23.679688 35 23.375 Z M 35 23.375 "/>
<path style=" stroke:none;fill-rule:nonzero;fill:rgb(20.784314%,45.09804%,75.294119%);fill-opacity:1;" d="M 21.25 9.75 C 21.992188 10.367188 22.320312 11.101562 22.417969 12.058594 C 22.4375 12.917969 22.371094 13.597656 22 14.375 C 21.957031 14.375 21.917969 14.375 21.875 14.375 C 21.894531 14.226562 21.917969 14.082031 21.9375 13.929688 C 22 13.378906 22.019531 12.828125 22.023438 12.273438 C 22.027344 12.035156 22.027344 12.035156 22.027344 11.792969 C 22.003906 11.40625 21.96875 11.191406 21.75 10.875 C 21.667969 10.832031 21.585938 10.792969 21.5 10.75 C 21.421875 10.519531 21.421875 10.519531 21.359375 10.242188 C 21.339844 10.152344 21.316406 10.058594 21.296875 9.964844 C 21.28125 9.894531 21.265625 9.824219 21.25 9.75 Z M 21.25 9.75 "/>
<path style=" stroke:none;fill-rule:nonzero;fill:rgb(77.64706%,42.745098%,18.039216%);fill-opacity:1;" d="M 34.125 34.5 C 34.1875 34.625 34.1875 34.625 34.25 34.75 C 33.816406 34.621094 33.433594 34.472656 33.046875 34.242188 C 32.386719 33.863281 31.84375 33.859375 31.09375 33.867188 C 30.953125 33.867188 30.953125 33.867188 30.8125 33.867188 C 30.582031 33.871094 30.355469 33.871094 30.125 33.875 C 31.367188 33.046875 33.042969 33.667969 34.125 34.5 Z M 34.125 34.5 "/>
<path style=" stroke:none;fill-rule:nonzero;fill:rgb(18.431373%,46.27451%,81.568629%);fill-opacity:1;" d="M 19.375 8.625 C 19.375 8.667969 19.375 8.707031 19.375 8.75 C 19.230469 8.753906 19.230469 8.753906 19.082031 8.757812 C 18.214844 8.808594 17.621094 8.929688 16.875 9.375 C 16.957031 9.457031 17.039062 9.539062 17.125 9.625 C 16.835938 9.765625 16.835938 9.765625 16.5 9.875 C 16.375 9.792969 16.253906 9.710938 16.125 9.625 C 16.125 9.5 16.125 9.378906 16.125 9.25 C 17.238281 8.601562 18.121094 8.546875 19.375 8.625 Z M 19.375 8.625 "/>
<path style=" stroke:none;fill-rule:nonzero;fill:rgb(78.431374%,43.921569%,19.607843%);fill-opacity:1;" d="M 27.625 38 C 28.105469 38.480469 28.300781 39.113281 28.5 39.75 C 28.582031 39.75 28.664062 39.75 28.75 39.75 C 28.792969 39.875 28.832031 39.996094 28.875 40.125 C 29 40.207031 29.121094 40.289062 29.25 40.375 C 29.25 40.457031 29.25 40.539062 29.25 40.625 C 28.511719 40.3125 28.089844 39.617188 27.765625 38.90625 C 27.625 38.5 27.625 38.5 27.625 38 Z M 27.625 38 "/>
<path style=" stroke:none;fill-rule:nonzero;fill:rgb(16.078432%,66.666669%,64.313728%);fill-opacity:1;" d="M 31.554688 21.09375 C 31.71875 21.09375 31.878906 21.09375 32.046875 21.09375 C 32.46875 21.121094 32.75 21.191406 33.125 21.375 C 32.75 21.5 32.617188 21.5 32.242188 21.4375 C 31.777344 21.332031 31.777344 21.332031 31.5 21.5 C 31.265625 21.488281 31.03125 21.46875 30.796875 21.445312 C 30.671875 21.433594 30.546875 21.417969 30.417969 21.40625 C 30.320312 21.394531 30.222656 21.386719 30.125 21.375 C 30.589844 21.074219 31.011719 21.089844 31.554688 21.09375 Z M 31.554688 21.09375 "/>
<path style=" stroke:none;fill-rule:nonzero;fill:rgb(15.294118%,65.098041%,62.352943%);fill-opacity:1;" d="M 34.375 27.25 C 34.457031 27.25 34.539062 27.25 34.625 27.25 C 34.445312 27.679688 34.238281 27.886719 33.859375 28.15625 C 33.722656 28.253906 33.722656 28.253906 33.585938 28.351562 C 33.515625 28.402344 33.445312 28.449219 33.375 28.5 C 33.332031 28.375 33.292969 28.253906 33.25 28.125 C 33.625 27.875 33.625 27.875 34 27.875 C 34 27.75 34 27.628906 34 27.5 C 34.125 27.5 34.246094 27.5 34.375 27.5 C 34.375 27.417969 34.375 27.335938 34.375 27.25 Z M 34.375 27.25 "/>
<path style=" stroke:none;fill-rule:nonzero;fill:rgb(20%,42.745098%,70.588237%);fill-opacity:1;" d="M 21.25 9.75 C 21.710938 10.171875 22.007812 10.550781 22.25 11.125 C 22.25 11.207031 22.25 11.289062 22.25 11.375 C 22.125 11.332031 22.003906 11.292969 21.875 11.25 C 21.832031 11.125 21.792969 11.003906 21.75 10.875 C 21.667969 10.832031 21.585938 10.792969 21.5 10.75 C 21.421875 10.519531 21.421875 10.519531 21.359375 10.242188 C 21.339844 10.152344 21.316406 10.058594 21.296875 9.964844 C 21.28125 9.894531 21.265625 9.824219 21.25 9.75 Z M 21.25 9.75 "/>
<path style=" stroke:none;fill-rule:nonzero;fill:rgb(22.352941%,43.137255%,69.411767%);fill-opacity:1;" d="M 18.460938 8.617188 C 18.546875 8.617188 18.636719 8.617188 18.726562 8.617188 C 18.941406 8.621094 19.160156 8.621094 19.375 8.625 C 19.375 8.667969 19.375 8.707031 19.375 8.75 C 19.269531 8.757812 19.164062 8.765625 19.054688 8.773438 C 18.917969 8.785156 18.78125 8.792969 18.640625 8.804688 C 18.503906 8.816406 18.367188 8.824219 18.226562 8.835938 C 17.882812 8.855469 17.882812 8.855469 17.625 9 C 17.375 9.003906 17.125 9.003906 16.875 9 C 17.335938 8.539062 17.847656 8.609375 18.460938 8.617188 Z M 18.460938 8.617188 "/>
<path style=" stroke:none;fill-rule:nonzero;fill:rgb(13.725491%,49.803922%,90.980393%);fill-opacity:1;" d="M 21 14.375 C 21.082031 14.457031 21.164062 14.539062 21.25 14.625 C 21.203125 14.992188 21.140625 15.109375 20.875 15.375 C 20.75 15.375 20.628906 15.375 20.5 15.375 C 20.574219 14.957031 20.730469 14.703125 21 14.375 Z M 21 14.375 "/>
<path style=" stroke:none;fill-rule:nonzero;fill:rgb(21.176471%,43.137255%,69.411767%);fill-opacity:1;" d="M 15.75 15.25 C 16.242188 15.394531 16.597656 15.554688 17 15.875 C 17.125 15.917969 17.246094 15.957031 17.375 16 C 17.375 16.082031 17.375 16.164062 17.375 16.25 C 16.71875 16.074219 16.28125 15.789062 15.75 15.375 C 15.75 15.332031 15.75 15.292969 15.75 15.25 Z M 15.75 15.25 "/>
<path style=" stroke:none;fill-rule:nonzero;fill:rgb(80.000001%,45.09804%,21.176471%);fill-opacity:1;" d="M 32.625 33.875 C 33.339844 33.925781 33.703125 34.195312 34.25 34.625 C 34.125 34.6875 34.125 34.6875 34 34.75 C 33.507812 34.496094 33.058594 34.222656 32.625 33.875 Z M 32.625 33.875 "/>
<path style=" stroke:none;fill-rule:nonzero;fill:rgb(92.156863%,48.235294%,14.509805%);fill-opacity:1;" d="M 30 35.125 C 30 35.25 30 35.371094 30 35.5 C 29.917969 35.5 29.835938 35.5 29.75 35.5 C 29.75 35.582031 29.75 35.664062 29.75 35.75 C 29.667969 35.75 29.585938 35.75 29.5 35.75 C 29.5 35.832031 29.5 35.914062 29.5 36 C 29.375 36 29.253906 36 29.125 36 C 29.515625 35.125 29.515625 35.125 30 35.125 Z M 30 35.125 "/>
<path style=" stroke:none;fill-rule:nonzero;fill:rgb(84.313726%,45.490196%,18.039216%);fill-opacity:1;" d="M 28.875 34.5 C 29 34.875 29 34.875 28.84375 35.265625 C 28.625 35.625 28.625 35.625 28.25 35.75 C 28.25 35.667969 28.25 35.585938 28.25 35.5 C 28.332031 35.5 28.414062 35.5 28.5 35.5 C 28.488281 35.355469 28.488281 35.355469 28.476562 35.210938 C 28.5 34.875 28.5 34.875 28.6875 34.648438 C 28.75 34.597656 28.8125 34.550781 28.875 34.5 Z M 28.875 34.5 "/>
<path style=" stroke:none;fill-rule:nonzero;fill:rgb(20.392157%,43.137255%,70.588237%);fill-opacity:1;" d="M 20.375 9.125 C 20.832031 9.28125 20.972656 9.332031 21.25 9.75 C 20.808594 9.75 20.695312 9.660156 20.375 9.375 C 20.375 9.292969 20.375 9.210938 20.375 9.125 Z M 20.375 9.125 "/>
<path style=" stroke:none;fill-rule:nonzero;fill:rgb(13.333334%,50.196081%,91.37255%);fill-opacity:1;" d="M 17.25 9 C 17.375 9.042969 17.496094 9.082031 17.625 9.125 C 17.5 9.3125 17.5 9.3125 17.375 9.5 C 17.046875 9.523438 17.046875 9.523438 16.75 9.5 C 16.914062 9.335938 17.078125 9.171875 17.25 9 Z M 17.25 9 "/>
</g>
</svg>
