<?xml version="1.0" encoding="UTF-8"?>
<svg xmlns="http://www.w3.org/2000/svg" xmlns:xlink="http://www.w3.org/1999/xlink" width="50px" height="50px" viewBox="0 0 50 50" version="1.1">
<g id="surface1">
<path style=" stroke:none;fill-rule:nonzero;fill:rgb(100%,100%,100%);fill-opacity:1;" d="M 41.054688 21.59375 C 41.933594 21.15625 42.851562 20.625 43.75 20 L 43.75 25 C 43.75 30.175781 35.355469 34.375 25 34.375 C 14.644531 34.375 6.25 30.175781 6.25 25 L 6.25 20 C 7.148438 20.625 8.066406 21.15625 8.945312 21.59375 C 13.378906 23.808594 19.0625 25 25 25 C 30.9375 25 36.621094 23.808594 41.054688 21.59375 Z M 41.054688 21.59375 "/>
<path style=" stroke:none;fill-rule:nonzero;fill:rgb(100%,100%,100%);fill-opacity:1;" d="M 6.25 35.625 L 6.25 40.625 C 6.25 45.804688 14.644531 50 25 50 C 35.355469 50 43.75 45.804688 43.75 40.625 L 43.75 35.625 C 42.851562 36.25 41.933594 36.78125 41.054688 37.21875 C 36.621094 39.433594 30.9375 40.625 25 40.625 C 19.0625 40.625 13.378906 39.433594 8.945312 37.21875 C 8.066406 36.78125 7.148438 36.25 6.25 35.625 Z M 6.25 35.625 "/>
<path style=" stroke:none;fill-rule:nonzero;fill:rgb(100%,100%,100%);fill-opacity:1;" d="M 25 0 C 35.355469 0 43.75 4.199219 43.75 9.375 C 43.75 14.550781 35.355469 18.75 25 18.75 C 14.644531 18.75 6.25 14.550781 6.25 9.375 C 6.25 4.199219 14.644531 0 25 0 Z M 25 0 "/>
</g>
</svg>
