<?xml version="1.0" encoding="UTF-8"?>
<svg xmlns="http://www.w3.org/2000/svg" xmlns:xlink="http://www.w3.org/1999/xlink" width="50px" height="50px" viewBox="0 0 50 50" version="1.1">
<g id="surface1">
<path style=" stroke:none;fill-rule:nonzero;fill:rgb(100%,100%,100%);fill-opacity:1;" d="M 47.542969 22.910156 L 27.082031 2.453125 C 26.535156 1.90625 25.78125 1.570312 24.945312 1.570312 C 24.113281 1.570312 23.359375 1.90625 22.8125 2.453125 L 18.570312 6.699219 L 23.960938 12.085938 C 24.304688 11.96875 24.699219 11.898438 25.113281 11.898438 C 27.09375 11.898438 28.703125 13.503906 28.703125 15.488281 C 28.703125 15.90625 28.628906 16.308594 28.496094 16.683594 L 28.503906 16.660156 L 33.695312 21.851562 C 34.042969 21.730469 34.445312 21.65625 34.859375 21.65625 C 36.84375 21.65625 38.449219 23.265625 38.449219 25.246094 C 38.449219 27.226562 36.84375 28.832031 34.859375 28.832031 C 32.878906 28.832031 31.273438 27.226562 31.273438 25.246094 C 31.273438 24.757812 31.371094 24.289062 31.546875 23.867188 L 31.539062 23.890625 L 26.679688 19.054688 L 26.679688 31.796875 C 27.875 32.398438 28.679688 33.613281 28.679688 35.015625 C 28.679688 37 27.070312 38.609375 25.085938 38.609375 C 23.101562 38.609375 21.492188 37 21.492188 35.015625 C 21.492188 34.023438 21.890625 33.128906 22.539062 32.480469 C 22.867188 32.148438 23.261719 31.882812 23.695312 31.695312 L 23.71875 31.6875 L 23.71875 18.820312 C 22.40625 18.265625 21.5 16.988281 21.5 15.5 C 21.5 15 21.601562 14.523438 21.785156 14.089844 L 21.773438 14.113281 L 16.480469 8.792969 L 2.449219 22.816406 C 1.90625 23.363281 1.570312 24.117188 1.570312 24.953125 C 1.570312 25.789062 1.90625 26.542969 2.449219 27.089844 L 22.914062 47.546875 C 23.457031 48.09375 24.210938 48.429688 25.046875 48.429688 C 25.882812 48.429688 26.632812 48.09375 27.179688 47.546875 L 47.546875 27.179688 C 48.09375 26.636719 48.433594 25.878906 48.433594 25.046875 C 48.433594 24.214844 48.09375 23.457031 47.546875 22.914062 Z M 47.542969 22.910156 "/>
</g>
</svg>
