<?xml version="1.0" encoding="UTF-8"?>
<svg xmlns="http://www.w3.org/2000/svg" xmlns:xlink="http://www.w3.org/1999/xlink" width="50px" height="50px" viewBox="0 0 50 50" version="1.1">
<g id="surface1">
<path style=" stroke:none;fill-rule:evenodd;fill:rgb(100%,100%,100%);fill-opacity:1;" d="M 25 0 C 38.808594 0 50 11.476562 50 25.632812 C 50 36.953125 42.84375 46.558594 32.917969 49.953125 C 31.648438 50.203125 31.199219 49.40625 31.199219 48.722656 C 31.199219 47.878906 31.230469 45.117188 31.230469 41.6875 C 31.230469 39.296875 30.429688 37.738281 29.53125 36.941406 C 35.101562 36.308594 40.949219 34.140625 40.949219 24.296875 C 40.949219 21.496094 39.980469 19.210938 38.375 17.414062 C 38.636719 16.765625 39.492188 14.160156 38.128906 10.628906 C 38.128906 10.628906 36.035156 9.941406 31.261719 13.257812 C 29.265625 12.691406 27.125 12.40625 25 12.394531 C 22.875 12.40625 20.738281 12.691406 18.742188 13.257812 C 13.964844 9.941406 11.863281 10.628906 11.863281 10.628906 C 10.507812 14.160156 11.363281 16.765625 11.621094 17.414062 C 10.023438 19.210938 9.046875 21.496094 9.046875 24.296875 C 9.046875 34.113281 14.886719 36.316406 20.4375 36.960938 C 19.722656 37.601562 19.074219 38.734375 18.851562 40.390625 C 17.425781 41.046875 13.804688 42.175781 11.574219 38.261719 C 11.574219 38.261719 10.253906 35.796875 7.742188 35.617188 C 7.742188 35.617188 5.304688 35.585938 7.574219 37.175781 C 7.574219 37.175781 9.210938 37.960938 10.347656 40.925781 C 10.347656 40.925781 11.816406 45.5 18.769531 43.949219 C 18.78125 46.09375 18.804688 48.113281 18.804688 48.722656 C 18.804688 49.398438 18.34375 50.191406 17.097656 49.953125 C 7.164062 46.566406 0 36.957031 0 25.632812 C 0 11.476562 11.195312 0 25 0 "/>
</g>
</svg>
