<?xml version="1.0" encoding="UTF-8"?>
<svg xmlns="http://www.w3.org/2000/svg" xmlns:xlink="http://www.w3.org/1999/xlink" width="50px" height="50px" viewBox="0 0 50 50" version="1.1">
<g id="surface1">
<path style=" stroke:none;fill-rule:evenodd;fill:rgb(100%,100%,100%);fill-opacity:1;" d="M 24.996094 6.542969 C 11.191406 6.542969 0 17.890625 0 31.898438 L 0 44.042969 L 4.609375 44.042969 L 4.609375 42.832031 C 4.609375 37.148438 9.144531 32.546875 14.746094 32.546875 C 20.347656 32.546875 24.882812 37.148438 24.882812 42.832031 L 24.882812 44.042969 L 29.492188 44.042969 L 29.492188 42.832031 C 29.492188 34.570312 22.886719 27.875 14.746094 27.875 C 11.691406 27.871094 8.710938 28.832031 6.234375 30.621094 C 8.75 25.546875 13.929688 22.0625 19.917969 22.0625 C 28.367188 22.0625 35.222656 29.015625 35.222656 37.589844 L 35.222656 44.042969 L 39.832031 44.042969 L 39.832031 37.589844 C 39.832031 26.433594 30.914062 17.386719 19.914062 17.386719 C 15.152344 17.382812 10.550781 19.109375 6.960938 22.242188 C 10.382812 15.683594 17.175781 11.214844 25 11.214844 C 36.261719 11.214844 45.390625 20.476562 45.390625 31.902344 L 45.390625 44.042969 L 50 44.042969 L 50 31.898438 C 49.996094 17.890625 38.804688 6.542969 25 6.542969 Z M 24.996094 6.542969 "/>
</g>
</svg>
