<?xml version="1.0" encoding="UTF-8"?>
<svg xmlns="http://www.w3.org/2000/svg" xmlns:xlink="http://www.w3.org/1999/xlink" width="50px" height="50px" viewBox="0 0 50 50" version="1.1">
<g id="surface1">
<path style=" stroke:none;fill-rule:evenodd;fill:rgb(100%,100%,100%);fill-opacity:1;" d="M 8.929688 45.652344 L 3.558594 38.957031 C 2.265625 37.347656 1.5625 35.367188 1.5625 33.328125 L 1.5625 9.085938 C 1.5625 6.03125 4.003906 3.5 7.15625 3.28125 L 32.082031 1.582031 C 33.890625 1.457031 35.691406 1.9375 37.179688 2.945312 L 45.9375 8.867188 C 47.503906 9.925781 48.4375 11.65625 48.4375 13.507812 L 48.4375 41.066406 C 48.4375 44.054688 46.035156 46.53125 42.949219 46.71875 L 15.285156 48.421875 C 12.824219 48.574219 10.445312 47.535156 8.929688 45.652344 Z M 8.929688 45.652344 "/>
<path style=" stroke:none;fill-rule:nonzero;fill:rgb(100%,100%,100%);fill-opacity:1;" d="M 17.574219 21.214844 L 17.574219 20.898438 C 17.574219 20.09375 18.21875 19.425781 19.050781 19.371094 L 25.097656 18.96875 L 33.464844 31.285156 L 33.464844 20.476562 L 31.3125 20.1875 L 31.3125 20.039062 C 31.3125 19.222656 31.96875 18.550781 32.8125 18.507812 L 38.316406 18.226562 L 38.316406 19.019531 C 38.316406 19.390625 38.039062 19.707031 37.660156 19.773438 L 36.335938 19.996094 L 36.335938 37.503906 L 34.671875 38.078125 C 33.285156 38.554688 31.738281 38.042969 30.941406 36.84375 L 22.820312 24.589844 L 22.820312 36.285156 L 25.320312 36.765625 L 25.285156 36.996094 C 25.175781 37.722656 24.550781 38.273438 23.792969 38.304688 L 17.574219 38.582031 C 17.492188 37.800781 18.078125 37.101562 18.886719 37.019531 L 19.703125 36.933594 L 19.703125 21.335938 Z M 17.574219 21.214844 "/>
<path style=" stroke:none;fill-rule:evenodd;fill:rgb(100%,100%,100%);fill-opacity:1;" d="M 32.304688 4.636719 L 7.378906 6.335938 C 5.886719 6.4375 4.730469 7.640625 4.730469 9.085938 L 4.730469 33.328125 C 4.730469 34.6875 5.199219 36.007812 6.058594 37.082031 L 11.433594 43.777344 C 12.304688 44.859375 13.671875 45.453125 15.085938 45.367188 L 42.746094 43.664062 C 44.164062 43.578125 45.269531 42.441406 45.269531 41.066406 L 45.269531 13.507812 C 45.269531 12.65625 44.839844 11.859375 44.121094 11.375 L 35.363281 5.453125 C 34.472656 4.851562 33.390625 4.5625 32.304688 4.636719 Z M 8.617188 9.464844 C 8.269531 9.207031 8.433594 8.671875 8.871094 8.640625 L 32.472656 6.949219 C 33.222656 6.894531 33.972656 7.101562 34.578125 7.53125 L 39.316406 10.886719 C 39.496094 11.015625 39.410156 11.289062 39.1875 11.300781 L 14.195312 12.660156 C 13.4375 12.703125 12.691406 12.480469 12.089844 12.035156 Z M 13.019531 16.921875 C 13.019531 16.109375 13.675781 15.441406 14.515625 15.394531 L 40.941406 13.957031 C 41.761719 13.910156 42.449219 14.539062 42.449219 15.332031 L 42.449219 39.195312 C 42.449219 40.007812 41.792969 40.675781 40.957031 40.722656 L 14.699219 42.21875 C 13.789062 42.269531 13.019531 41.570312 13.019531 40.691406 Z M 13.019531 16.921875 "/>
</g>
</svg>
