<?xml version="1.0" encoding="UTF-8"?>
<svg xmlns="http://www.w3.org/2000/svg" xmlns:xlink="http://www.w3.org/1999/xlink" width="50px" height="50px" viewBox="0 0 50 50" version="1.1">
<g id="surface1">
<path style=" stroke:none;fill-rule:evenodd;fill:rgb(100%,100%,100%);fill-opacity:1;" d="M 29.496094 4.445312 C 30.195312 4.09375 31.046875 4.316406 31.488281 4.964844 L 38.613281 15.457031 C 38.847656 15.796875 38.933594 16.214844 38.859375 16.617188 L 34.238281 41.726562 C 34.207031 41.886719 34.152344 42.042969 34.078125 42.183594 L 32.613281 44.910156 C 32.257812 45.578125 31.46875 45.890625 30.75 45.65625 L 20.082031 42.152344 C 19.660156 42.011719 19.316406 41.699219 19.140625 41.292969 L 11.429688 23.710938 C 11.25 23.292969 11.257812 22.820312 11.449219 22.410156 L 16.78125 11.1875 C 16.929688 10.871094 17.179688 10.617188 17.492188 10.460938 Z M 17.308594 17.359375 L 14.578125 23.109375 L 18.414062 31.855469 L 17.597656 19.667969 Z M 21.242188 27.328125 L 22.058594 39.511719 L 28.203125 41.53125 Z M 31.257812 40.65625 L 35.589844 17.121094 L 29.300781 13.390625 L 21.109375 19.953125 Z M 20.355469 16.550781 L 27.738281 10.640625 L 28.097656 8.640625 L 19.878906 12.757812 Z M 31.050781 9.882812 L 30.902344 10.703125 L 32.085938 11.410156 Z M 31.050781 9.882812 "/>
</g>
</svg>
