<?xml version="1.0" encoding="UTF-8"?>
<svg xmlns="http://www.w3.org/2000/svg" xmlns:xlink="http://www.w3.org/1999/xlink" width="50px" height="50px" viewBox="0 0 50 50" version="1.1">
<g id="surface1">
<path style=" stroke:none;fill-rule:nonzero;fill:rgb(100%,100%,100%);fill-opacity:1;" d="M 18.515625 4.394531 L 23.621094 4.394531 L 23.621094 15 L 18.515625 15 Z M 18.515625 26.179688 L 23.621094 26.179688 L 23.621094 36.789062 L 18.515625 36.789062 Z M 18.515625 18.097656 L 23.621094 18.097656 L 23.621094 23.101562 L 18.515625 23.101562 Z M 10.308594 13.113281 L 15.414062 13.113281 L 15.414062 48.367188 L 10.308594 48.367188 Z M 26.550781 34.929688 L 31.65625 34.929688 L 31.65625 45.535156 L 26.550781 45.535156 Z M 26.550781 13.125 L 31.65625 13.125 L 31.65625 23.730469 L 26.550781 23.730469 Z M 26.550781 26.828125 L 31.65625 26.828125 L 31.65625 31.835938 L 26.550781 31.835938 Z M 34.585938 1.632812 L 39.691406 1.632812 L 39.691406 36.886719 L 34.585938 36.886719 Z M 34.585938 1.632812 "/>
</g>
</svg>
