<?xml version="1.0" encoding="UTF-8"?>
<svg xmlns="http://www.w3.org/2000/svg" xmlns:xlink="http://www.w3.org/1999/xlink" width="50px" height="50px" viewBox="0 0 50 49" version="1.1">
<g id="surface1">
<path style=" stroke:none;fill-rule:nonzero;fill:rgb(0%,0%,0%);fill-opacity:1;" d="M 24.015625 0.015625 C 18.363281 0.238281 12.976562 2.308594 8.703125 5.910156 C 7.816406 6.65625 6.882812 7.570312 6.117188 8.433594 C 3.25 11.683594 1.308594 15.585938 0.46875 19.789062 C 0.0664062 21.796875 -0.0742188 23.851562 0.046875 25.890625 C 0.273438 29.746094 1.414062 33.476562 3.378906 36.796875 C 4.828125 39.25 6.722656 41.457031 8.953125 43.28125 C 13.109375 46.695312 18.238281 48.675781 23.632812 48.957031 C 24.320312 48.992188 24.585938 48.996094 25.207031 48.992188 C 25.917969 48.984375 26.402344 48.960938 27.15625 48.898438 C 31.328125 48.550781 35.375 47.148438 38.886719 44.839844 C 42.101562 42.726562 44.796875 39.875 46.707031 36.554688 C 47.128906 35.820312 47.578125 34.933594 47.917969 34.15625 C 49.050781 31.566406 49.714844 28.808594 49.886719 25.992188 C 49.910156 25.628906 49.917969 25.453125 49.933594 24.90625 C 49.949219 24.503906 49.929688 23.699219 49.894531 23.128906 C 49.722656 20.257812 49.066406 17.507812 47.925781 14.886719 C 47.652344 14.257812 47.222656 13.386719 46.894531 12.796875 C 45.882812 10.984375 44.730469 9.402344 43.308594 7.878906 C 43.042969 7.59375 42.28125 6.84375 41.992188 6.578125 C 39.46875 4.28125 36.558594 2.546875 33.335938 1.417969 C 30.9375 0.582031 28.453125 0.113281 25.867188 0.0117188 C 25.484375 0 24.394531 0 24.015625 0.015625 Z M 25.722656 1.699219 C 27.300781 1.773438 28.691406 2.117188 29.113281 2.53125 C 29.195312 2.617188 29.230469 2.683594 29.230469 2.769531 C 29.230469 2.929688 29.078125 3.082031 28.75 3.238281 C 27.480469 3.859375 24.457031 4.039062 22.347656 3.621094 C 21.703125 3.496094 21.160156 3.3125 20.875 3.125 C 20.765625 3.054688 20.660156 2.949219 20.625 2.882812 C 20.59375 2.816406 20.589844 2.730469 20.621094 2.664062 C 20.648438 2.59375 20.769531 2.476562 20.890625 2.402344 C 21.496094 2.019531 22.804688 1.75 24.324219 1.695312 C 24.59375 1.6875 25.484375 1.6875 25.722656 1.699219 Z M 31.082031 2.480469 C 34.128906 3.289062 37.003906 4.71875 39.476562 6.648438 C 40.046875 7.09375 40.648438 7.609375 41.105469 8.046875 L 41.296875 8.230469 L 41.183594 8.191406 C 39.398438 7.546875 37.605469 7.082031 35.421875 6.691406 C 32.71875 6.203125 30.011719 5.929688 26.824219 5.8125 C 26.246094 5.789062 24.265625 5.792969 23.652344 5.8125 C 22.835938 5.839844 22.097656 5.875 21.53125 5.910156 L 21.25 5.929688 L 21.03125 6.125 C 20.394531 6.695312 19.8125 7.144531 19.011719 7.691406 C 18.945312 7.734375 18.921875 7.757812 18.941406 7.757812 C 18.957031 7.757812 19.148438 7.742188 19.371094 7.71875 C 21.871094 7.484375 24.5625 7.398438 26.972656 7.476562 C 32.457031 7.652344 37.480469 8.5 40.933594 9.832031 C 42.484375 10.429688 43.675781 11.128906 44.285156 11.800781 C 44.484375 12.015625 44.703125 12.363281 44.773438 12.566406 C 44.90625 12.964844 44.855469 13.347656 44.613281 13.75 C 44 14.769531 42.136719 15.804688 39.398438 16.644531 C 38.363281 16.964844 37.023438 17.296875 35.859375 17.519531 L 35.707031 17.550781 L 35.316406 17.496094 C 35.101562 17.46875 34.878906 17.4375 34.816406 17.429688 L 34.707031 17.414062 L 34.542969 17.542969 C 34.453125 17.617188 34.339844 17.707031 34.289062 17.742188 L 34.199219 17.8125 L 33.855469 17.863281 C 32.039062 18.140625 30.109375 18.339844 28.242188 18.441406 C 28.101562 18.449219 27.894531 18.460938 27.78125 18.464844 C 26.734375 18.527344 24.785156 18.558594 23.632812 18.53125 C 23.292969 18.523438 22.976562 18.511719 22.929688 18.507812 L 22.84375 18.5 L 22.363281 17.6875 C 22.101562 17.238281 20.839844 15.101562 19.5625 12.9375 L 17.238281 8.996094 L 17.308594 8.902344 C 17.390625 8.789062 17.519531 8.546875 17.570312 8.410156 C 17.613281 8.289062 17.648438 8.152344 17.675781 7.988281 C 17.707031 7.808594 17.695312 7.460938 17.65625 7.277344 C 17.476562 6.464844 16.851562 5.839844 16.027344 5.652344 C 15.054688 5.433594 14.054688 5.914062 13.628906 6.800781 C 13.40625 7.261719 13.359375 7.730469 13.484375 8.21875 C 13.6875 9.015625 14.367188 9.625 15.207031 9.769531 C 15.347656 9.792969 15.625 9.800781 15.792969 9.785156 L 15.90625 9.773438 L 17.9375 13.214844 C 19.054688 15.109375 20.050781 16.796875 20.152344 16.96875 C 20.25 17.144531 20.480469 17.535156 20.664062 17.84375 C 20.84375 18.152344 20.992188 18.40625 20.988281 18.40625 C 20.980469 18.414062 20.316406 18.367188 19.679688 18.3125 C 18.691406 18.226562 17.789062 18.125 16.863281 17.996094 L 16.441406 17.9375 L 16.25 17.796875 C 16.148438 17.71875 15.988281 17.59375 15.898438 17.519531 L 15.730469 17.382812 L 15.492188 17.414062 C 15.359375 17.429688 15.046875 17.472656 14.792969 17.507812 C 14.539062 17.542969 14.304688 17.574219 14.273438 17.574219 C 14.152344 17.570312 13.117188 17.347656 12.304688 17.148438 C 9.726562 16.515625 7.609375 15.667969 6.414062 14.789062 C 5.632812 14.210938 5.230469 13.675781 5.167969 13.113281 C 5.144531 12.902344 5.1875 12.652344 5.289062 12.433594 C 5.527344 11.921875 6.0625 11.40625 6.886719 10.898438 C 6.984375 10.839844 7.054688 10.789062 7.042969 10.789062 C 6.773438 10.757812 6.496094 10.714844 6.496094 10.707031 C 6.496094 10.6875 6.90625 10.175781 7.191406 9.839844 C 8.613281 8.171875 10.277344 6.710938 12.15625 5.488281 C 13.886719 4.363281 15.691406 3.496094 17.648438 2.855469 C 18.148438 2.691406 18.902344 2.46875 18.914062 2.484375 C 18.914062 2.484375 18.910156 2.546875 18.902344 2.625 C 18.867188 3.0625 18.996094 3.535156 19.253906 3.886719 C 19.351562 4.023438 19.570312 4.246094 19.710938 4.355469 C 20.421875 4.910156 21.613281 5.285156 23.175781 5.441406 C 24.742188 5.601562 26.53125 5.535156 27.859375 5.265625 C 28.523438 5.128906 29.152344 4.921875 29.582031 4.699219 C 29.921875 4.523438 30.15625 4.355469 30.378906 4.128906 C 30.671875 3.835938 30.839844 3.523438 30.921875 3.136719 C 30.9375 3.050781 30.945312 2.960938 30.945312 2.765625 C 30.945312 2.625 30.941406 2.496094 30.933594 2.476562 C 30.929688 2.457031 30.925781 2.441406 30.929688 2.441406 C 30.933594 2.441406 31.003906 2.457031 31.082031 2.480469 Z M 46.128906 14.96875 C 46.902344 16.605469 47.519531 18.5 47.855469 20.285156 C 47.949219 20.78125 48.054688 21.449219 48.042969 21.464844 C 48.039062 21.46875 47.972656 21.425781 47.894531 21.367188 C 46.390625 20.300781 44.121094 19.367188 41.164062 18.613281 C 40.78125 18.515625 40.171875 18.371094 39.859375 18.300781 C 39.761719 18.28125 39.683594 18.261719 39.679688 18.257812 C 39.679688 18.257812 39.730469 18.238281 39.800781 18.214844 C 40.015625 18.15625 40.746094 17.910156 41.042969 17.804688 C 42.347656 17.328125 43.414062 16.816406 44.257812 16.261719 C 44.964844 15.796875 45.492188 15.324219 45.878906 14.808594 L 45.980469 14.667969 L 46.007812 14.71875 C 46.019531 14.746094 46.078125 14.859375 46.128906 14.96875 Z M 4.117188 14.816406 C 5.03125 16.078125 6.988281 17.21875 9.796875 18.121094 C 10.0625 18.207031 10.289062 18.28125 10.304688 18.285156 C 10.316406 18.289062 10.226562 18.316406 10.074219 18.347656 C 7.882812 18.835938 5.785156 19.503906 4.257812 20.199219 C 3.425781 20.574219 2.621094 21.027344 2.035156 21.449219 L 1.953125 21.507812 L 1.960938 21.460938 C 2.296875 19.117188 2.917969 17.019531 3.890625 14.949219 C 3.957031 14.800781 4.019531 14.6875 4.023438 14.691406 C 4.027344 14.695312 4.070312 14.753906 4.117188 14.816406 Z M 36.171875 19.246094 C 42.535156 20.238281 47.144531 22.027344 48.089844 23.878906 C 48.285156 24.261719 48.304688 24.625 48.152344 25.015625 C 48.050781 25.273438 47.863281 25.535156 47.566406 25.828125 C 47.195312 26.195312 46.78125 26.488281 46.140625 26.851562 C 45.859375 27.007812 45.277344 27.292969 44.933594 27.441406 C 41.75 28.820312 36.945312 29.839844 31.410156 30.316406 C 30.796875 30.371094 29.886719 30.433594 29.878906 30.425781 C 29.867188 30.417969 28.71875 28.46875 24.808594 21.832031 C 24.28125 20.941406 23.847656 20.203125 23.84375 20.199219 C 23.839844 20.191406 23.996094 20.191406 24.195312 20.195312 C 24.929688 20.203125 26.410156 20.179688 27.421875 20.132812 C 30.25 20.007812 33.234375 19.679688 35.566406 19.234375 C 35.675781 19.214844 35.78125 19.195312 35.800781 19.195312 C 35.824219 19.195312 35.992188 19.21875 36.171875 19.246094 Z M 14.652344 19.304688 C 16.265625 19.59375 17.957031 19.8125 19.738281 19.964844 C 20.429688 20.027344 21.359375 20.089844 21.945312 20.117188 L 22.011719 20.121094 L 23.160156 22.070312 C 24.171875 23.78125 26.167969 27.175781 27.644531 29.691406 C 27.914062 30.148438 28.132812 30.523438 28.128906 30.527344 C 28.125 30.53125 27.703125 30.550781 27.199219 30.566406 C 25.46875 30.621094 23.875 30.621094 22.261719 30.5625 C 21.980469 30.550781 21.726562 30.542969 21.695312 30.542969 C 21.664062 30.542969 21.640625 30.539062 21.644531 30.535156 C 21.664062 30.515625 22.992188 30.457031 24.15625 30.429688 L 24.492188 30.421875 L 24.378906 30.335938 C 23.945312 30.023438 23.425781 29.582031 22.984375 29.15625 L 22.667969 28.851562 L 22.429688 28.859375 C 22.300781 28.867188 21.992188 28.878906 21.746094 28.894531 C 19.097656 29.042969 16.53125 29.34375 14.207031 29.78125 L 14.019531 29.820312 L 13.453125 29.726562 C 9.371094 29.0625 6.066406 28.089844 3.960938 26.9375 C 3.058594 26.441406 2.382812 25.890625 2.035156 25.371094 C 1.945312 25.234375 1.847656 25.03125 1.800781 24.886719 C 1.765625 24.777344 1.765625 24.757812 1.765625 24.515625 L 1.765625 24.261719 L 1.8125 24.125 C 1.933594 23.785156 2.113281 23.519531 2.453125 23.1875 C 3.109375 22.542969 4.226562 21.910156 5.742188 21.316406 C 7.773438 20.519531 10.480469 19.832031 13.527344 19.335938 C 13.78125 19.292969 14.023438 19.253906 14.0625 19.246094 C 14.191406 19.226562 14.25 19.230469 14.652344 19.304688 Z M 48.015625 27.777344 C 47.6875 29.960938 47.058594 32.054688 46.136719 34.023438 L 46.011719 34.289062 L 45.964844 34.222656 C 45.4375 33.46875 44.511719 32.734375 43.277344 32.097656 L 43.109375 32.007812 L 42.972656 32.09375 C 42.496094 32.375 42.042969 32.597656 41.523438 32.808594 C 41.398438 32.863281 41.285156 32.90625 41.269531 32.910156 C 41.25 32.917969 41.304688 32.945312 41.476562 33.019531 C 43.441406 33.855469 44.605469 34.773438 44.839844 35.660156 C 44.9375 36.046875 44.855469 36.40625 44.574219 36.824219 C 43.957031 37.726562 42.367188 38.640625 40.058594 39.410156 C 39.300781 39.664062 38.625 39.855469 37.6875 40.089844 L 37.179688 40.214844 L 37.136719 40.160156 C 36.941406 39.929688 36.6875 39.726562 36.433594 39.597656 C 36.082031 39.421875 35.757812 39.351562 35.335938 39.363281 L 35.140625 39.367188 L 32.980469 35.699219 C 31.792969 33.683594 30.820312 32.03125 30.820312 32.027344 C 30.820312 32.019531 30.976562 32.003906 31.167969 31.988281 C 34.027344 31.75 36.878906 31.347656 39.285156 30.835938 C 39.894531 30.703125 40.972656 30.445312 41.582031 30.28125 C 44.175781 29.582031 46.234375 28.742188 47.644531 27.804688 C 47.769531 27.722656 47.910156 27.625 47.957031 27.59375 C 48.003906 27.558594 48.042969 27.535156 48.042969 27.539062 C 48.046875 27.546875 48.035156 27.652344 48.015625 27.777344 Z M 2.132812 27.699219 C 3.160156 28.4375 4.710938 29.171875 6.492188 29.757812 C 7.554688 30.109375 8.714844 30.429688 9.851562 30.6875 C 9.992188 30.722656 10.121094 30.75 10.136719 30.753906 C 10.148438 30.757812 9.988281 30.816406 9.71875 30.90625 C 8.988281 31.144531 8.511719 31.316406 7.957031 31.550781 C 6.125 32.316406 4.835938 33.183594 4.105469 34.140625 C 4.050781 34.210938 4.003906 34.269531 4 34.269531 C 3.988281 34.273438 3.828125 33.933594 3.660156 33.546875 C 2.867188 31.75 2.320312 29.878906 2.019531 27.941406 C 1.960938 27.585938 1.964844 27.589844 1.972656 27.589844 C 1.976562 27.589844 2.046875 27.640625 2.132812 27.699219 Z M 14.558594 31.546875 C 17.039062 31.894531 19.742188 32.125 22.460938 32.222656 C 24.519531 32.292969 26.371094 32.273438 28.664062 32.15625 C 28.925781 32.144531 29.082031 32.140625 29.089844 32.148438 C 29.097656 32.15625 30.160156 33.953125 31.453125 36.144531 L 33.800781 40.125 L 33.746094 40.199219 C 33.613281 40.371094 33.496094 40.585938 33.425781 40.796875 C 33.40625 40.859375 33.378906 40.914062 33.371094 40.914062 C 33.359375 40.917969 33.140625 40.945312 32.878906 40.980469 C 31.039062 41.226562 29.058594 41.394531 27.082031 41.46875 C 25.011719 41.546875 23.296875 41.523438 21.183594 41.394531 C 15.6875 41.0625 10.785156 40.035156 7.792969 38.585938 C 6.914062 38.160156 6.296875 37.753906 5.816406 37.289062 C 5.625 37.101562 5.589844 37.058594 5.480469 36.894531 C 5.242188 36.535156 5.210938 36.476562 5.152344 36.273438 C 5.128906 36.1875 5.125 36.140625 5.125 35.972656 C 5.125 35.796875 5.128906 35.761719 5.160156 35.648438 C 5.203125 35.488281 5.335938 35.226562 5.449219 35.070312 C 5.992188 34.332031 7.144531 33.601562 8.8125 32.9375 C 10.078125 32.4375 11.632812 31.980469 13.347656 31.613281 C 13.558594 31.566406 13.785156 31.515625 13.847656 31.503906 C 13.914062 31.488281 13.984375 31.476562 14.011719 31.476562 C 14.035156 31.476562 14.28125 31.507812 14.558594 31.546875 Z M 41.222656 40.851562 C 40.761719 41.289062 40.429688 41.585938 40 41.941406 C 38.101562 43.519531 35.941406 44.789062 33.621094 45.699219 C 32.933594 45.96875 32.230469 46.207031 31.503906 46.414062 C 31.402344 46.441406 31.3125 46.46875 31.300781 46.472656 C 31.28125 46.476562 31.289062 46.453125 31.324219 46.351562 C 31.40625 46.117188 31.425781 46.003906 31.425781 45.722656 C 31.425781 45.449219 31.40625 45.328125 31.328125 45.09375 C 31.050781 44.289062 30.199219 43.558594 28.972656 43.082031 L 28.808594 43.019531 L 28.925781 43.011719 C 28.992188 43.007812 29.238281 42.988281 29.480469 42.96875 C 30.695312 42.878906 32.230469 42.714844 33.308594 42.5625 L 33.605469 42.519531 L 33.695312 42.648438 C 33.875 42.914062 34.171875 43.171875 34.464844 43.320312 C 35.171875 43.675781 35.984375 43.632812 36.648438 43.199219 C 36.949219 43.003906 37.195312 42.730469 37.363281 42.40625 C 37.445312 42.242188 37.484375 42.140625 37.53125 41.945312 L 37.574219 41.78125 L 38.023438 41.671875 C 39.195312 41.382812 40.285156 41.054688 41.164062 40.726562 C 41.316406 40.671875 41.445312 40.625 41.449219 40.625 C 41.457031 40.625 41.355469 40.726562 41.222656 40.851562 Z M 8.925781 40.804688 C 11.351562 41.6875 14.640625 42.386719 18.195312 42.777344 C 19.113281 42.878906 20.308594 42.980469 20.992188 43.023438 C 21.078125 43.027344 21.144531 43.035156 21.136719 43.039062 C 21.132812 43.046875 21.066406 43.074219 20.988281 43.105469 C 20.324219 43.363281 19.761719 43.710938 19.355469 44.105469 C 19.089844 44.363281 18.953125 44.542969 18.816406 44.816406 C 18.570312 45.300781 18.53125 45.816406 18.710938 46.335938 C 18.738281 46.417969 18.761719 46.484375 18.757812 46.484375 C 18.753906 46.488281 18.1875 46.320312 17.949219 46.246094 C 16.191406 45.695312 14.519531 44.949219 12.953125 44.015625 C 11.613281 43.21875 10.363281 42.296875 9.226562 41.261719 C 8.910156 40.976562 8.621094 40.699219 8.652344 40.707031 C 8.667969 40.710938 8.789062 40.757812 8.925781 40.804688 Z M 27.550781 43.097656 C 27.535156 43.113281 27.019531 43.222656 26.769531 43.261719 C 26.171875 43.363281 25.792969 43.390625 25.117188 43.390625 C 24.449219 43.390625 24.066406 43.363281 23.496094 43.269531 C 23.257812 43.230469 22.851562 43.144531 22.839844 43.132812 C 22.835938 43.128906 22.964844 43.128906 23.125 43.132812 C 24.121094 43.164062 24.707031 43.167969 25.453125 43.15625 C 26.300781 43.140625 26.957031 43.121094 27.519531 43.09375 C 27.539062 43.09375 27.554688 43.09375 27.550781 43.097656 Z M 22.820312 43.125 C 22.816406 43.128906 22.804688 43.128906 22.796875 43.125 C 22.785156 43.121094 22.789062 43.117188 22.804688 43.117188 C 22.820312 43.117188 22.828125 43.121094 22.820312 43.125 Z M 25.527344 43.953125 C 27.179688 44.007812 28.78125 44.5 29.453125 45.160156 C 29.683594 45.386719 29.757812 45.53125 29.75 45.730469 C 29.746094 45.820312 29.738281 45.847656 29.691406 45.941406 C 29.445312 46.421875 28.582031 46.886719 27.40625 47.167969 C 27.171875 47.222656 27 47.242188 26.464844 47.277344 C 25.328125 47.347656 24.109375 47.332031 23.015625 47.238281 C 22.78125 47.21875 22.746094 47.210938 22.46875 47.140625 C 21.609375 46.917969 20.90625 46.570312 20.535156 46.1875 C 20.238281 45.878906 20.199219 45.625 20.40625 45.332031 C 20.789062 44.777344 22.003906 44.261719 23.398438 44.058594 C 24.105469 43.953125 24.675781 43.925781 25.527344 43.953125 Z M 25.527344 43.953125 "/>
</g>
</svg>
