<?xml version="1.0" encoding="UTF-8"?>
<svg xmlns="http://www.w3.org/2000/svg" xmlns:xlink="http://www.w3.org/1999/xlink" width="50px" height="50px" viewBox="0 0 50 50" version="1.1">
<g id="surface1">
<path style=" stroke:none;fill-rule:nonzero;fill:rgb(18.82353%,43.921569%,70.19608%);fill-opacity:1;" d="M 50 25 C 50 11.191406 38.808594 0 25 0 C 11.191406 0 0 11.191406 0 25 C 0 38.808594 11.191406 50 25 50 C 38.808594 50 50 38.808594 50 25 Z M 50 25 "/>
<path style=" stroke:none;fill-rule:evenodd;fill:rgb(100%,100%,100%);fill-opacity:1;" d="M 20.652344 38.71875 L 19.78125 38.71875 L 19.675781 38.699219 L 18.804688 38.695312 L 18.585938 38.660156 L 18.042969 38.605469 L 17.824219 38.554688 L 17.5 38.507812 L 17.390625 38.472656 L 17.175781 38.425781 L 16.738281 38.40625 L 16.414062 38.324219 L 16.195312 38.289062 L 16.085938 38.242188 L 15.976562 38.214844 L 15.761719 38.199219 L 15.542969 38.113281 L 15.433594 38.089844 L 15.109375 37.957031 L 14.78125 37.882812 L 14.566406 37.773438 L 14.457031 37.753906 L 14.347656 37.703125 L 14.023438 37.644531 L 13.914062 37.558594 L 13.804688 37.53125 L 13.695312 37.457031 L 13.476562 37.425781 L 13.371094 37.335938 L 13.152344 37.21875 L 12.949219 37.175781 L 12.824219 37.125 L 12.609375 36.984375 L 12.5 36.953125 L 12.390625 36.894531 L 12.175781 36.738281 L 11.957031 36.636719 L 11.847656 36.566406 L 11.523438 36.429688 L 11.414062 36.304688 L 11.085938 36.121094 L 10.976562 36.039062 L 10.871094 35.929688 L 10.761719 35.898438 L 10.542969 35.722656 L 10.433594 35.683594 L 10.171875 35.433594 L 9.890625 35.199219 L 9.78125 35.167969 L 9.71875 35.109375 L 9.652344 35 L 9.503906 34.890625 L 9.421875 34.78125 L 9.347656 34.71875 L 9.238281 34.675781 L 9.023438 34.449219 L 8.914062 34.285156 L 8.730469 34.128906 L 8.644531 34.023438 L 8.472656 33.914062 L 8.421875 33.804688 L 8.257812 33.585938 L 8.203125 33.476562 L 7.972656 33.261719 L 7.808594 33.042969 L 7.628906 32.71875 L 7.5 32.59375 L 7.328125 32.28125 L 7.226562 32.175781 L 7.199219 32.066406 L 7.09375 31.847656 L 6.960938 31.628906 L 6.917969 31.523438 L 6.828125 31.414062 L 6.785156 31.304688 L 6.710938 31.195312 L 6.671875 30.976562 L 6.582031 30.871094 L 6.554688 30.761719 L 6.492188 30.652344 L 6.441406 30.324219 L 6.375 30.21875 L 6.246094 29.890625 L 6.097656 29.238281 L 6.050781 29.128906 L 5.984375 28.804688 L 5.949219 28.695312 L 5.925781 28.476562 L 5.90625 27.609375 L 5.925781 26.195312 L 5.953125 25.976562 L 6.003906 25.871094 L 6.0625 25.542969 L 6.105469 25.433594 L 6.195312 25.109375 L 6.195312 25 L 6.234375 24.890625 L 6.253906 24.78125 L 6.316406 24.675781 L 6.402344 24.457031 L 6.457031 24.347656 L 6.476562 24.128906 L 6.574219 23.914062 L 6.597656 23.804688 L 6.671875 23.695312 L 6.710938 23.476562 L 6.800781 23.371094 L 6.941406 23.152344 L 6.964844 23.042969 L 7.015625 22.933594 L 7.101562 22.824219 L 7.203125 22.609375 L 7.226562 22.5 L 7.328125 22.390625 L 7.378906 22.28125 L 7.449219 22.175781 L 7.625 21.957031 L 7.679688 21.847656 L 7.703125 21.738281 L 7.78125 21.628906 L 7.972656 21.414062 L 8.042969 21.304688 L 8.152344 21.1875 L 8.261719 21.011719 L 8.402344 20.871094 L 8.433594 20.761719 L 8.585938 20.628906 L 8.738281 20.433594 L 8.964844 20.21875 L 9.335938 19.78125 L 9.613281 19.566406 L 9.769531 19.347656 L 9.890625 19.226562 L 10.21875 18.957031 L 10.699219 18.476562 L 10.871094 18.34375 L 10.976562 18.210938 L 11.085938 18.15625 L 11.195312 18.027344 L 11.304688 17.933594 L 11.414062 17.871094 L 11.523438 17.730469 L 11.628906 17.671875 L 11.789062 17.5 L 11.941406 17.390625 L 12.066406 17.253906 L 12.175781 17.183594 L 12.5 16.902344 L 12.824219 16.578125 L 12.933594 16.488281 L 13.042969 16.449219 L 13.152344 16.351562 L 13.261719 16.222656 L 13.371094 16.140625 L 13.414062 16.085938 L 13.476562 15.96875 L 13.667969 15.871094 L 13.804688 15.742188 L 13.914062 15.699219 L 13.960938 15.652344 L 14.023438 15.542969 L 14.347656 15.265625 L 14.457031 15.191406 L 14.566406 15.140625 L 14.6875 15 L 14.890625 14.835938 L 15 14.71875 L 15.109375 14.695312 L 15.324219 14.496094 L 15.652344 14.28125 L 15.761719 14.183594 L 15.871094 14.140625 L 15.976562 14.046875 L 16.085938 13.988281 L 16.304688 13.933594 L 16.523438 13.796875 L 16.738281 13.710938 L 16.847656 13.695312 L 17.28125 13.695312 L 17.390625 13.71875 L 17.5 13.777344 L 17.667969 13.914062 L 17.851562 14.128906 L 17.917969 14.238281 L 17.9375 14.347656 L 18.019531 14.566406 L 18.082031 14.675781 L 18.136719 14.890625 L 18.179688 15 L 18.207031 15.21875 L 18.207031 15.542969 L 18.261719 16.304688 L 18.261719 16.738281 L 18.238281 16.847656 L 18.210938 17.175781 L 18.199219 17.5 L 18.179688 17.609375 L 18.117188 17.71875 L 18.09375 17.824219 L 18 18.042969 L 17.980469 18.152344 L 17.933594 18.261719 L 17.921875 18.371094 L 17.773438 18.695312 L 17.710938 18.914062 L 17.664062 19.128906 L 17.597656 19.238281 L 17.515625 19.457031 L 17.453125 19.566406 L 17.441406 19.675781 L 17.246094 20.109375 L 17.214844 20.21875 L 17.1875 20.433594 L 17.144531 20.542969 L 17.117188 20.761719 L 17.125 21.085938 L 17.199219 21.304688 L 17.222656 21.414062 L 17.28125 21.46875 L 17.386719 21.523438 L 17.609375 21.675781 L 17.71875 21.691406 L 17.933594 21.746094 L 18.042969 21.757812 L 18.152344 21.738281 L 18.261719 21.699219 L 18.371094 21.683594 L 18.585938 21.558594 L 18.695312 21.46875 L 18.746094 21.414062 L 18.8125 21.304688 L 18.925781 21.085938 L 18.960938 20.976562 L 18.984375 20.761719 L 19.03125 20.652344 L 19.113281 20.324219 L 19.171875 20.21875 L 19.199219 20 L 19.261719 19.890625 L 19.292969 19.78125 L 19.394531 19.566406 L 19.457031 19.347656 L 19.464844 19.238281 L 19.542969 19.023438 L 19.613281 18.914062 L 19.628906 18.804688 L 19.699219 18.585938 L 19.703125 18.476562 L 19.75 18.261719 L 19.820312 18.152344 L 19.839844 18.042969 L 19.9375 17.824219 L 19.972656 17.609375 L 20.101562 17.28125 L 20.160156 17.175781 L 20.183594 17.066406 L 20.191406 16.957031 L 20.277344 16.628906 L 20.316406 16.523438 L 20.382812 16.414062 L 20.492188 15.976562 L 20.5625 15.871094 L 20.699219 15.542969 L 20.71875 15.324219 L 20.792969 15.21875 L 20.847656 15 L 20.902344 14.890625 L 20.929688 14.675781 L 21.117188 14.238281 L 21.238281 13.914062 L 21.261719 13.804688 L 21.328125 13.695312 L 21.402344 13.476562 L 21.464844 13.371094 L 21.46875 13.261719 L 21.578125 12.933594 L 21.679688 12.71875 L 21.691406 12.609375 L 21.734375 12.5 L 21.957031 12.066406 L 22.019531 11.847656 L 22.082031 11.738281 L 22.175781 11.507812 L 22.222656 11.304688 L 22.261719 11.195312 L 22.332031 11.085938 L 22.367188 10.976562 L 22.445312 10.871094 L 22.457031 10.761719 L 22.542969 10.652344 L 22.578125 10.542969 L 22.652344 10.433594 L 22.707031 10.21875 L 22.765625 10.109375 L 22.796875 10 L 22.882812 9.890625 L 22.976562 9.675781 L 23.105469 9.457031 L 23.191406 9.347656 L 23.207031 9.238281 L 23.28125 9.128906 L 23.328125 9.023438 L 23.414062 8.914062 L 23.425781 8.804688 L 23.472656 8.695312 L 23.703125 8.371094 L 23.757812 8.261719 L 23.804688 8.214844 L 23.914062 8.207031 L 24.023438 8.292969 L 24.324219 8.476562 L 24.457031 8.609375 L 24.675781 8.773438 L 24.808594 8.914062 L 24.890625 8.960938 L 25 8.984375 L 25.109375 9.042969 L 25.21875 9.140625 L 25.324219 9.1875 L 25.394531 9.238281 L 25.542969 9.375 L 25.652344 9.425781 L 25.761719 9.5 L 25.976562 9.703125 L 26.085938 9.757812 L 26.167969 9.890625 L 26.195312 10 L 26.195312 10.109375 L 26.128906 10.324219 L 26.035156 10.542969 L 26.011719 10.652344 L 25.941406 10.761719 L 25.882812 11.085938 L 25.835938 11.195312 L 25.78125 11.414062 L 25.710938 11.523438 L 25.703125 11.628906 L 25.636719 11.738281 L 25.554688 11.957031 L 25.492188 12.066406 L 25.382812 12.390625 L 25.3125 12.5 L 25.191406 12.824219 L 25.148438 13.042969 L 25.039062 13.261719 L 24.964844 13.371094 L 24.914062 13.585938 L 24.84375 13.695312 L 24.738281 13.914062 L 24.703125 14.023438 L 24.691406 14.128906 L 24.632812 14.238281 L 24.609375 14.347656 L 24.535156 14.457031 L 24.363281 14.890625 L 24.289062 15 L 24.1875 15.21875 L 24.164062 15.324219 L 24.089844 15.433594 L 24.058594 15.542969 L 23.972656 15.761719 L 23.964844 15.871094 L 23.878906 15.976562 L 23.847656 16.085938 L 23.769531 16.195312 L 23.644531 16.523438 L 23.464844 16.847656 L 23.425781 16.957031 L 23.417969 17.066406 L 23.277344 17.390625 L 23.207031 17.5 L 23.203125 17.609375 L 23.125 17.71875 L 23.074219 17.824219 L 23 17.933594 L 22.957031 18.042969 L 22.933594 18.152344 L 22.761719 18.476562 L 22.691406 18.695312 L 22.648438 18.914062 L 22.558594 19.023438 L 22.496094 19.128906 L 22.445312 19.238281 L 22.441406 19.347656 L 22.371094 19.457031 L 22.328125 19.566406 L 22.25 19.675781 L 22.207031 19.78125 L 22.199219 19.890625 L 22.148438 20 L 22.121094 20.109375 L 22.050781 20.21875 L 22 20.324219 L 21.890625 20.652344 L 21.808594 20.761719 L 21.769531 20.871094 L 21.6875 20.976562 L 21.683594 21.085938 L 21.644531 21.195312 L 21.582031 21.304688 L 21.558594 21.414062 L 21.488281 21.523438 L 21.457031 21.738281 L 21.25 22.175781 L 21.222656 22.28125 L 21.195312 22.390625 L 21.195312 22.609375 L 21.226562 22.71875 L 21.257812 22.824219 L 21.449219 23.042969 L 21.503906 23.152344 L 21.628906 23.207031 L 22.066406 23.207031 L 22.175781 23.183594 L 22.5 22.929688 L 22.609375 22.867188 L 22.792969 22.609375 L 23.042969 22.3125 L 23.292969 22.066406 L 23.378906 21.957031 L 23.425781 21.847656 L 23.476562 21.78125 L 23.648438 21.628906 L 23.734375 21.523438 L 23.914062 21.375 L 24.023438 21.195312 L 24.183594 20.976562 L 24.457031 20.730469 L 24.621094 20.542969 L 24.746094 20.324219 L 24.890625 20.207031 L 25.0625 20 L 25.179688 19.890625 L 25.21875 19.78125 L 25.339844 19.675781 L 25.507812 19.457031 L 25.652344 19.308594 L 25.792969 19.128906 L 25.976562 18.847656 L 26.117188 18.695312 L 26.195312 18.578125 L 26.238281 18.476562 L 26.367188 18.371094 L 26.460938 18.261719 L 26.496094 18.152344 L 26.738281 17.734375 L 26.863281 17.609375 L 27.015625 17.28125 L 27.109375 17.175781 L 27.199219 16.957031 L 27.234375 16.738281 L 27.3125 16.628906 L 27.347656 16.523438 L 27.417969 16.414062 L 27.441406 16.304688 L 27.457031 15.976562 L 27.5 15.761719 L 27.496094 15.652344 L 27.445312 15.324219 L 27.417969 15.21875 L 27.308594 15.109375 L 27.234375 15 L 27.203125 14.890625 L 27.191406 14.78125 L 27.132812 14.675781 L 27.050781 14.347656 L 27.027344 14.128906 L 27.046875 14.023438 L 27.105469 13.914062 L 27.128906 13.804688 L 27.175781 13.738281 L 27.28125 13.644531 L 27.390625 13.625 L 27.609375 13.628906 L 27.824219 13.695312 L 27.933594 13.742188 L 28.152344 13.867188 L 28.261719 13.960938 L 28.371094 13.972656 L 28.476562 14.054688 L 28.585938 14.085938 L 28.695312 14.171875 L 28.804688 14.203125 L 28.914062 14.289062 L 29.023438 14.417969 L 29.128906 14.488281 L 29.238281 14.613281 L 29.457031 14.742188 L 29.683594 15 L 29.714844 15.109375 L 29.933594 15.324219 L 29.957031 15.433594 L 30.035156 15.542969 L 30.074219 15.652344 L 30.160156 15.761719 L 30.199219 15.976562 L 30.261719 16.195312 L 30.292969 16.414062 L 30.335938 16.523438 L 30.371094 16.738281 L 30.378906 17.066406 L 30.363281 17.390625 L 30.203125 18.152344 L 30.179688 18.371094 L 30.144531 18.476562 L 29.953125 18.914062 L 29.933594 19.023438 L 29.738281 19.347656 L 29.6875 19.566406 L 29.625 19.675781 L 29.527344 19.78125 L 29.378906 20.109375 L 29.238281 20.242188 L 29.183594 20.324219 L 28.992188 20.652344 L 28.960938 20.761719 L 28.859375 20.871094 L 28.730469 20.976562 L 28.675781 21.085938 L 28.589844 21.195312 L 28.476562 21.308594 L 28.425781 21.414062 L 28.226562 21.628906 L 28.066406 21.847656 L 27.875 22.066406 L 27.753906 22.175781 L 27.609375 22.351562 L 27.445312 22.5 L 27.363281 22.609375 L 27.226562 22.71875 L 27.066406 22.894531 L 26.628906 23.304688 L 26.085938 23.753906 L 25.871094 23.96875 L 25.773438 24.023438 L 25.652344 24.132812 L 25.464844 24.238281 L 25.324219 24.382812 L 25.097656 24.566406 L 24.890625 24.699219 L 24.78125 24.726562 L 24.628906 24.890625 L 24.566406 24.941406 L 24.457031 24.972656 L 24.238281 25.148438 L 24.023438 25.246094 L 23.914062 25.34375 L 23.585938 25.5 L 23.476562 25.578125 L 23.371094 25.683594 L 23.261719 25.707031 L 23.152344 25.789062 L 23.042969 25.824219 L 22.933594 25.878906 L 22.824219 25.921875 L 22.71875 25.9375 L 22.609375 26.023438 L 22.5 26.0625 L 22.390625 26.140625 L 22.066406 26.261719 L 21.957031 26.324219 L 21.738281 26.402344 L 21.628906 26.460938 L 21.523438 26.46875 L 21.304688 26.503906 L 21.195312 26.546875 L 20.976562 26.574219 L 20.652344 26.664062 L 20.324219 26.683594 L 20.21875 26.726562 L 20.207031 26.738281 L 20.148438 27.066406 L 20.074219 27.175781 L 19.960938 27.390625 L 19.925781 27.609375 L 19.84375 27.71875 L 19.734375 27.933594 L 19.707031 28.042969 L 19.699219 28.152344 L 19.621094 28.371094 L 19.546875 28.476562 L 19.410156 28.914062 L 19.332031 29.023438 L 19.289062 29.128906 L 19.214844 29.238281 L 19.175781 29.457031 L 19.019531 29.78125 L 18.984375 29.890625 L 18.960938 30.109375 L 18.878906 30.21875 L 18.835938 30.324219 L 18.769531 30.433594 L 18.628906 30.871094 L 18.535156 30.976562 L 18.5 31.085938 L 18.429688 31.195312 L 18.417969 31.304688 L 18.371094 31.40625 L 18.136719 31.628906 L 18.042969 31.683594 L 17.933594 31.714844 L 17.71875 31.859375 L 17.5 31.949219 L 17.390625 31.960938 L 17.175781 32.035156 L 17.066406 32.101562 L 16.628906 32.199219 L 16.414062 32.199219 L 16.304688 32.183594 L 16.085938 32.109375 L 15.976562 32.023438 L 15.925781 31.957031 L 15.855469 31.628906 L 15.855469 31.523438 L 15.921875 31.085938 L 15.933594 30.871094 L 15.964844 30.761719 L 16.023438 30.652344 L 16.070312 30.433594 L 16.121094 30.324219 L 16.183594 30.109375 L 16.199219 29.890625 L 16.257812 29.675781 L 16.347656 29.457031 L 16.402344 29.238281 L 16.457031 29.128906 L 16.488281 28.804688 L 16.554688 28.585938 L 16.570312 28.476562 L 16.601562 28.371094 L 16.65625 28.261719 L 16.683594 28.152344 L 16.699219 27.933594 L 16.875 27.5 L 17.015625 26.957031 L 17.101562 26.738281 L 17.152344 26.523438 L 17.203125 26.414062 L 17.21875 26.195312 L 17.191406 26.085938 L 16.957031 25.964844 L 16.847656 25.925781 L 16.738281 25.921875 L 16.628906 25.890625 L 16.304688 25.726562 L 16.085938 25.679688 L 15.871094 25.519531 L 15.542969 25.375 L 15.433594 25.292969 L 15.109375 25.144531 L 15 25.0625 L 14.890625 24.957031 L 14.78125 24.9375 L 14.726562 24.890625 L 14.648438 24.78125 L 14.347656 24.578125 L 14.238281 24.488281 L 14.101562 24.347656 L 14.042969 24.238281 L 13.914062 24.0625 L 13.746094 23.914062 L 13.648438 23.695312 L 13.574219 23.585938 L 13.527344 23.476562 L 13.4375 23.371094 L 13.398438 23.042969 L 13.339844 22.824219 L 13.328125 22.71875 L 13.316406 22.5 L 13.324219 21.957031 L 13.34375 21.738281 L 13.417969 21.414062 L 13.441406 21.085938 L 13.578125 20.761719 L 13.640625 20.652344 L 13.695312 20.4375 L 13.769531 20.21875 L 13.851562 20.109375 L 13.886719 20 L 13.960938 19.890625 L 13.96875 19.78125 L 14 19.675781 L 14.0625 19.566406 L 14.09375 19.457031 L 14.171875 19.347656 L 14.183594 19.238281 L 14.226562 19.128906 L 14.296875 19.023438 L 14.394531 18.914062 L 14.511719 18.585938 L 14.691406 18.261719 L 14.742188 18.042969 L 14.816406 17.933594 L 14.941406 17.71875 L 14.96875 17.609375 L 15.109375 17.390625 L 15.160156 17.28125 L 15.1875 17.175781 L 15.269531 16.957031 L 15.269531 16.847656 L 15.21875 16.769531 L 15.109375 16.753906 L 14.988281 16.847656 L 14.890625 16.972656 L 14.78125 17.039062 L 14.667969 17.175781 L 14.535156 17.28125 L 14.449219 17.390625 L 14.347656 17.460938 L 14.128906 17.683594 L 14.023438 17.765625 L 13.914062 17.910156 L 13.804688 17.984375 L 13.746094 18.042969 L 13.667969 18.152344 L 13.527344 18.261719 L 13.308594 18.476562 L 13.152344 18.667969 L 13.042969 18.75 L 12.992188 18.804688 L 12.921875 18.914062 L 12.777344 19.023438 L 12.691406 19.128906 L 12.472656 19.347656 L 12.410156 19.457031 L 12.269531 19.566406 L 12.191406 19.675781 L 11.996094 19.890625 L 11.578125 20.324219 L 11.492188 20.433594 L 11.457031 20.542969 L 11.414062 20.597656 L 11.242188 20.761719 L 11.164062 20.871094 L 11.035156 20.976562 L 10.945312 21.085938 L 10.910156 21.195312 L 10.835938 21.304688 L 10.789062 21.414062 L 10.492188 21.738281 L 10.382812 21.957031 L 10.289062 22.066406 L 10.179688 22.28125 L 10.144531 22.390625 L 9.964844 22.609375 L 9.929688 22.71875 L 9.769531 22.933594 L 9.71875 23.042969 L 9.699219 23.152344 L 9.613281 23.371094 L 9.519531 23.476562 L 9.378906 23.914062 L 9.292969 24.023438 L 9.1875 24.238281 L 9.183594 24.347656 L 9.164062 24.457031 L 9.101562 24.566406 L 8.980469 25 L 8.957031 25.324219 L 8.875 25.652344 L 8.78125 26.304688 L 8.769531 26.628906 L 8.78125 26.957031 L 8.839844 27.28125 L 8.875 27.609375 L 8.953125 27.824219 L 8.972656 28.152344 L 9 28.261719 L 9.109375 28.585938 L 9.171875 28.695312 L 9.203125 28.914062 L 9.296875 29.023438 L 9.433594 29.238281 L 9.460938 29.347656 L 9.515625 29.457031 L 9.601562 29.566406 L 9.710938 29.78125 L 9.746094 29.890625 L 9.890625 30.039062 L 10 30.199219 L 10.144531 30.324219 L 10.191406 30.433594 L 10.265625 30.542969 L 10.460938 30.761719 L 10.710938 30.976562 L 10.976562 31.273438 L 11.132812 31.414062 L 11.195312 31.464844 L 11.414062 31.582031 L 11.738281 31.898438 L 11.957031 32.015625 L 12.066406 32.109375 L 12.390625 32.265625 L 12.535156 32.390625 L 12.609375 32.4375 L 12.71875 32.476562 L 12.933594 32.644531 L 13.042969 32.683594 L 13.152344 32.691406 L 13.261719 32.757812 L 13.371094 32.796875 L 13.476562 32.886719 L 13.804688 33.003906 L 14.128906 33.199219 L 14.238281 33.210938 L 14.347656 33.238281 L 14.457031 33.304688 L 14.566406 33.328125 L 14.78125 33.417969 L 15 33.441406 L 15.433594 33.632812 L 15.652344 33.691406 L 15.761719 33.699219 L 16.195312 33.847656 L 16.414062 33.886719 L 16.523438 33.949219 L 17.066406 33.996094 L 17.28125 34.054688 L 17.609375 34.082031 L 17.824219 34.144531 L 18.042969 34.179688 L 18.585938 34.195312 L 18.914062 34.234375 L 19.023438 34.257812 L 19.347656 34.285156 L 20.324219 34.3125 L 21.195312 34.292969 L 21.628906 34.269531 L 22.28125 34.183594 L 22.71875 34.179688 L 22.933594 34.144531 L 23.042969 34.109375 L 23.476562 34.050781 L 23.804688 33.988281 L 24.238281 33.949219 L 24.457031 33.878906 L 24.675781 33.828125 L 24.78125 33.769531 L 25.324219 33.640625 L 25.402344 33.695312 L 25.359375 33.914062 L 25.3125 34.023438 L 25.289062 34.128906 L 25.28125 34.238281 L 25.289062 34.566406 L 25.304688 34.675781 L 25.347656 34.78125 L 25.445312 35.21875 L 25.511719 35.433594 L 25.582031 35.542969 L 25.605469 35.652344 L 25.679688 35.761719 L 25.75 36.085938 L 25.699219 36.195312 L 25.421875 36.414062 L 25.226562 36.523438 L 25.109375 36.628906 L 25 36.683594 L 24.566406 37.078125 L 24.265625 37.28125 L 24.179688 37.390625 L 24.054688 37.5 L 23.914062 37.6875 L 23.804688 37.765625 L 23.742188 37.824219 L 23.421875 38.261719 L 23.386719 38.371094 L 23.371094 38.386719 L 23.261719 38.4375 L 23.128906 38.476562 L 22.933594 38.519531 L 22.71875 38.542969 L 22.390625 38.613281 L 21.738281 38.675781 L 21.628906 38.695312 L 20.761719 38.695312 Z M 35.652344 38.960938 L 35.542969 38.988281 L 35.433594 38.976562 L 35.328125 38.914062 L 35.167969 38.695312 L 34.890625 38.414062 L 34.714844 38.261719 L 34.703125 38.152344 L 34.71875 38.042969 L 34.773438 37.933594 L 34.9375 37.71875 L 34.984375 37.609375 L 35.054688 37.5 L 35.15625 37.390625 L 35.183594 37.28125 L 35.289062 37.066406 L 35.378906 36.957031 L 35.472656 36.738281 L 35.566406 36.628906 L 35.707031 36.414062 L 35.757812 36.304688 L 35.890625 36.085938 L 35.921875 35.976562 L 36.050781 35.761719 L 36.148438 35.652344 L 36.242188 35.433594 L 36.414062 35.210938 L 36.46875 35.109375 L 36.488281 35 L 36.566406 34.890625 L 36.605469 34.78125 L 36.8125 34.457031 L 36.898438 34.347656 L 37 34.128906 L 37.128906 33.914062 L 37.195312 33.695312 L 37.242188 33.261719 L 37.175781 33.191406 L 37.066406 33.132812 L 36.738281 33.320312 L 36.628906 33.40625 L 36.523438 33.429688 L 36.414062 33.539062 L 36.304688 33.621094 L 36.195312 33.671875 L 36 33.804688 L 35.871094 33.949219 L 35.761719 33.976562 L 35.652344 34.0625 L 35.433594 34.179688 L 35.21875 34.222656 L 35 34.183594 L 34.773438 34.023438 L 34.667969 33.914062 L 34.605469 33.804688 L 34.289062 33.476562 L 34.128906 33.34375 L 33.804688 32.976562 L 33.75 32.933594 L 33.585938 32.765625 L 33.476562 32.691406 L 33.332031 32.5 L 33.207031 32.390625 L 33.132812 32.28125 L 32.933594 32.136719 L 32.746094 31.957031 L 32.609375 31.78125 L 32.390625 31.582031 L 32.175781 31.414062 L 32.066406 31.277344 L 31.726562 30.976562 L 31.582031 30.871094 L 31.195312 30.480469 L 30.976562 30.289062 L 30.851562 30.109375 L 30.835938 30 L 30.835938 29.890625 L 30.863281 29.78125 L 30.917969 29.675781 L 30.949219 29.566406 L 31.140625 29.347656 L 31.257812 29.128906 L 31.464844 28.914062 L 31.476562 28.804688 L 31.546875 28.695312 L 31.597656 28.585938 L 31.8125 28.261719 L 31.917969 28.152344 L 31.9375 28.042969 L 31.847656 27.929688 L 31.738281 27.871094 L 31.414062 27.949219 L 31.195312 28.019531 L 31.085938 28.089844 L 30.976562 28.128906 L 30.871094 28.207031 L 30.542969 28.398438 L 30.433594 28.425781 L 30.328125 28.476562 L 30.109375 28.664062 L 30 28.703125 L 29.890625 28.769531 L 29.675781 28.949219 L 29.566406 28.976562 L 29.457031 29.042969 L 29.347656 29.089844 L 29.238281 29.171875 L 29.128906 29.199219 L 28.914062 29.40625 L 28.695312 29.503906 L 28.585938 29.59375 L 28.476562 29.632812 L 28.371094 29.707031 L 28.261719 29.738281 L 28.152344 29.839844 L 28.042969 29.917969 L 27.933594 29.953125 L 27.609375 30.183594 L 27.5 30.203125 L 26.957031 30.550781 L 26.738281 30.433594 L 26.628906 30.300781 L 26.523438 30.222656 L 26.195312 29.925781 L 26.0625 29.78125 L 26.121094 29.675781 L 26.222656 29.566406 L 26.304688 29.484375 L 26.414062 29.40625 L 26.460938 29.347656 L 26.5 29.238281 L 26.644531 29.128906 L 26.738281 29 L 26.847656 28.960938 L 26.90625 28.914062 L 26.984375 28.804688 L 27.191406 28.585938 L 27.234375 28.476562 L 27.28125 28.433594 L 27.390625 28.402344 L 27.511719 28.261719 L 27.664062 28.152344 L 27.707031 28.042969 L 27.808594 27.933594 L 28.042969 27.707031 L 28.152344 27.664062 L 28.261719 27.511719 L 28.402344 27.390625 L 28.433594 27.28125 L 28.476562 27.234375 L 28.585938 27.191406 L 28.804688 26.984375 L 28.914062 26.90625 L 28.960938 26.847656 L 29 26.738281 L 29.128906 26.644531 L 29.238281 26.5 L 29.347656 26.460938 L 29.40625 26.414062 L 29.484375 26.304688 L 29.691406 26.085938 L 29.734375 25.976562 L 29.78125 25.933594 L 29.890625 25.902344 L 30.011719 25.761719 L 30.164062 25.652344 L 30.207031 25.542969 L 30.433594 25.308594 L 30.542969 25.207031 L 30.652344 25.164062 L 30.761719 25.011719 L 30.902344 24.890625 L 30.933594 24.78125 L 30.976562 24.734375 L 31.085938 24.691406 L 31.304688 24.484375 L 31.414062 24.40625 L 31.460938 24.347656 L 31.523438 24.226562 L 31.628906 24.171875 L 31.738281 24.058594 L 31.847656 23.988281 L 31.957031 23.960938 L 32.027344 23.914062 L 32.28125 23.714844 L 32.390625 23.6875 L 32.71875 23.507812 L 32.824219 23.429688 L 33.042969 23.410156 L 33.261719 23.332031 L 33.371094 23.316406 L 33.585938 23.230469 L 33.695312 23.210938 L 33.914062 23.207031 L 34.347656 23.152344 L 34.566406 23.152344 L 35 23.199219 L 35.21875 23.207031 L 35.761719 23.214844 L 35.976562 23.207031 L 36.085938 23.179688 L 36.304688 22.984375 L 36.414062 22.910156 L 36.523438 22.761719 L 36.628906 22.683594 L 36.847656 22.472656 L 36.957031 22.410156 L 37.082031 22.28125 L 37.5 21.933594 L 37.609375 21.875 L 37.71875 21.726562 L 37.824219 21.671875 L 38.042969 21.492188 L 38.152344 21.46875 L 38.476562 21.191406 L 38.585938 21.140625 L 38.804688 20.957031 L 38.914062 20.925781 L 39.128906 20.8125 L 39.238281 20.714844 L 39.347656 20.703125 L 39.566406 20.578125 L 39.675781 20.492188 L 39.785156 20.433594 L 39.890625 20.398438 L 40.109375 20.277344 L 40.324219 20.191406 L 40.542969 20.148438 L 40.871094 19.988281 L 40.976562 19.945312 L 41.085938 19.945312 L 41.195312 19.914062 L 41.304688 19.855469 L 41.414062 19.835938 L 41.628906 19.742188 L 41.847656 19.707031 L 42.066406 19.703125 L 42.175781 19.6875 L 42.28125 19.65625 L 42.5 19.632812 L 42.933594 19.613281 L 43.371094 19.613281 L 43.914062 19.640625 L 44.128906 19.695312 L 44.347656 19.703125 L 44.675781 19.738281 L 44.890625 19.820312 L 45.082031 20 L 45.128906 20.109375 L 45.160156 20.21875 L 45.191406 20.652344 L 45.261719 20.976562 L 45.292969 21.414062 L 45.324219 21.628906 L 45.324219 22.066406 L 45.289062 22.28125 L 45.257812 22.71875 L 45.191406 23.042969 L 45.1875 23.261719 L 45.144531 23.476562 L 45.0625 23.695312 L 45.039062 23.804688 L 44.945312 24.023438 L 44.945312 24.128906 L 44.886719 24.238281 L 44.808594 24.457031 L 44.738281 24.566406 L 44.695312 24.78125 L 44.609375 25 L 44.488281 25.21875 L 44.386719 25.433594 L 44.304688 25.542969 L 44.265625 25.652344 L 44.183594 25.761719 L 44.15625 25.871094 L 44.058594 25.976562 L 44 26.085938 L 43.921875 26.304688 L 43.851562 26.414062 L 43.734375 26.523438 L 43.675781 26.628906 L 43.578125 26.738281 L 43.515625 26.847656 L 43.429688 26.957031 L 43.394531 27.066406 L 43.207031 27.28125 L 43.152344 27.390625 L 43.015625 27.5 L 42.957031 27.609375 L 42.753906 27.824219 L 42.519531 28.152344 L 42.390625 28.300781 L 42.191406 28.476562 L 42.125 28.585938 L 42.019531 28.695312 L 41.957031 28.804688 L 41.847656 29.128906 L 41.957031 30 L 41.957031 30.976562 L 41.945312 31.085938 L 41.886719 31.414062 L 41.824219 31.523438 L 41.761719 31.738281 L 41.714844 31.847656 L 41.6875 31.957031 L 41.683594 32.066406 L 41.570312 32.28125 L 41.542969 32.390625 L 41.476562 32.5 L 41.46875 32.609375 L 41.335938 32.824219 L 41.246094 32.933594 L 41.144531 33.152344 L 40.933594 33.371094 L 40.683594 33.695312 L 40.433594 33.949219 L 40.335938 34.023438 L 40.226562 34.128906 L 40.15625 34.238281 L 39.722656 34.675781 L 39.347656 35.082031 L 39.074219 35.324219 L 38.984375 35.433594 L 38.925781 35.542969 L 38.578125 35.871094 L 38.476562 35.921875 L 38.425781 35.976562 L 38.378906 36.085938 L 38.261719 36.203125 L 38.152344 36.355469 L 38.042969 36.457031 L 37.933594 36.519531 L 37.824219 36.640625 L 37.703125 36.738281 L 37.667969 36.847656 L 37.609375 36.914062 L 37.5 36.992188 L 37.390625 37.132812 L 37.28125 37.203125 L 37.203125 37.28125 L 37.140625 37.390625 L 37.007812 37.5 L 36.9375 37.609375 L 36.738281 37.75 L 36.628906 37.890625 L 36.523438 37.984375 L 36.476562 38.042969 L 36.445312 38.152344 L 36.414062 38.183594 L 36.304688 38.234375 L 36.175781 38.371094 L 36.085938 38.429688 L 35.976562 38.527344 L 35.929688 38.585938 L 35.871094 38.695312 Z M 26.085938 38.820312 L 25.871094 38.847656 L 25.324219 38.867188 L 25.21875 38.824219 L 25.199219 38.804688 L 25.257812 38.695312 L 25.433594 38.453125 L 25.542969 38.402344 L 25.652344 38.328125 L 25.761719 38.21875 L 25.871094 38.179688 L 25.976562 38.027344 L 26.195312 37.898438 L 26.304688 37.796875 L 26.414062 37.746094 L 26.523438 37.664062 L 26.789062 37.390625 L 26.980469 37.175781 L 27.121094 36.957031 L 27.191406 36.738281 L 27.203125 36.628906 L 27.191406 36.195312 L 27.148438 36.085938 L 27.121094 35.976562 L 27.046875 35.871094 L 26.960938 35.652344 L 26.957031 35.542969 L 26.851562 35 L 26.847656 34.675781 L 26.910156 34.238281 L 26.945312 34.128906 L 26.957031 34.023438 L 27.003906 33.914062 L 27.027344 33.804688 L 27.097656 33.695312 L 27.234375 33.261719 L 27.332031 33.152344 L 27.5 32.835938 L 27.6875 32.609375 L 27.742188 32.5 L 27.855469 32.390625 L 27.933594 32.261719 L 28.152344 32.105469 L 28.261719 31.964844 L 28.390625 31.847656 L 28.433594 31.738281 L 28.476562 31.695312 L 28.585938 31.65625 L 28.730469 31.523438 L 28.804688 31.472656 L 28.914062 31.441406 L 28.941406 31.414062 L 28.992188 31.304688 L 29.023438 31.273438 L 29.347656 31.023438 L 29.457031 31.003906 L 29.675781 31.183594 L 29.890625 31.429688 L 30 31.570312 L 30.042969 31.628906 L 30.082031 31.738281 L 30.136719 31.957031 L 30.140625 32.066406 L 30.125 32.175781 L 30.085938 32.28125 L 30.023438 32.609375 L 29.984375 32.71875 L 29.964844 32.824219 L 29.964844 33.152344 L 29.976562 33.261719 L 30.046875 33.476562 L 30.0625 33.585938 L 30.160156 33.804688 L 30.183594 33.914062 L 30.21875 33.996094 L 30.285156 34.128906 L 30.402344 34.238281 L 30.46875 34.347656 L 30.542969 34.421875 L 30.652344 34.488281 L 30.761719 34.605469 L 30.976562 34.707031 L 31.085938 34.726562 L 31.195312 34.761719 L 31.304688 34.820312 L 31.414062 34.839844 L 31.628906 34.902344 L 31.847656 34.925781 L 32.066406 34.914062 L 32.5 34.8125 L 32.71875 34.726562 L 32.824219 34.703125 L 33.261719 34.695312 L 33.476562 34.707031 L 33.585938 34.730469 L 33.660156 34.78125 L 33.804688 34.929688 L 33.925781 35 L 33.96875 35.109375 L 33.960938 35.21875 L 33.75 35.433594 L 33.59375 35.652344 L 33.476562 35.714844 L 33.433594 35.761719 L 33.363281 35.871094 L 33.261719 35.925781 L 33.105469 36.085938 L 32.933594 36.222656 L 32.824219 36.285156 L 32.707031 36.414062 L 32.5 36.519531 L 32.28125 36.675781 L 32.175781 36.722656 L 31.957031 36.898438 L 31.738281 36.992188 L 31.628906 37.078125 L 31.414062 37.199219 L 31.304688 37.210938 L 31.195312 37.246094 L 31.085938 37.328125 L 30.976562 37.367188 L 30.871094 37.445312 L 30.761719 37.460938 L 30.652344 37.546875 L 30.542969 37.582031 L 30.433594 37.652344 L 30.21875 37.699219 L 30.109375 37.753906 L 30 37.773438 L 29.890625 37.84375 L 29.457031 37.988281 L 29.128906 38.121094 L 29.023438 38.183594 L 28.804688 38.210938 L 28.585938 38.304688 L 28.476562 38.320312 L 28.152344 38.417969 L 27.933594 38.425781 L 27.824219 38.445312 L 27.71875 38.5 L 27.609375 38.53125 L 27.5 38.546875 L 27.390625 38.597656 L 26.957031 38.695312 L 26.738281 38.695312 L 26.628906 38.730469 L 26.304688 38.769531 Z M 40.84375 25.976562 L 40.976562 25.925781 L 41.085938 25.921875 L 41.195312 25.886719 L 41.414062 25.769531 L 41.550781 25.652344 L 41.644531 25.542969 L 41.710938 25.433594 L 41.910156 25.21875 L 41.972656 25.109375 L 42.015625 25 L 42.089844 24.890625 L 42.183594 24.457031 L 42.179688 24.128906 L 42.121094 23.804688 L 42.089844 23.695312 L 42.019531 23.585938 L 41.984375 23.476562 L 41.917969 23.371094 L 41.832031 23.261719 L 41.703125 23.152344 L 41.667969 23.042969 L 41.523438 22.914062 L 41.414062 22.789062 L 41.195312 22.699219 L 40.976562 22.65625 L 40.871094 22.582031 L 40.761719 22.558594 L 40.542969 22.527344 L 40.324219 22.519531 L 40 22.558594 L 39.78125 22.648438 L 39.566406 22.703125 L 39.457031 22.765625 L 39.347656 22.855469 L 39.238281 22.914062 L 39.101562 23.042969 L 38.914062 23.355469 L 38.792969 23.476562 L 38.710938 23.695312 L 38.640625 24.023438 L 38.621094 24.238281 L 38.640625 24.566406 L 38.695312 24.78125 L 38.699219 24.890625 L 38.804688 25.09375 L 38.914062 25.222656 L 39.023438 25.417969 L 39.140625 25.542969 L 39.199219 25.652344 L 39.238281 25.691406 L 39.347656 25.714844 L 39.457031 25.808594 L 39.578125 25.871094 L 39.675781 25.914062 L 39.890625 25.949219 L 40 26.011719 L 40.324219 26.050781 L 40.652344 26.03125 L 40.761719 26.011719 Z M 40.84375 25.976562 "/>
</g>
</svg>
