<?xml version="1.0" encoding="UTF-8"?>
<svg xmlns="http://www.w3.org/2000/svg" xmlns:xlink="http://www.w3.org/1999/xlink" width="50px" height="50px" viewBox="0 0 50 50" version="1.1">
<g id="surface1">
<path style=" stroke:none;fill-rule:nonzero;fill:rgb(92.156863%,92.156863%,92.156863%);fill-opacity:1;" d="M 0 0 C 16.5 0 33 0 50 0 C 50 16.5 50 33 50 50 C 33.5 50 17 50 0 50 C 0 33.5 0 17 0 0 Z M 0 0 "/>
<path style=" stroke:none;fill-rule:nonzero;fill:rgb(36.470589%,51.372552%,81.176472%);fill-opacity:1;" d="M 25 11.25 C 25.472656 11.398438 25.472656 11.398438 26 11.75 C 26.261719 12.484375 26.261719 12.484375 26.4375 13.359375 C 26.5 13.648438 26.558594 13.9375 26.621094 14.234375 C 26.75 15 26.75 15 26.75 15.75 C 27.269531 15.886719 27.710938 16 28.25 16 C 28.660156 15.382812 28.660156 15.382812 29 14.75 C 30.050781 15.1875 30.328125 15.6875 30.796875 16.6875 C 31.105469 17.542969 31.183594 18.34375 31.25 19.25 C 32.105469 19.246094 32.917969 19.207031 33.75 19 C 34.351562 18.265625 34.351562 18.265625 34.75 17.5 C 35.078125 17.5 35.410156 17.5 35.75 17.5 C 36.5 18.90625 36.5 18.90625 36.5 19.75 C 36.703125 19.796875 36.703125 19.796875 36.910156 19.847656 C 37.589844 20.023438 38.25 20.242188 38.914062 20.464844 C 39.195312 20.558594 39.472656 20.648438 39.761719 20.746094 C 40.054688 20.84375 40.351562 20.945312 40.65625 21.046875 C 41.265625 21.25 41.875 21.453125 42.484375 21.65625 C 42.78125 21.757812 43.082031 21.859375 43.390625 21.960938 C 44.566406 22.355469 45.746094 22.75 46.921875 23.140625 C 47.28125 23.261719 47.644531 23.378906 48.003906 23.5 C 48.25 23.582031 48.496094 23.664062 48.75 23.75 C 48.128906 24.371094 47.867188 24.335938 47.003906 24.402344 C 46.753906 24.425781 46.503906 24.449219 46.246094 24.476562 C 45.722656 24.523438 45.199219 24.566406 44.671875 24.605469 C 43.054688 24.769531 42.164062 25.058594 41.09375 26.308594 C 40.980469 26.457031 40.867188 26.601562 40.75 26.75 C 40.347656 27.214844 39.964844 27.597656 39.5 28 C 38.835938 27.949219 38.558594 27.804688 38.074219 27.34375 C 37.945312 27.183594 37.820312 27.023438 37.6875 26.859375 C 37.492188 26.617188 37.492188 26.617188 37.292969 26.375 C 37.195312 26.25 37.101562 26.128906 37 26 C 36.804688 26.109375 36.804688 26.109375 36.605469 26.21875 C 36.421875 26.324219 36.238281 26.425781 36.046875 26.53125 C 35.84375 26.644531 35.636719 26.761719 35.425781 26.878906 C 34.972656 27.128906 34.511719 27.371094 34.050781 27.605469 C 32.347656 28.480469 31.175781 29.484375 29.894531 30.890625 C 28.765625 31.917969 27.476562 31.90625 26.015625 31.882812 C 24.011719 31.785156 22.40625 31.105469 20.75 30 C 20.730469 30.171875 20.707031 30.339844 20.6875 30.515625 C 20.445312 31.46875 20.011719 32.160156 19.5 33 C 18.910156 32.941406 18.910156 32.941406 18.25 32.75 C 17.921875 32.273438 17.921875 32.273438 17.679688 31.65625 C 17.585938 31.4375 17.496094 31.214844 17.402344 30.988281 C 17.308594 30.753906 17.21875 30.519531 17.125 30.28125 C 16.511719 28.570312 16.511719 28.570312 15.34375 27.242188 C 15.148438 27.164062 14.953125 27.082031 14.75 27 C 14.433594 26.785156 14.433594 26.785156 14.109375 26.5625 C 13.53125 26.195312 13.53125 26.195312 12.9375 26.3125 C 12.5 26.46875 12.5 26.46875 12.25 26.75 C 10.867188 26.808594 10.867188 26.808594 10.25 26.5 C 10.25 26.335938 10.25 26.171875 10.25 26 C 10.09375 25.921875 9.941406 25.84375 9.78125 25.765625 C 9.4375 25.59375 9.09375 25.421875 8.75 25.25 C 8.75 25.085938 8.75 24.921875 8.75 24.75 C 8.578125 24.757812 8.402344 24.765625 8.226562 24.777344 C 6.050781 24.835938 4.109375 24.484375 2 24 C 2.773438 23.484375 3.378906 23.285156 4.265625 23.03125 C 5.511719 22.660156 6.703125 22.230469 7.902344 21.734375 C 8.507812 21.496094 9.109375 21.316406 9.734375 21.140625 C 12.574219 20.320312 12.574219 20.320312 14.5 18.25 C 15.082031 18.164062 15.667969 18.082031 16.25 18 C 16.671875 17.589844 17.089844 17.171875 17.5 16.75 C 18.203125 16.671875 18.203125 16.671875 18.75 16.75 C 18.875 16.996094 18.875 16.996094 19 17.25 C 19.371094 17.375 19.371094 17.375 19.75 17.5 C 19.796875 17.335938 19.847656 17.175781 19.898438 17.007812 C 20.246094 15.832031 20.601562 14.660156 21 13.5 C 21.699219 13.574219 21.949219 13.6875 22.40625 14.234375 C 22.878906 15.289062 23.0625 16.363281 23.25 17.5 C 23.574219 16.460938 23.808594 15.449219 23.984375 14.375 C 24.183594 13.230469 24.492188 12.292969 25 11.25 Z M 25 11.25 "/>
<path style=" stroke:none;fill-rule:nonzero;fill:rgb(40.784314%,22.745098%,55.686277%);fill-opacity:1;" d="M 25 11.25 C 25.472656 11.398438 25.472656 11.398438 26 11.75 C 26.261719 12.484375 26.261719 12.484375 26.4375 13.359375 C 26.5 13.648438 26.558594 13.9375 26.621094 14.234375 C 26.75 15 26.75 15 26.75 15.75 C 26.90625 15.769531 27.058594 15.792969 27.21875 15.8125 C 27.75 16 27.75 16 28.109375 16.390625 C 28.421875 17.738281 27.457031 19.082031 26.828125 20.234375 C 26.230469 21.425781 25.910156 22.429688 26.25 23.75 C 26.9375 25.011719 27.960938 26.019531 29 27 C 29.25 27.25 29.25 27.25 29.265625 28.140625 C 29.261719 28.425781 29.253906 28.707031 29.25 29 C 28.144531 29.015625 27.042969 29.023438 25.9375 29.03125 C 25.628906 29.035156 25.320312 29.039062 25 29.042969 C 22.332031 29.058594 19.761719 29.042969 17.5 27.5 C 17.5 27.417969 17.5 27.335938 17.5 27.25 C 17.714844 27.277344 17.933594 27.300781 18.15625 27.328125 C 19.253906 27.226562 19.789062 26.792969 20.5 26 C 21.867188 24.21875 22.675781 22.410156 23.25 20.25 C 22.566406 20.503906 22.300781 20.648438 21.96875 21.3125 C 21.898438 21.527344 21.824219 21.746094 21.75 21.96875 C 21.382812 22.960938 21.082031 23.570312 20.25 24.25 C 20.039062 24.460938 19.828125 24.671875 19.609375 24.890625 C 19.410156 25.089844 19.207031 25.292969 19 25.5 C 18.898438 25.632812 18.800781 25.769531 18.695312 25.90625 C 17.996094 26.441406 17.363281 26.339844 16.5 26.328125 C 16.191406 26.328125 15.882812 26.328125 15.5625 26.324219 C 14.75 26.25 14.75 26.25 14 25.75 C 14.082031 24.84375 14.164062 23.933594 14.25 23 C 14.414062 23 14.578125 23 14.75 23 C 14.765625 22.828125 14.78125 22.65625 14.796875 22.480469 C 14.816406 22.253906 14.835938 22.027344 14.859375 21.796875 C 14.878906 21.574219 14.898438 21.351562 14.921875 21.121094 C 15 20.5 15 20.5 15.25 19.75 C 15.335938 19.417969 15.417969 19.085938 15.5 18.75 C 16.0625 19.261719 16.390625 19.703125 16.679688 20.40625 C 16.753906 20.578125 16.824219 20.75 16.902344 20.925781 C 16.976562 21.105469 17.050781 21.285156 17.125 21.46875 C 17.601562 22.613281 18.078125 23.703125 18.75 24.75 C 19.367188 24.019531 19.925781 23.265625 20.453125 22.46875 C 20.5625 22.304688 20.671875 22.136719 20.785156 21.96875 C 21.082031 21.460938 21.082031 21.460938 20.75 20.75 C 20.832031 20.503906 20.914062 20.253906 21 20 C 20.835938 19.835938 20.671875 19.671875 20.5 19.5 C 20.457031 18.589844 20.441406 17.78125 20.625 16.890625 C 20.78125 16.082031 20.757812 15.316406 20.734375 14.496094 C 20.75 14 20.75 14 21 13.5 C 21.699219 13.574219 21.949219 13.6875 22.40625 14.234375 C 22.878906 15.289062 23.0625 16.363281 23.25 17.5 C 23.574219 16.460938 23.808594 15.449219 23.984375 14.375 C 24.183594 13.230469 24.492188 12.292969 25 11.25 Z M 25 11.25 "/>
<path style=" stroke:none;fill-rule:nonzero;fill:rgb(33.725491%,45.882353%,72.549021%);fill-opacity:1;" d="M 29 14.75 C 30.050781 15.1875 30.328125 15.6875 30.796875 16.6875 C 31.105469 17.542969 31.183594 18.34375 31.25 19.25 C 32.105469 19.246094 32.917969 19.207031 33.75 19 C 34.351562 18.265625 34.351562 18.265625 34.75 17.5 C 35.078125 17.5 35.410156 17.5 35.75 17.5 C 36.5 18.90625 36.5 18.90625 36.5 19.75 C 36.636719 19.78125 36.773438 19.8125 36.910156 19.847656 C 37.589844 20.023438 38.25 20.242188 38.914062 20.464844 C 39.195312 20.558594 39.472656 20.648438 39.761719 20.746094 C 40.203125 20.894531 40.203125 20.894531 40.65625 21.046875 C 41.265625 21.25 41.875 21.453125 42.484375 21.65625 C 42.78125 21.757812 43.082031 21.859375 43.390625 21.960938 C 44.566406 22.355469 45.746094 22.75 46.921875 23.140625 C 47.28125 23.261719 47.644531 23.378906 48.003906 23.5 C 48.25 23.582031 48.496094 23.664062 48.75 23.75 C 48.128906 24.371094 47.867188 24.335938 47.003906 24.402344 C 46.753906 24.425781 46.503906 24.449219 46.246094 24.476562 C 45.722656 24.523438 45.199219 24.566406 44.671875 24.605469 C 43.054688 24.769531 42.164062 25.058594 41.09375 26.308594 C 40.980469 26.457031 40.867188 26.601562 40.75 26.75 C 40.347656 27.214844 39.964844 27.597656 39.5 28 C 38.8125 27.953125 38.53125 27.777344 38.019531 27.3125 C 37.867188 27.136719 37.71875 26.960938 37.5625 26.78125 C 37.410156 26.605469 37.253906 26.433594 37.097656 26.25 C 36.75 25.75 36.75 25.75 36.75 25 C 36.515625 24.949219 36.515625 24.949219 36.273438 24.898438 C 34.625 24.464844 34.625 24.464844 34.238281 23.8125 C 34.109375 23.328125 34.109375 23.328125 34 22.5 C 33.753906 23.117188 33.753906 23.117188 33.5 23.75 C 33.417969 23.75 33.335938 23.75 33.25 23.75 C 33.125 22.511719 33.125 22.511719 33 21.25 C 32.933594 21.417969 32.867188 21.585938 32.796875 21.761719 C 32.710938 21.984375 32.621094 22.207031 32.53125 22.4375 C 32.445312 22.65625 32.355469 22.878906 32.265625 23.105469 C 31.765625 24.3125 31.320312 25.195312 30.25 26 C 29.355469 26.246094 28.640625 26.261719 27.75 26 C 26.789062 25.253906 26.179688 24.371094 25.839844 23.195312 C 25.722656 21.734375 26.367188 20.734375 27.101562 19.515625 C 27.691406 18.382812 27.976562 17.199219 28.285156 15.96875 C 28.5 15.25 28.5 15.25 29 14.75 Z M 29 14.75 "/>
<path style=" stroke:none;fill-rule:nonzero;fill:rgb(31.37255%,33.725491%,62.7451%);fill-opacity:1;" d="M 29 14.75 C 30.050781 15.1875 30.328125 15.6875 30.796875 16.6875 C 31.105469 17.542969 31.183594 18.34375 31.25 19.25 C 32.105469 19.246094 32.917969 19.207031 33.75 19 C 34.40625 18.28125 34.40625 18.28125 34.75 17.5 C 34.832031 17.5 34.914062 17.5 35 17.5 C 35 18.488281 35 19.480469 35 20.5 C 34.585938 20.5 34.175781 20.5 33.75 20.5 C 33.503906 20.582031 33.253906 20.664062 33 20.75 C 32.808594 21.335938 32.652344 21.90625 32.5 22.5 C 32.09375 23.929688 31.585938 25.222656 30.25 26 C 29.347656 26.261719 28.648438 26.28125 27.75 26 C 26.789062 25.25 26.179688 24.371094 25.839844 23.195312 C 25.722656 21.734375 26.367188 20.734375 27.101562 19.515625 C 27.691406 18.382812 27.976562 17.199219 28.285156 15.96875 C 28.5 15.25 28.5 15.25 29 14.75 Z M 29 14.75 "/>
<path style=" stroke:none;fill-rule:nonzero;fill:rgb(47.058824%,61.176473%,96.470588%);fill-opacity:1;" d="M 23.25 20.25 C 24.167969 20.476562 24.59375 20.792969 25.078125 21.574219 C 25.269531 21.90625 25.457031 22.242188 25.640625 22.578125 C 26.589844 24.265625 27.601562 25.640625 29 27 C 29.25 27.25 29.25 27.25 29.265625 28.140625 C 29.261719 28.425781 29.253906 28.707031 29.25 29 C 28.144531 29.015625 27.042969 29.023438 25.9375 29.03125 C 25.628906 29.035156 25.320312 29.039062 25 29.042969 C 22.332031 29.058594 19.761719 29.042969 17.5 27.5 C 17.5 27.417969 17.5 27.335938 17.5 27.25 C 17.714844 27.277344 17.933594 27.300781 18.15625 27.328125 C 19.253906 27.226562 19.789062 26.792969 20.5 26 C 21.867188 24.21875 22.675781 22.410156 23.25 20.25 Z M 23.25 20.25 "/>
<path style=" stroke:none;fill-rule:nonzero;fill:rgb(51.372552%,48.235294%,93.333334%);fill-opacity:1;" d="M 20.75 14.25 C 20.832031 14.25 20.914062 14.25 21 14.25 C 21.019531 15.394531 20.972656 16.378906 20.75 17.5 C 20.675781 18.578125 20.628906 19.316406 21.25 20.25 C 21.085938 20.578125 20.921875 20.910156 20.75 21.25 C 20.914062 21.332031 21.078125 21.414062 21.25 21.5 C 20.976562 21.945312 20.699219 22.386719 20.421875 22.828125 C 20.269531 23.074219 20.113281 23.320312 19.957031 23.574219 C 19.585938 24.125 19.238281 24.558594 18.75 25 C 17.863281 23.820312 17.359375 22.582031 16.808594 21.214844 C 16.453125 20.390625 16.039062 19.71875 15.5 19 C 15.511719 19.171875 15.519531 19.339844 15.53125 19.515625 C 15.492188 20.402344 15.261719 21.152344 15 22 C 14.914062 22.332031 14.832031 22.664062 14.75 23 C 14.585938 23 14.421875 23 14.25 23 C 14.25 23.496094 14.25 23.988281 14.25 24.5 C 14.167969 24.5 14.085938 24.5 14 24.5 C 13.9375 23.691406 13.882812 22.886719 13.828125 22.078125 C 13.800781 21.734375 13.800781 21.734375 13.773438 21.386719 C 13.710938 20.375 13.679688 19.671875 14.066406 18.722656 C 14.699219 18.035156 15.34375 18.125 16.25 18 C 16.671875 17.589844 17.089844 17.171875 17.5 16.75 C 18.203125 16.671875 18.203125 16.671875 18.75 16.75 C 18.832031 16.914062 18.914062 17.078125 19 17.25 C 19.246094 17.332031 19.496094 17.414062 19.75 17.5 C 19.800781 17.328125 19.851562 17.15625 19.90625 16.980469 C 19.972656 16.753906 20.039062 16.527344 20.109375 16.296875 C 20.175781 16.074219 20.242188 15.851562 20.3125 15.621094 C 20.449219 15.160156 20.597656 14.703125 20.75 14.25 Z M 20.75 14.25 "/>
<path style=" stroke:none;fill-rule:nonzero;fill:rgb(41.568628%,55.686277%,84.313726%);fill-opacity:1;" d="M 13.75 19.75 C 13.503906 20.738281 13.253906 21.730469 13 22.75 C 12.835938 22.75 12.671875 22.75 12.5 22.75 C 12.519531 22.929688 12.542969 23.109375 12.5625 23.296875 C 12.476562 24.246094 12.183594 24.59375 11.5 25.25 C 10.730469 25.332031 10.730469 25.332031 9.832031 25.226562 C 9.507812 25.191406 9.179688 25.15625 8.84375 25.117188 C 8.5 25.074219 8.15625 25.027344 7.8125 24.984375 C 7.472656 24.945312 7.132812 24.910156 6.792969 24.871094 C 5.160156 24.683594 3.582031 24.457031 2 24 C 2.773438 23.484375 3.378906 23.285156 4.265625 23.03125 C 5.511719 22.660156 6.699219 22.234375 7.898438 21.734375 C 8.519531 21.492188 9.140625 21.304688 9.78125 21.125 C 10.609375 20.890625 11.34375 20.601562 12.109375 20.203125 C 13 19.75 13 19.75 13.75 19.75 Z M 13.75 19.75 "/>
<path style=" stroke:none;fill-rule:nonzero;fill:rgb(35.294119%,43.529412%,74.901962%);fill-opacity:1;" d="M 33 20.75 C 33.082031 20.75 33.164062 20.75 33.25 20.75 C 33.332031 21.574219 33.414062 22.398438 33.5 23.25 C 33.664062 22.921875 33.828125 22.589844 34 22.25 C 34.082031 22.25 34.164062 22.25 34.25 22.25 C 34.253906 22.523438 34.261719 22.796875 34.265625 23.078125 C 34.382812 23.535156 34.382812 23.535156 34.5 24 C 35.339844 24.496094 35.339844 24.496094 36.25 24.75 C 36.414062 24.832031 36.578125 24.914062 36.75 25 C 36.75 25.328125 36.75 25.660156 36.75 26 C 35.914062 26.703125 34.953125 27.214844 34 27.75 C 33.761719 27.886719 33.761719 27.886719 33.515625 28.03125 C 32.296875 28.644531 31.074219 28.570312 29.75 28.5 C 29.667969 27.757812 29.585938 27.015625 29.5 26.25 C 29.253906 26.167969 29.003906 26.085938 28.75 26 C 29.007812 25.953125 29.265625 25.90625 29.53125 25.859375 C 30.710938 25.523438 31.355469 24.761719 32 23.75 C 32.1875 23.132812 32.1875 23.132812 32.25 22.5 C 32.476562 21.90625 32.738281 21.332031 33 20.75 Z M 33 20.75 "/>
<path style=" stroke:none;fill-rule:nonzero;fill:rgb(60.784316%,50.588238%,96.470588%);fill-opacity:1;" d="M 35 17.25 C 36 17.75 36 17.75 36.3125 18.359375 C 36.5 19 36.5 19 36.5 19.75 C 36.746094 19.832031 36.996094 19.914062 37.25 20 C 37.085938 20 36.921875 20 36.75 20 C 36.75 20.328125 36.75 20.660156 36.75 21 C 36.914062 21 37.078125 21 37.25 21 C 37.332031 21.164062 37.414062 21.328125 37.5 21.5 C 37.746094 21.582031 37.996094 21.664062 38.25 21.75 C 38.25 21.914062 38.25 22.078125 38.25 22.25 C 38.414062 22.25 38.578125 22.25 38.75 22.25 C 38.75 22.414062 38.75 22.578125 38.75 22.75 C 38.914062 22.75 39.078125 22.75 39.25 22.75 C 39.25 23.078125 39.25 23.410156 39.25 23.75 C 39.414062 23.75 39.578125 23.75 39.75 23.75 C 39.75 24.078125 39.75 24.410156 39.75 24.75 C 39.59375 24.796875 39.4375 24.847656 39.273438 24.898438 C 39.070312 24.960938 38.867188 25.027344 38.65625 25.09375 C 38.453125 25.15625 38.25 25.222656 38.039062 25.289062 C 37.457031 25.476562 37.457031 25.476562 37 26 C 36.980469 25.839844 36.964844 25.683594 36.945312 25.519531 C 36.878906 25.347656 36.816406 25.175781 36.75 25 C 36.242188 24.78125 36.242188 24.78125 35.640625 24.671875 C 34.570312 24.371094 34.570312 24.371094 34.242188 23.8125 C 34.109375 23.328125 34.109375 23.328125 34 22.5 C 33.753906 23.117188 33.753906 23.117188 33.5 23.75 C 33.417969 23.75 33.335938 23.75 33.25 23.75 C 33.238281 23.261719 33.226562 22.769531 33.21875 22.28125 C 33.214844 22.007812 33.207031 21.734375 33.203125 21.453125 C 33.25 20.75 33.25 20.75 33.75 20.25 C 34.078125 20.25 34.410156 20.25 34.75 20.25 C 34.832031 19.261719 34.914062 18.269531 35 17.25 Z M 35 17.25 "/>
<path style=" stroke:none;fill-rule:nonzero;fill:rgb(53.725493%,65.490198%,96.862745%);fill-opacity:1;" d="M 15.5 18.75 C 16.0625 19.261719 16.390625 19.703125 16.679688 20.40625 C 16.753906 20.578125 16.824219 20.75 16.902344 20.925781 C 16.976562 21.105469 17.050781 21.285156 17.125 21.46875 C 17.710938 22.878906 17.710938 22.878906 18.4375 24.21875 C 18.542969 24.394531 18.644531 24.570312 18.75 24.75 C 18.511719 25.589844 18.246094 25.753906 17.5 26.25 C 16.851562 26.316406 16.851562 26.316406 16.125 26.3125 C 15.765625 26.3125 15.765625 26.3125 15.398438 26.316406 C 14.75 26.25 14.75 26.25 14 25.75 C 14.082031 24.84375 14.164062 23.933594 14.25 23 C 14.414062 23 14.578125 23 14.75 23 C 14.765625 22.828125 14.78125 22.65625 14.796875 22.480469 C 14.816406 22.253906 14.835938 22.027344 14.859375 21.796875 C 14.878906 21.574219 14.898438 21.351562 14.921875 21.121094 C 15 20.5 15 20.5 15.25 19.75 C 15.335938 19.417969 15.417969 19.085938 15.5 18.75 Z M 15.5 18.75 "/>
<path style=" stroke:none;fill-rule:nonzero;fill:rgb(47.450981%,35.294119%,78.431374%);fill-opacity:1;" d="M 29 14.75 C 30.050781 15.1875 30.328125 15.6875 30.796875 16.6875 C 31.105469 17.542969 31.183594 18.34375 31.25 19.25 C 32.074219 19.25 32.898438 19.25 33.75 19.25 C 33.75 19.332031 33.75 19.414062 33.75 19.5 C 33.007812 19.5 32.265625 19.5 31.5 19.5 C 31.582031 19.914062 31.664062 20.324219 31.75 20.75 C 31.914062 20.75 32.078125 20.75 32.25 20.75 C 32.25 20.914062 32.25 21.078125 32.25 21.25 C 32.019531 21.371094 32.019531 21.371094 31.785156 21.496094 C 31.582031 21.605469 31.378906 21.714844 31.171875 21.828125 C 30.972656 21.933594 30.773438 22.042969 30.566406 22.152344 C 30.039062 22.476562 29.660156 22.796875 29.25 23.25 C 29.25 22.921875 29.25 22.589844 29.25 22.25 C 29.085938 22.25 28.921875 22.25 28.75 22.25 C 28.75 15 28.75 15 29 14.75 Z M 29 14.75 "/>
<path style=" stroke:none;fill-rule:nonzero;fill:rgb(47.843137%,34.509805%,80.000001%);fill-opacity:1;" d="M 21 13.5 C 21.699219 13.574219 21.949219 13.6875 22.40625 14.234375 C 22.972656 15.5 23.25 16.863281 23.25 18.25 C 23.015625 18.675781 22.761719 19.089844 22.5 19.5 C 22.316406 19.816406 22.132812 20.132812 21.953125 20.453125 C 21.804688 20.714844 21.652344 20.980469 21.5 21.25 C 21.253906 21.25 21.003906 21.25 20.75 21.25 C 20.800781 21.054688 20.851562 20.859375 20.90625 20.65625 C 20.9375 20.441406 20.96875 20.222656 21 20 C 20.835938 19.835938 20.671875 19.671875 20.5 19.5 C 20.457031 18.589844 20.441406 17.78125 20.625 16.890625 C 20.78125 16.082031 20.757812 15.316406 20.734375 14.496094 C 20.75 14 20.75 14 21 13.5 Z M 21 13.5 "/>
<path style=" stroke:none;fill-rule:nonzero;fill:rgb(59.215689%,39.607844%,92.156863%);fill-opacity:1;" d="M 25.25 11.25 C 26.210938 11.890625 26.1875 12.253906 26.421875 13.359375 C 26.484375 13.648438 26.546875 13.9375 26.613281 14.234375 C 26.75 15 26.75 15 26.75 15.75 C 26.90625 15.769531 27.058594 15.792969 27.21875 15.8125 C 27.75 16 27.75 16 28.109375 16.390625 C 28.332031 17.363281 27.980469 18.148438 27.5 19 C 26.953125 19.375 26.953125 19.375 26.5 19.5 C 26.5 19.335938 26.5 19.171875 26.5 19 C 26.253906 19 26.003906 19 25.75 19 C 25.355469 17.957031 25.191406 17.101562 25.203125 15.984375 C 25.203125 15.710938 25.203125 15.433594 25.207031 15.148438 C 25.210938 14.859375 25.214844 14.574219 25.21875 14.28125 C 25.222656 13.988281 25.222656 13.699219 25.226562 13.398438 C 25.230469 12.683594 25.238281 11.964844 25.25 11.25 Z M 25.25 11.25 "/>
<path style=" stroke:none;fill-rule:nonzero;fill:rgb(47.058824%,78.039217%,97.254902%);fill-opacity:1;" d="M 11.75 21.75 C 11.996094 21.914062 12.246094 22.078125 12.5 22.25 C 12.640625 23.324219 12.617188 23.828125 12 24.734375 C 11.835938 24.90625 11.671875 25.074219 11.5 25.25 C 11.011719 25.179688 10.519531 25.105469 10.03125 25.03125 C 9.621094 24.96875 9.621094 24.96875 9.203125 24.90625 C 8.5 24.75 8.5 24.75 8 24.25 C 8.015625 23.65625 8.015625 23.65625 8.25 23 C 9.4375 21.902344 10.136719 21.664062 11.75 21.75 Z M 11.75 21.75 "/>
<path style=" stroke:none;fill-rule:nonzero;fill:rgb(45.09804%,36.078432%,78.823531%);fill-opacity:1;" d="M 25 11.25 C 25.082031 11.25 25.164062 11.25 25.25 11.25 C 25.257812 11.429688 25.261719 11.613281 25.269531 11.800781 C 25.296875 12.628906 25.328125 13.453125 25.359375 14.28125 C 25.371094 14.566406 25.378906 14.851562 25.390625 15.148438 C 25.398438 15.421875 25.410156 15.699219 25.421875 15.984375 C 25.429688 16.242188 25.4375 16.496094 25.449219 16.757812 C 25.5 17.515625 25.613281 18.25 25.75 19 C 26.511719 19.253906 26.511719 19.253906 27.25 19 C 26.804688 20.402344 26.804688 20.402344 26.484375 20.984375 C 26.152344 21.71875 26.09375 22.453125 26 23.25 C 25.402344 22.953125 25.289062 22.714844 24.96875 22.140625 C 24.878906 21.984375 24.792969 21.832031 24.703125 21.671875 C 24.5 21.25 24.5 21.25 24.5 20.75 C 24.253906 20.667969 24.003906 20.585938 23.75 20.5 C 23.996094 20.375 23.996094 20.375 24.25 20.25 C 24.492188 19.210938 24.523438 18.21875 24.507812 17.152344 C 24.503906 16.855469 24.5 16.5625 24.496094 16.253906 C 24.488281 15.632812 24.480469 15.011719 24.46875 14.390625 C 24.464844 14.097656 24.460938 13.800781 24.460938 13.496094 C 24.453125 13.09375 24.453125 13.09375 24.445312 12.679688 C 24.5 12 24.5 12 25 11.25 Z M 25 11.25 "/>
<path style=" stroke:none;fill-rule:nonzero;fill:rgb(43.529412%,47.450981%,87.450981%);fill-opacity:1;" d="M 33.75 20.25 C 34.28125 20.34375 34.28125 20.34375 34.75 20.5 C 34.585938 20.5 34.421875 20.5 34.25 20.5 C 34.367188 20.804688 34.488281 21.109375 34.609375 21.421875 C 34.910156 22.191406 35.101562 22.9375 35.25 23.75 C 35.433594 23.761719 35.617188 23.773438 35.808594 23.789062 C 36.171875 23.816406 36.171875 23.816406 36.546875 23.84375 C 36.90625 23.871094 36.90625 23.871094 37.277344 23.898438 C 38.003906 24 38.582031 24.199219 39.25 24.5 C 38.855469 23.515625 38.632812 23.078125 37.703125 22.53125 C 37.472656 22.4375 37.238281 22.34375 37 22.25 C 37 21.835938 37 21.425781 37 21 C 37.625 21.34375 37.625 21.34375 38.25 21.75 C 38.25 21.914062 38.25 22.078125 38.25 22.25 C 38.414062 22.25 38.578125 22.25 38.75 22.25 C 38.75 22.414062 38.75 22.578125 38.75 22.75 C 38.914062 22.75 39.078125 22.75 39.25 22.75 C 39.25 23.078125 39.25 23.410156 39.25 23.75 C 39.414062 23.75 39.578125 23.75 39.75 23.75 C 39.75 24.078125 39.75 24.410156 39.75 24.75 C 39.59375 24.796875 39.4375 24.847656 39.273438 24.898438 C 39.070312 24.960938 38.867188 25.027344 38.65625 25.09375 C 38.453125 25.15625 38.25 25.222656 38.039062 25.289062 C 37.457031 25.476562 37.457031 25.476562 37 26 C 36.980469 25.839844 36.964844 25.683594 36.945312 25.519531 C 36.878906 25.347656 36.816406 25.175781 36.75 25 C 36.242188 24.78125 36.242188 24.78125 35.640625 24.671875 C 34.570312 24.371094 34.570312 24.371094 34.242188 23.8125 C 34.109375 23.328125 34.109375 23.328125 34 22.5 C 33.835938 22.914062 33.671875 23.324219 33.5 23.75 C 33.417969 23.75 33.335938 23.75 33.25 23.75 C 33.238281 23.261719 33.226562 22.769531 33.21875 22.28125 C 33.214844 22.007812 33.207031 21.734375 33.203125 21.453125 C 33.25 20.75 33.25 20.75 33.75 20.25 Z M 33.75 20.25 "/>
<path style=" stroke:none;fill-rule:nonzero;fill:rgb(32.549021%,25.098041%,54.11765%);fill-opacity:1;" d="M 20.75 14.25 C 20.832031 14.25 20.914062 14.25 21 14.25 C 21.035156 15.746094 20.910156 17.148438 20.671875 18.625 C 20.640625 18.824219 20.613281 19.027344 20.582031 19.234375 C 20.078125 22.421875 20.078125 22.421875 19 23.5 C 18.753906 23.5 18.503906 23.5 18.25 23.5 C 18.148438 21.722656 18.304688 20.15625 19 18.5 C 19.164062 18.335938 19.328125 18.171875 19.5 18 C 19.734375 17.367188 19.953125 16.738281 20.15625 16.09375 C 20.214844 15.917969 20.269531 15.742188 20.328125 15.558594 C 20.472656 15.121094 20.609375 14.6875 20.75 14.25 Z M 20.75 14.25 "/>
<path style=" stroke:none;fill-rule:nonzero;fill:rgb(27.058825%,40.392157%,63.137257%);fill-opacity:1;" d="M 42.40625 22.21875 C 43.140625 22.566406 43.675781 22.925781 44.25 23.5 C 44.25 23.828125 44.25 24.160156 44.25 24.5 C 43.800781 24.640625 43.800781 24.640625 43.34375 24.78125 C 42.183594 25.207031 41.585938 25.855469 40.75 26.75 C 40.585938 26.75 40.421875 26.75 40.25 26.75 C 40.253906 26.488281 40.261719 26.222656 40.265625 25.953125 C 40.253906 25.167969 40.183594 24.507812 40 23.75 C 41.496094 22.261719 41.496094 22.261719 42.40625 22.21875 Z M 42.40625 22.21875 "/>
<path style=" stroke:none;fill-rule:nonzero;fill:rgb(24.313726%,25.098041%,47.450981%);fill-opacity:1;" d="M 28.25 16.5 C 28.332031 16.5 28.414062 16.5 28.5 16.5 C 28.144531 23.710938 28.144531 23.710938 27 25 C 26.269531 24.292969 25.914062 23.726562 25.84375 22.71875 C 25.898438 21.433594 26.46875 20.519531 27.117188 19.433594 C 27.648438 18.484375 27.945312 17.539062 28.25 16.5 Z M 28.25 16.5 "/>
<path style=" stroke:none;fill-rule:nonzero;fill:rgb(64.705884%,36.078432%,94.117647%);fill-opacity:1;" d="M 29 14.75 C 30.03125 15.183594 30.335938 15.652344 30.796875 16.640625 C 31.242188 17.964844 31.25 19.367188 31.25 20.75 C 31.085938 20.914062 30.921875 21.078125 30.75 21.25 C 29.707031 20.414062 29.433594 19.527344 29.25 18.25 C 29.140625 17.085938 29.0625 15.917969 29 14.75 Z M 29 14.75 "/>
<path style=" stroke:none;fill-rule:nonzero;fill:rgb(38.039216%,39.215687%,74.901962%);fill-opacity:1;" d="M 22.75 20 C 23.296875 20.078125 23.296875 20.078125 23.75 20.25 C 23.585938 20.25 23.421875 20.25 23.25 20.25 C 23.226562 20.414062 23.199219 20.574219 23.175781 20.742188 C 22.933594 22.148438 22.679688 23.152344 21.75 24.25 C 21.503906 24.332031 21.253906 24.414062 21 24.5 C 20.808594 24.691406 20.617188 24.882812 20.421875 25.078125 C 19.488281 26.011719 18.753906 26.710938 17.40625 26.8125 C 17.191406 26.792969 16.972656 26.769531 16.75 26.75 C 17.386719 26.019531 17.386719 26.019531 17.96875 25.921875 C 18.59375 25.769531 18.59375 25.769531 19.125 25 C 19.785156 24.210938 19.851562 24.21875 20.75 24 C 21.046875 23.460938 21.046875 23.460938 21.25 22.75 C 21.367188 22.40625 21.488281 22.0625 21.609375 21.71875 C 21.695312 21.46875 21.695312 21.46875 21.78125 21.21875 C 22.03125 20.683594 22.292969 20.367188 22.75 20 Z M 22.75 20 "/>
<path style=" stroke:none;fill-rule:nonzero;fill:rgb(34.117648%,41.568628%,71.764708%);fill-opacity:1;" d="M 18.75 18.75 C 19.089844 19.425781 18.851562 19.773438 18.636719 20.460938 C 18.382812 21.457031 18.328125 22.480469 18.25 23.5 C 19.007812 23.195312 19.007812 23.195312 19.492188 22.566406 C 19.574219 22.316406 19.574219 22.316406 19.65625 22.0625 C 19.714844 21.886719 19.773438 21.710938 19.835938 21.527344 C 19.917969 21.265625 19.917969 21.265625 20 21 C 20.148438 20.566406 20.148438 20.566406 20.296875 20.125 C 20.363281 19.917969 20.429688 19.710938 20.5 19.5 C 20.746094 19.746094 20.996094 19.996094 21.25 20.25 C 21.085938 20.578125 20.921875 20.910156 20.75 21.25 C 20.914062 21.332031 21.078125 21.414062 21.25 21.5 C 20.976562 21.945312 20.699219 22.386719 20.421875 22.828125 C 20.269531 23.074219 20.113281 23.320312 19.957031 23.574219 C 19.585938 24.125 19.238281 24.558594 18.75 25 C 17.738281 23.695312 17.375 22.542969 17.570312 20.890625 C 17.78125 19.789062 17.78125 19.789062 18 19.25 C 18.246094 19.085938 18.496094 18.921875 18.75 18.75 Z M 18.75 18.75 "/>
<path style=" stroke:none;fill-rule:nonzero;fill:rgb(43.137255%,57.647061%,84.705883%);fill-opacity:1;" d="M 43 22 C 44.921875 22.570312 46.835938 23.160156 48.75 23.75 C 48.160156 24.339844 47.96875 24.332031 47.164062 24.40625 C 46.949219 24.429688 46.738281 24.449219 46.515625 24.472656 C 46.296875 24.492188 46.074219 24.511719 45.84375 24.53125 C 45.621094 24.554688 45.394531 24.574219 45.164062 24.597656 C 44.609375 24.648438 44.054688 24.699219 43.5 24.75 C 43.746094 24.667969 43.996094 24.585938 44.25 24.5 C 43.9375 23.585938 43.832031 23.304688 43 22.75 C 43 22.503906 43 22.253906 43 22 Z M 43 22 "/>
<path style=" stroke:none;fill-rule:nonzero;fill:rgb(28.627452%,40.784314%,64.313728%);fill-opacity:1;" d="M 35.75 25.5 C 35.71875 26.0625 35.71875 26.0625 35.5 26.75 C 34.214844 27.792969 32.695312 28.652344 31 28.5 C 31.082031 28.253906 31.164062 28.003906 31.25 27.75 C 31.414062 27.75 31.578125 27.75 31.75 27.75 C 31.75 27.585938 31.75 27.421875 31.75 27.25 C 32.964844 25.824219 33.886719 25.265625 35.75 25.5 Z M 35.75 25.5 "/>
<path style=" stroke:none;fill-rule:nonzero;fill:rgb(29.803923%,47.843137%,67.843139%);fill-opacity:1;" d="M 40.5 25.25 C 40.621094 27.105469 40.621094 27.105469 40.0625 27.765625 C 39.5 28 39.5 28 39.015625 28.015625 C 38.195312 27.59375 37.765625 27.003906 37.25 26.25 C 37.339844 25.699219 37.339844 25.699219 37.5 25.25 C 37.859375 25.199219 38.21875 25.15625 38.578125 25.109375 C 38.777344 25.082031 38.976562 25.058594 39.183594 25.03125 C 39.75 25 39.75 25 40.5 25.25 Z M 38.5 25.5 C 38.417969 25.664062 38.335938 25.828125 38.25 26 C 38.414062 26 38.578125 26 38.75 26 C 38.667969 25.835938 38.585938 25.671875 38.5 25.5 Z M 38.5 25.5 "/>
<path style=" stroke:none;fill-rule:nonzero;fill:rgb(49.411765%,45.09804%,90.588236%);fill-opacity:1;" d="M 17.5 16.75 C 17.914062 16.75 18.324219 16.75 18.75 16.75 C 18.832031 16.914062 18.914062 17.078125 19 17.25 C 19.246094 17.332031 19.496094 17.414062 19.75 17.5 C 19.492188 18.121094 19.335938 18.445312 18.757812 18.8125 C 18.066406 19.40625 18 19.917969 17.8125 20.796875 C 17.722656 21.203125 17.722656 21.203125 17.628906 21.621094 C 17.585938 21.828125 17.542969 22.035156 17.5 22.25 C 16.53125 20.972656 16.53125 20.972656 16.25 20.25 C 16.332031 20.003906 16.414062 19.753906 16.5 19.5 C 16.5 19.664062 16.5 19.828125 16.5 20 C 17.046875 19.796875 17.046875 19.796875 17.203125 19.25 C 17.265625 19.050781 17.328125 18.847656 17.390625 18.640625 C 17.734375 17.53125 17.734375 17.53125 18 17 C 17.835938 16.917969 17.671875 16.835938 17.5 16.75 Z M 17.5 16.75 "/>
<path style=" stroke:none;fill-rule:nonzero;fill:rgb(63.529414%,34.901962%,90.588236%);fill-opacity:1;" d="M 21 13.5 C 21.949219 13.6875 21.949219 13.6875 22.40625 14.234375 C 22.808594 15.128906 22.976562 15.984375 23.140625 16.949219 C 23.226562 17.507812 23.226562 17.507812 23.5 18 C 22.839844 18 22.179688 18 21.5 18 C 21.203125 17.109375 21.164062 16.257812 21.109375 15.328125 C 21.097656 15.152344 21.085938 14.976562 21.078125 14.796875 C 21.050781 14.363281 21.023438 13.933594 21 13.5 Z M 21 13.5 "/>
<path style=" stroke:none;fill-rule:nonzero;fill:rgb(76.078433%,32.941177%,94.509804%);fill-opacity:1;" d="M 25.25 11.25 C 26.210938 11.890625 26.1875 12.253906 26.421875 13.359375 C 26.484375 13.648438 26.546875 13.9375 26.613281 14.234375 C 26.75 15 26.75 15 26.75 15.75 C 26.996094 15.832031 27.246094 15.914062 27.5 16 C 27.253906 16 27.003906 16 26.75 16 C 26.832031 16.164062 26.914062 16.328125 27 16.5 C 27.011719 17 27.011719 17.5 27 18 C 26.917969 17.835938 26.835938 17.671875 26.75 17.5 C 26.503906 17.5 26.253906 17.5 26 17.5 C 25.074219 15.527344 25.21875 13.378906 25.25 11.25 Z M 25.25 11.25 "/>
<path style=" stroke:none;fill-rule:nonzero;fill:rgb(27.843139%,58.431375%,69.803923%);fill-opacity:1;" d="M 16.5 27.75 C 17.324219 28.164062 18.148438 28.574219 19 29 C 19.101562 31.542969 19.101562 31.542969 18.25 32.5 C 17.957031 31.898438 17.664062 31.292969 17.375 30.6875 C 17.25 30.433594 17.25 30.433594 17.121094 30.171875 C 16.703125 29.285156 16.5 28.746094 16.5 27.75 Z M 16.5 27.75 "/>
<path style=" stroke:none;fill-rule:nonzero;fill:rgb(35.294119%,47.843137%,72.549021%);fill-opacity:1;" d="M 7 22.5 C 6.996094 22.738281 6.988281 22.972656 6.984375 23.21875 C 6.945312 23.976562 6.945312 23.976562 7.25 24.5 C 5.410156 24.550781 3.761719 24.554688 2 24 C 2.789062 23.472656 3.457031 23.246094 4.359375 22.96875 C 4.644531 22.878906 4.925781 22.792969 5.21875 22.703125 C 6 22.5 6 22.5 7 22.5 Z M 7 22.5 "/>
<path style=" stroke:none;fill-rule:nonzero;fill:rgb(29.803923%,52.156866%,67.843139%);fill-opacity:1;" d="M 31.3125 28.328125 C 31.539062 28.386719 31.765625 28.441406 32 28.5 C 29.566406 31.617188 29.566406 31.617188 27.761719 31.84375 C 27.082031 31.84375 26.421875 31.816406 25.75 31.75 C 25.75 31.585938 25.75 31.421875 25.75 31.25 C 26.058594 31.15625 26.367188 31.0625 26.6875 30.96875 C 28.199219 30.46875 29.589844 29.738281 31 29 C 30.503906 29 30.011719 29 29.5 29 C 30.160156 28.367188 30.378906 28.238281 31.3125 28.328125 Z M 31.3125 28.328125 "/>
<path style=" stroke:none;fill-rule:nonzero;fill:rgb(45.09804%,68.235296%,96.862745%);fill-opacity:1;" d="M 11.75 21.75 C 11.996094 21.914062 12.246094 22.078125 12.5 22.25 C 12.546875 23.15625 12.546875 23.15625 12.5 24 C 12.335938 23.917969 12.171875 23.835938 12 23.75 C 11.84375 22.984375 11.84375 22.984375 11.75 22.25 C 10.769531 22.304688 10.507812 22.488281 9.8125 23.21875 C 9.222656 23.953125 9.222656 23.953125 9 24.75 C 8.671875 24.585938 8.339844 24.421875 8 24.25 C 8.074219 23.355469 8.1875 23.058594 8.859375 22.4375 C 9.890625 21.734375 10.492188 21.683594 11.75 21.75 Z M 11.75 21.75 "/>
<path style=" stroke:none;fill-rule:nonzero;fill:rgb(33.333334%,69.01961%,80.000001%);fill-opacity:1;" d="M 19 29 C 19.867188 29.496094 19.867188 29.496094 20.75 30 C 20.605469 31.1875 20.113281 31.992188 19.5 33 C 19.085938 32.917969 18.675781 32.835938 18.25 32.75 C 18.328125 32.59375 18.40625 32.441406 18.484375 32.28125 C 18.851562 31.203125 18.917969 30.132812 19 29 Z M 19 29 "/>
<path style=" stroke:none;fill-rule:nonzero;fill:rgb(32.156864%,31.37255%,61.56863%);fill-opacity:1;" d="M 22.75 18.5 C 22.832031 18.664062 22.914062 18.828125 23 19 C 22.917969 19.246094 22.835938 19.496094 22.75 19.75 C 22.996094 19.832031 23.246094 19.914062 23.5 20 C 23.3125 20.070312 23.128906 20.144531 22.9375 20.21875 C 22.039062 20.914062 21.871094 21.609375 21.492188 22.65625 C 21.199219 23.375 20.847656 23.761719 20.25 24.25 C 20.039062 24.460938 19.828125 24.671875 19.609375 24.890625 C 19.15625 25.34375 18.703125 25.796875 18.25 26.25 C 18.085938 26.167969 17.921875 26.085938 17.75 26 C 17.84375 25.90625 17.9375 25.816406 18.035156 25.71875 C 19.988281 23.664062 21.507812 21.042969 22.75 18.5 Z M 22.75 18.5 "/>
<path style=" stroke:none;fill-rule:nonzero;fill:rgb(50.980395%,44.705883%,93.333334%);fill-opacity:1;" d="M 33.75 20.25 C 34.28125 20.34375 34.28125 20.34375 34.75 20.5 C 34.585938 20.5 34.421875 20.5 34.25 20.5 C 34.367188 20.804688 34.488281 21.109375 34.609375 21.421875 C 34.84375 22.039062 35.015625 22.585938 35.140625 23.234375 C 35.175781 23.40625 35.210938 23.574219 35.25 23.75 C 35.414062 23.832031 35.578125 23.914062 35.75 24 C 35.253906 24 34.761719 24 34.25 24 C 34.167969 23.503906 34.085938 23.011719 34 22.5 C 33.835938 22.914062 33.671875 23.324219 33.5 23.75 C 33.417969 23.75 33.335938 23.75 33.25 23.75 C 33.238281 23.261719 33.226562 22.769531 33.21875 22.28125 C 33.214844 22.007812 33.207031 21.734375 33.203125 21.453125 C 33.25 20.75 33.25 20.75 33.75 20.25 Z M 33.75 20.25 "/>
<path style=" stroke:none;fill-rule:nonzero;fill:rgb(21.568628%,33.333334%,50.980395%);fill-opacity:1;" d="M 42.9375 23.140625 C 43.5 23.5 43.5 23.5 43.703125 24.03125 C 43.71875 24.1875 43.734375 24.339844 43.75 24.5 C 42.71875 25 41.886719 25.042969 40.75 25 C 40.820312 24.148438 40.902344 23.835938 41.5625 23.265625 C 42.25 23 42.25 23 42.9375 23.140625 Z M 42.9375 23.140625 "/>
<path style=" stroke:none;fill-rule:nonzero;fill:rgb(41.176471%,52.156866%,88.235295%);fill-opacity:1;" d="M 22.25 23.75 C 22.414062 23.832031 22.578125 23.914062 22.75 24 C 22.601562 24.140625 22.449219 24.277344 22.296875 24.421875 C 21.75 25 21.394531 25.5625 21 26.25 C 20.867188 26.425781 20.730469 26.601562 20.59375 26.78125 C 20.203125 27.265625 20.203125 27.265625 20 28 C 20.164062 28.164062 20.328125 28.328125 20.5 28.5 C 19.3125 28.382812 18.472656 28.207031 17.5 27.5 C 17.5 27.417969 17.5 27.335938 17.5 27.25 C 17.714844 27.277344 17.933594 27.300781 18.15625 27.328125 C 19.25 27.226562 19.78125 26.777344 20.5 26 C 20.917969 25.484375 21.3125 24.957031 21.699219 24.417969 C 22 24 22 24 22.25 23.75 Z M 22.25 23.75 "/>
<path style=" stroke:none;fill-rule:nonzero;fill:rgb(33.333334%,49.019608%,66.274512%);fill-opacity:1;" d="M 8.75 24.75 C 9.1875 24.820312 9.625 24.894531 10.0625 24.96875 C 10.429688 25.03125 10.429688 25.03125 10.800781 25.09375 C 11.441406 25.238281 11.929688 25.425781 12.5 25.75 C 12.417969 26.078125 12.335938 26.410156 12.25 26.75 C 10.8125 26.78125 10.8125 26.78125 10.25 26.5 C 10.25 26.335938 10.25 26.171875 10.25 26 C 10.09375 25.921875 9.941406 25.84375 9.78125 25.765625 C 9.4375 25.59375 9.09375 25.421875 8.75 25.25 C 8.75 25.085938 8.75 24.921875 8.75 24.75 Z M 8.75 24.75 "/>
<path style=" stroke:none;fill-rule:nonzero;fill:rgb(25.490198%,29.411766%,53.333336%);fill-opacity:1;" d="M 13.75 19.75 C 13.832031 19.75 13.914062 19.75 14 19.75 C 14.148438 21.644531 13.609375 23.21875 13 25 C 12.585938 25.082031 12.175781 25.164062 11.75 25.25 C 11.996094 24.425781 12.246094 23.601562 12.5 22.75 C 12.664062 22.75 12.828125 22.75 13 22.75 C 13.046875 22.355469 13.046875 22.355469 13.09375 21.953125 C 13.226562 21.136719 13.410156 20.5 13.75 19.75 Z M 13.75 19.75 "/>
<path style=" stroke:none;fill-rule:nonzero;fill:rgb(19.607843%,18.431373%,37.254903%);fill-opacity:1;" d="M 31.75 21.25 C 31.914062 21.25 32.078125 21.25 32.25 21.25 C 32.085938 21.746094 31.921875 22.238281 31.75 22.75 C 31.585938 22.75 31.421875 22.75 31.25 22.75 C 31.292969 22.960938 31.332031 23.171875 31.375 23.390625 C 31.203125 24.570312 30.636719 24.941406 29.761719 25.695312 C 29.59375 25.796875 29.421875 25.894531 29.25 26 C 29.003906 25.917969 28.753906 25.835938 28.5 25.75 C 28.746094 25.667969 28.996094 25.585938 29.25 25.5 C 29.519531 25.0625 29.519531 25.0625 29.75 24.5 C 30.308594 23.304688 30.941406 22.289062 31.75 21.25 Z M 31.75 21.25 "/>
<path style=" stroke:none;fill-rule:nonzero;fill:rgb(50.980395%,37.64706%,86.666667%);fill-opacity:1;" d="M 23.3125 20.0625 C 23.527344 20.15625 23.527344 20.15625 23.75 20.25 C 23.585938 20.25 23.421875 20.25 23.25 20.25 C 23.226562 20.414062 23.199219 20.574219 23.175781 20.742188 C 22.933594 22.160156 22.640625 23.121094 21.75 24.25 C 21.417969 23.132812 21.480469 22.128906 21.75 21 C 22.460938 19.96875 22.460938 19.96875 23.3125 20.0625 Z M 23.3125 20.0625 "/>
<path style=" stroke:none;fill-rule:nonzero;fill:rgb(52.549022%,40.392157%,90.196079%);fill-opacity:1;" d="M 29.25 18.25 C 29.332031 18.25 29.414062 18.25 29.5 18.25 C 29.664062 19.074219 29.828125 19.898438 30 20.75 C 30.328125 20.832031 30.660156 20.914062 31 21 C 30.921875 20.707031 30.921875 20.707031 30.84375 20.40625 C 30.8125 20.191406 30.78125 19.972656 30.75 19.75 C 31.25 19.25 31.25 19.25 31.84375 19.203125 C 32.070312 19.207031 32.296875 19.210938 32.53125 19.21875 C 32.871094 19.226562 32.871094 19.226562 33.21875 19.234375 C 33.394531 19.238281 33.570312 19.242188 33.75 19.25 C 33.75 19.332031 33.75 19.414062 33.75 19.5 C 33.007812 19.5 32.265625 19.5 31.5 19.5 C 31.582031 19.914062 31.664062 20.324219 31.75 20.75 C 31.914062 20.75 32.078125 20.75 32.25 20.75 C 32.25 20.914062 32.25 21.078125 32.25 21.25 C 31.886719 21.296875 31.519531 21.34375 31.15625 21.390625 C 30.953125 21.417969 30.75 21.441406 30.539062 21.46875 C 30 21.5 30 21.5 29.5 21.25 C 29.207031 20.253906 29.230469 19.28125 29.25 18.25 Z M 29.25 18.25 "/>
<path style=" stroke:none;fill-rule:nonzero;fill:rgb(78.823531%,46.27451%,95.294118%);fill-opacity:1;" d="M 29.5 15 C 30.714844 16.09375 31.039062 17.09375 31.15625 18.703125 C 31.175781 18.945312 31.195312 19.191406 31.210938 19.441406 C 31.230469 19.71875 31.230469 19.71875 31.25 20 C 31.085938 19.917969 30.921875 19.835938 30.75 19.75 C 30.75 19.503906 30.75 19.253906 30.75 19 C 30.585938 19 30.421875 19 30.25 19 C 30.21875 18.714844 30.1875 18.433594 30.15625 18.140625 C 30.105469 17.847656 30.054688 17.554688 30 17.25 C 29.835938 17.167969 29.671875 17.085938 29.5 17 C 29.5 16.339844 29.5 15.679688 29.5 15 Z M 29.5 15 "/>
<path style=" stroke:none;fill-rule:nonzero;fill:rgb(35.294119%,43.137255%,74.901962%);fill-opacity:1;" d="M 13.75 21.75 C 13.832031 21.75 13.914062 21.75 14 21.75 C 14.007812 22.222656 14.011719 22.699219 14.015625 23.171875 C 14.019531 23.4375 14.019531 23.699219 14.023438 23.972656 C 14.003906 24.679688 13.914062 25.3125 13.75 26 C 13.335938 26.082031 12.925781 26.164062 12.5 26.25 C 12.5 26.085938 12.5 25.921875 12.5 25.75 C 12.171875 25.667969 11.839844 25.585938 11.5 25.5 C 11.582031 25.335938 11.664062 25.171875 11.75 25 C 12.078125 25 12.410156 25 12.75 25 C 13.078125 23.925781 13.410156 22.855469 13.75 21.75 Z M 13.75 21.75 "/>
<path style=" stroke:none;fill-rule:nonzero;fill:rgb(57.647061%,55.686277%,94.509804%);fill-opacity:1;" d="M 23.25 20.25 C 24.121094 20.492188 24.457031 20.695312 25.003906 21.429688 C 25.152344 21.695312 25.300781 21.960938 25.453125 22.234375 C 25.679688 22.632812 25.679688 22.632812 25.910156 23.039062 C 26.25 23.75 26.25 23.75 26.25 24.5 C 25.921875 24.582031 25.589844 24.664062 25.25 24.75 C 25.1875 24.570312 25.128906 24.394531 25.066406 24.210938 C 24.570312 22.796875 24.042969 21.523438 23.25 20.25 Z M 23.25 20.25 "/>
<path style=" stroke:none;fill-rule:nonzero;fill:rgb(47.058824%,38.82353%,80.000001%);fill-opacity:1;" d="M 18 17 C 17.894531 17.453125 17.785156 17.90625 17.671875 18.359375 C 17.609375 18.613281 17.550781 18.863281 17.488281 19.125 C 17.410156 19.332031 17.332031 19.539062 17.25 19.75 C 17.003906 19.832031 16.753906 19.914062 16.5 20 C 16.5 19.835938 16.5 19.671875 16.5 19.5 C 16.253906 19.417969 16.003906 19.335938 15.75 19.25 C 16.152344 18.046875 16.621094 17 18 17 Z M 18 17 "/>
<path style=" stroke:none;fill-rule:nonzero;fill:rgb(44.313726%,69.803923%,95.686275%);fill-opacity:1;" d="M 36.75 22.25 C 37.542969 22.3125 37.9375 22.449219 38.5625 22.953125 C 38.996094 23.492188 39.152344 23.824219 39.25 24.5 C 38.152344 24.375 37.550781 24.007812 36.75 23.25 C 36.667969 23.003906 36.585938 22.753906 36.5 22.5 C 36.582031 22.417969 36.664062 22.335938 36.75 22.25 Z M 36.75 22.25 "/>
<path style=" stroke:none;fill-rule:nonzero;fill:rgb(57.647061%,21.960784%,70.19608%);fill-opacity:1;" d="M 25 11.25 C 25.082031 11.25 25.164062 11.25 25.25 11.25 C 25.25 13.230469 25.25 15.210938 25.25 17.25 C 25.085938 17.332031 24.921875 17.414062 24.75 17.5 C 24.695312 16.597656 24.644531 15.699219 24.59375 14.796875 C 24.578125 14.539062 24.5625 14.285156 24.546875 14.019531 C 24.53125 13.773438 24.519531 13.53125 24.507812 13.277344 C 24.484375 12.9375 24.484375 12.9375 24.464844 12.589844 C 24.5 12 24.5 12 25 11.25 Z M 25 11.25 "/>
<path style=" stroke:none;fill-rule:nonzero;fill:rgb(82.745099%,38.82353%,95.294118%);fill-opacity:1;" d="M 21.5 13.5 C 22.417969 14.234375 22.679688 14.898438 22.949219 16 C 23.007812 16.558594 22.914062 16.964844 22.75 17.5 C 22.074219 17.164062 21.929688 16.691406 21.648438 16.015625 C 21.402344 15.160156 21.453125 14.382812 21.5 13.5 Z M 21.5 13.5 "/>
<path style=" stroke:none;fill-rule:nonzero;fill:rgb(22.745098%,21.568628%,43.137255%);fill-opacity:1;" d="M 19 18.75 C 19.246094 18.75 19.496094 18.75 19.75 18.75 C 19.796875 20.054688 19.742188 21.019531 19.25 22.25 C 19.003906 22.25 18.753906 22.25 18.5 22.25 C 18.535156 21.761719 18.570312 21.269531 18.609375 20.78125 C 18.628906 20.507812 18.648438 20.234375 18.671875 19.953125 C 18.75 19.25 18.75 19.25 19 18.75 Z M 19 18.75 "/>
<path style=" stroke:none;fill-rule:nonzero;fill:rgb(34.117648%,51.372552%,79.215688%);fill-opacity:1;" d="M 28.25 26 C 28.664062 26.082031 29.074219 26.164062 29.5 26.25 C 29.664062 27.074219 29.828125 27.898438 30 28.75 C 30.414062 28.75 30.824219 28.75 31.25 28.75 C 31 29.25 31 29.25 30.566406 29.414062 C 29.910156 29.515625 29.347656 29.46875 28.6875 29.390625 C 28.351562 29.351562 28.351562 29.351562 28.011719 29.3125 C 27.84375 29.292969 27.675781 29.273438 27.5 29.25 C 27.5 29.167969 27.5 29.085938 27.5 29 C 28.078125 29 28.65625 29 29.25 29 C 29.132812 27.804688 28.9375 26.988281 28.25 26 Z M 28.25 26 "/>
<path style=" stroke:none;fill-rule:nonzero;fill:rgb(26.274511%,38.82353%,57.647061%);fill-opacity:1;" d="M 41.5 23 C 41.746094 23.082031 41.996094 23.164062 42.25 23.25 C 41.949219 23.40625 41.949219 23.40625 41.640625 23.5625 C 40.964844 23.933594 40.964844 23.933594 40.796875 24.546875 C 40.773438 24.769531 40.773438 24.769531 40.75 25 C 41.246094 25 41.738281 25 42.25 25 C 42.011719 25.292969 41.773438 25.585938 41.53125 25.875 C 41.398438 26.039062 41.265625 26.199219 41.125 26.367188 C 41.003906 26.492188 40.878906 26.621094 40.75 26.75 C 40.585938 26.75 40.421875 26.75 40.25 26.75 C 40.203125 25.550781 40.261719 24.605469 40.75 23.5 C 40.996094 23.335938 41.246094 23.171875 41.5 23 Z M 41.5 23 "/>
<path style=" stroke:none;fill-rule:nonzero;fill:rgb(43.529412%,27.843139%,69.803923%);fill-opacity:1;" d="M 28.75 15.5 C 28.832031 15.5 28.914062 15.5 29 15.5 C 29.015625 16.355469 29.023438 17.207031 29.03125 18.0625 C 29.035156 18.304688 29.039062 18.546875 29.042969 18.796875 C 29.046875 19.03125 29.046875 19.261719 29.046875 19.503906 C 29.050781 19.71875 29.054688 19.933594 29.058594 20.15625 C 28.996094 20.792969 28.824219 21.199219 28.5 21.75 C 28.445312 20.800781 28.394531 19.855469 28.34375 18.90625 C 28.328125 18.636719 28.3125 18.367188 28.296875 18.085938 C 28.28125 17.828125 28.269531 17.570312 28.257812 17.304688 C 28.242188 17.070312 28.230469 16.832031 28.214844 16.585938 C 28.25 16 28.25 16 28.75 15.5 Z M 28.75 15.5 "/>
<path style=" stroke:none;fill-rule:nonzero;fill:rgb(26.274511%,34.901962%,57.647061%);fill-opacity:1;" d="M 18.5 20 C 18.582031 20 18.664062 20 18.75 20 C 18.667969 20.742188 18.585938 21.484375 18.5 22.25 C 18.746094 22.25 18.996094 22.25 19.25 22.25 C 19.296875 22.011719 19.296875 22.011719 19.34375 21.765625 C 19.394531 21.59375 19.445312 21.425781 19.5 21.25 C 19.664062 21.167969 19.828125 21.085938 20 21 C 19.859375 21.984375 19.597656 22.699219 19 23.5 C 18.753906 23.5 18.503906 23.5 18.25 23.5 C 18.242188 23.105469 18.238281 22.707031 18.234375 22.3125 C 18.230469 22.09375 18.230469 21.871094 18.226562 21.644531 C 18.246094 21.054688 18.332031 20.5625 18.5 20 Z M 18.5 20 "/>
<path style=" stroke:none;fill-rule:nonzero;fill:rgb(29.803923%,45.09804%,63.921571%);fill-opacity:1;" d="M 31.3125 28.328125 C 31.539062 28.386719 31.765625 28.441406 32 28.5 C 30.460938 30.371094 30.460938 30.371094 29.5 31 C 29.335938 30.917969 29.171875 30.835938 29 30.75 C 29.394531 29.957031 29.613281 29.566406 30.421875 29.171875 C 30.613281 29.113281 30.804688 29.058594 31 29 C 30.503906 29 30.011719 29 29.5 29 C 30.160156 28.367188 30.378906 28.238281 31.3125 28.328125 Z M 31.3125 28.328125 "/>
<path style=" stroke:none;fill-rule:nonzero;fill:rgb(22.745098%,30.588236%,49.019608%);fill-opacity:1;" d="M 35 26.25 C 34.96875 26.703125 34.96875 26.703125 34.75 27.25 C 33.527344 28.035156 33.527344 28.035156 32.65625 27.921875 C 32.523438 27.863281 32.386719 27.808594 32.25 27.75 C 33.007812 26.617188 33.632812 26.25 35 26.25 Z M 35 26.25 "/>
<path style=" stroke:none;fill-rule:nonzero;fill:rgb(59.607846%,59.215689%,96.078432%);fill-opacity:1;" d="M 36.25 19.5 C 36.578125 19.664062 36.910156 19.828125 37.25 20 C 37.085938 20 36.921875 20 36.75 20 C 36.832031 20.742188 36.914062 21.484375 37 22.25 C 36.671875 22.25 36.339844 22.25 36 22.25 C 35.992188 21.839844 35.988281 21.425781 35.984375 21.015625 C 35.980469 20.785156 35.980469 20.558594 35.976562 20.320312 C 36 19.75 36 19.75 36.25 19.5 Z M 36.25 19.5 "/>
<path style=" stroke:none;fill-rule:nonzero;fill:rgb(34.117648%,40.000001%,70.980394%);fill-opacity:1;" d="M 20.5 19.5 C 20.746094 19.746094 20.996094 19.996094 21.25 20.25 C 21.085938 20.578125 20.921875 20.910156 20.75 21.25 C 20.914062 21.332031 21.078125 21.414062 21.25 21.5 C 20.925781 22.003906 20.589844 22.503906 20.25 23 C 20.167969 23 20.085938 23 20 23 C 19.953125 21.695312 20.007812 20.730469 20.5 19.5 Z M 20.5 19.5 "/>
<path style=" stroke:none;fill-rule:nonzero;fill:rgb(54.509807%,41.568628%,90.588236%);fill-opacity:1;" d="M 35 17.5 C 35.082031 17.664062 35.164062 17.828125 35.25 18 C 35.414062 18 35.578125 18 35.75 18 C 35.75 19.074219 35.75 20.144531 35.75 21.25 C 35.421875 21.003906 35.089844 20.753906 34.75 20.5 C 34.707031 19.769531 34.707031 19.769531 34.8125 18.953125 C 34.84375 18.679688 34.875 18.410156 34.910156 18.128906 C 34.941406 17.921875 34.96875 17.714844 35 17.5 Z M 35 17.5 "/>
<path style=" stroke:none;fill-rule:nonzero;fill:rgb(87.450981%,30.980393%,94.901961%);fill-opacity:1;" d="M 25.25 11.25 C 26 11.75 26 11.75 26.183594 12.292969 C 26.390625 13.460938 26.5625 14.558594 26.5 15.75 C 25.761719 14.640625 25.441406 13.902344 25.34375 12.5625 C 25.324219 12.316406 25.304688 12.070312 25.289062 11.816406 C 25.273438 11.628906 25.261719 11.441406 25.25 11.25 Z M 25.25 11.25 "/>
<path style=" stroke:none;fill-rule:nonzero;fill:rgb(32.941177%,53.333336%,78.823531%);fill-opacity:1;" d="M 37 21 C 37.625 21.34375 37.625 21.34375 38.25 21.75 C 38.25 21.914062 38.25 22.078125 38.25 22.25 C 38.414062 22.25 38.578125 22.25 38.75 22.25 C 38.75 22.414062 38.75 22.578125 38.75 22.75 C 38.914062 22.75 39.078125 22.75 39.25 22.75 C 39.25 23.078125 39.25 23.410156 39.25 23.75 C 39.414062 23.75 39.578125 23.75 39.75 23.75 C 39.75 24.078125 39.75 24.410156 39.75 24.75 C 39.585938 24.75 39.421875 24.75 39.25 24.75 C 39.15625 24.476562 39.0625 24.203125 38.96875 23.921875 C 38.628906 23.113281 38.503906 23.003906 37.703125 22.515625 C 37.472656 22.429688 37.238281 22.339844 37 22.25 C 37 21.835938 37 21.425781 37 21 Z M 37 21 "/>
<path style=" stroke:none;fill-rule:nonzero;fill:rgb(32.549021%,28.627452%,59.607846%);fill-opacity:1;" d="M 28.25 18.5 C 28.332031 18.5 28.414062 18.5 28.5 18.5 C 28.523438 19.277344 28.535156 20.050781 28.546875 20.828125 C 28.554688 21.046875 28.558594 21.269531 28.566406 21.496094 C 28.566406 21.707031 28.570312 21.917969 28.574219 22.136719 C 28.578125 22.332031 28.582031 22.527344 28.585938 22.730469 C 28.480469 23.375 28.246094 23.589844 27.75 24 C 27.871094 22.160156 27.996094 20.328125 28.25 18.5 Z M 28.25 18.5 "/>
<path style=" stroke:none;fill-rule:nonzero;fill:rgb(28.627452%,19.215687%,47.058824%);fill-opacity:1;" d="M 24.25 17.5 C 24.167969 18.324219 24.085938 19.148438 24 20 C 23.585938 19.917969 23.175781 19.835938 22.75 19.75 C 22.902344 18.378906 22.902344 18.378906 23.359375 17.78125 C 23.75 17.5 23.75 17.5 24.25 17.5 Z M 24.25 17.5 "/>
<path style=" stroke:none;fill-rule:nonzero;fill:rgb(38.431373%,51.764709%,79.215688%);fill-opacity:1;" d="M 43 22 C 43.578125 22.164062 44.15625 22.328125 44.75 22.5 C 44.78125 24.1875 44.78125 24.1875 44.5 24.75 C 44.171875 24.667969 43.839844 24.585938 43.5 24.5 C 43.746094 24.5 43.996094 24.5 44.25 24.5 C 43.9375 23.585938 43.832031 23.304688 43 22.75 C 43 22.503906 43 22.253906 43 22 Z M 43 22 "/>
<path style=" stroke:none;fill-rule:nonzero;fill:rgb(27.843139%,51.764709%,63.529414%);fill-opacity:1;" d="M 16.5 27.75 C 16.96875 27.890625 16.96875 27.890625 17.5 28.25 C 17.882812 29.269531 18.066406 30.164062 18 31.25 C 17.167969 30.574219 16.863281 29.738281 16.5 28.75 C 16.5 28.421875 16.5 28.089844 16.5 27.75 Z M 16.5 27.75 "/>
<path style=" stroke:none;fill-rule:nonzero;fill:rgb(47.843137%,37.254903%,76.078433%);fill-opacity:1;" d="M 14.5 18.25 C 14.664062 18.25 14.828125 18.25 15 18.25 C 14.917969 19.15625 14.835938 20.066406 14.75 21 C 14.585938 21 14.421875 21 14.25 21 C 14.167969 21.246094 14.085938 21.496094 14 21.75 C 13.640625 19.757812 13.640625 19.757812 14.078125 18.734375 C 14.21875 18.574219 14.355469 18.414062 14.5 18.25 Z M 14.5 18.25 "/>
<path style=" stroke:none;fill-rule:nonzero;fill:rgb(30.980393%,36.470589%,64.705884%);fill-opacity:1;" d="M 31.5 23.25 C 31.664062 23.25 31.828125 23.25 32 23.25 C 31.933594 24.402344 31.429688 24.945312 30.667969 25.742188 C 30.25 26 30.25 26 29.699219 25.914062 C 29.550781 25.859375 29.402344 25.804688 29.25 25.75 C 29.371094 25.652344 29.492188 25.554688 29.617188 25.457031 C 29.773438 25.328125 29.929688 25.195312 30.09375 25.0625 C 30.328125 24.871094 30.328125 24.871094 30.570312 24.675781 C 31.019531 24.230469 31.25 23.832031 31.5 23.25 Z M 31.5 23.25 "/>
<path style=" stroke:none;fill-rule:nonzero;fill:rgb(18.039216%,27.450982%,41.176471%);fill-opacity:1;" d="M 42.640625 23.734375 C 42.941406 23.742188 42.941406 23.742188 43.25 23.75 C 43.332031 24.078125 43.414062 24.410156 43.5 24.75 C 42.386719 24.875 42.386719 24.875 41.25 25 C 41.875 23.753906 41.875 23.753906 42.640625 23.734375 Z M 42.640625 23.734375 "/>
<path style=" stroke:none;fill-rule:nonzero;fill:rgb(28.627452%,38.039216%,63.137257%);fill-opacity:1;" d="M 31.5 19.5 C 32.160156 19.5 32.820312 19.5 33.5 19.5 C 33.4375 19.96875 33.4375 19.96875 33.25 20.5 C 32.765625 20.828125 32.765625 20.828125 32.25 21 C 32.085938 20.917969 31.921875 20.835938 31.75 20.75 C 31.59375 20.109375 31.59375 20.109375 31.5 19.5 Z M 31.5 19.5 "/>
<path style=" stroke:none;fill-rule:nonzero;fill:rgb(43.529412%,58.431375%,86.666667%);fill-opacity:1;" d="M 13.75 24.75 C 13.820312 24.910156 13.894531 25.070312 13.96875 25.234375 C 14.207031 25.789062 14.207031 25.789062 14.75 26 C 15.132812 26.054688 15.519531 26.101562 15.90625 26.140625 C 16.109375 26.160156 16.316406 26.183594 16.523438 26.203125 C 16.683594 26.21875 16.839844 26.234375 17 26.25 C 17 26.332031 17 26.414062 17 26.5 C 16.582031 26.554688 16.582031 26.554688 16.15625 26.609375 C 15.292969 26.695312 15.292969 26.695312 14.75 27 C 14.09375 26.71875 14.09375 26.71875 13.5 26.25 C 13.40625 25.59375 13.40625 25.59375 13.5 25 C 13.582031 24.917969 13.664062 24.835938 13.75 24.75 Z M 13.75 24.75 "/>
<path style=" stroke:none;fill-rule:nonzero;fill:rgb(49.019608%,37.64706%,84.705883%);fill-opacity:1;" d="M 33.75 20.25 C 34.28125 20.34375 34.28125 20.34375 34.75 20.5 C 34.503906 20.5 34.253906 20.5 34 20.5 C 33.988281 20.691406 33.976562 20.886719 33.960938 21.085938 C 33.945312 21.335938 33.925781 21.585938 33.90625 21.84375 C 33.878906 22.21875 33.878906 22.21875 33.851562 22.601562 C 33.75 23.25 33.75 23.25 33.25 23.75 C 33.238281 23.261719 33.226562 22.769531 33.21875 22.28125 C 33.214844 22.007812 33.207031 21.734375 33.203125 21.453125 C 33.25 20.75 33.25 20.75 33.75 20.25 Z M 33.75 20.25 "/>
<path style=" stroke:none;fill-rule:nonzero;fill:rgb(39.607844%,31.37255%,60.784316%);fill-opacity:1;" d="M 34.75 17.5 C 34.832031 17.5 34.914062 17.5 35 17.5 C 35 18.488281 35 19.480469 35 20.5 C 34.835938 20.417969 34.671875 20.335938 34.5 20.25 C 34.5 19.921875 34.5 19.589844 34.5 19.25 C 34.253906 19.332031 34.003906 19.414062 33.75 19.5 C 34.1875 18.0625 34.1875 18.0625 34.75 17.5 Z M 34.75 17.5 "/>
<path style=" stroke:none;fill-rule:nonzero;fill:rgb(62.7451%,29.803923%,89.411765%);fill-opacity:1;" d="M 25.25 14.25 C 25.332031 14.25 25.414062 14.25 25.5 14.25 C 25.558594 14.761719 25.613281 15.273438 25.671875 15.789062 C 25.703125 16.253906 25.703125 16.253906 26 16.5 C 26.019531 16.921875 26.019531 17.34375 26.015625 17.765625 C 26.011719 17.996094 26.011719 18.226562 26.007812 18.460938 C 26.007812 18.640625 26.003906 18.816406 26 19 C 25.261719 17.890625 25.222656 17.136719 25.234375 15.828125 C 25.238281 15.535156 25.238281 15.238281 25.242188 14.933594 C 25.242188 14.707031 25.246094 14.484375 25.25 14.25 Z M 25.25 14.25 "/>
<path style=" stroke:none;fill-rule:nonzero;fill:rgb(27.450982%,42.745098%,61.56863%);fill-opacity:1;" d="M 38.140625 25.234375 C 38.441406 25.242188 38.441406 25.242188 38.75 25.25 C 38.667969 25.828125 38.585938 26.40625 38.5 27 C 38.171875 26.917969 37.839844 26.835938 37.5 26.75 C 37.40625 26.335938 37.320312 25.917969 37.25 25.5 C 37.5 25.25 37.5 25.25 38.140625 25.234375 Z M 38.140625 25.234375 "/>
<path style=" stroke:none;fill-rule:nonzero;fill:rgb(20.392157%,25.098041%,43.529412%);fill-opacity:1;" d="M 30 23.75 C 30.164062 23.832031 30.328125 23.914062 30.5 24 C 30.746094 23.917969 30.996094 23.835938 31.25 23.75 C 30.851562 24.824219 30.160156 25.347656 29.25 26 C 29.003906 25.917969 28.753906 25.835938 28.5 25.75 C 28.746094 25.667969 28.996094 25.585938 29.25 25.5 C 29.59375 24.929688 29.789062 24.386719 30 23.75 Z M 30 23.75 "/>
<path style=" stroke:none;fill-rule:nonzero;fill:rgb(41.176471%,34.901962%,74.509805%);fill-opacity:1;" d="M 33 20.75 C 33.082031 20.75 33.164062 20.75 33.25 20.75 C 33.25 21.574219 33.25 22.398438 33.25 23.25 C 32.835938 23.332031 32.425781 23.414062 32 23.5 C 32.195312 22.519531 32.597656 21.660156 33 20.75 Z M 33 20.75 "/>
<path style=" stroke:none;fill-rule:nonzero;fill:rgb(32.549021%,18.431373%,49.411765%);fill-opacity:1;" d="M 28.25 16.5 C 28.332031 16.5 28.414062 16.5 28.5 16.5 C 28.417969 17.820312 28.335938 19.140625 28.25 20.5 C 28.167969 20.5 28.085938 20.5 28 20.5 C 28 20.003906 28 19.511719 28 19 C 27.835938 18.917969 27.671875 18.835938 27.5 18.75 C 27.746094 18.007812 27.996094 17.265625 28.25 16.5 Z M 28.25 16.5 "/>
<path style=" stroke:none;fill-rule:nonzero;fill:rgb(31.764707%,41.176471%,69.01961%);fill-opacity:1;" d="M 19.75 24.25 C 19.832031 24.496094 19.914062 24.746094 20 25 C 18.519531 26.714844 18.519531 26.714844 17.390625 26.859375 C 17.179688 26.824219 16.96875 26.789062 16.75 26.75 C 17.386719 26.019531 17.386719 26.019531 17.96875 25.921875 C 18.835938 25.640625 19.203125 24.960938 19.75 24.25 Z M 19.75 24.25 "/>
<path style=" stroke:none;fill-rule:nonzero;fill:rgb(29.411766%,36.470589%,61.176473%);fill-opacity:1;" d="M 35.75 25.5 C 35.65625 26.109375 35.65625 26.109375 35.5 26.75 C 35.253906 26.875 35.253906 26.875 35 27 C 35 26.753906 35 26.503906 35 26.25 C 34.113281 26.597656 34.113281 26.597656 33.25 27 C 33.511719 26.285156 33.667969 26.042969 34.359375 25.6875 C 35 25.5 35 25.5 35.75 25.5 Z M 35.75 25.5 "/>
<path style=" stroke:none;fill-rule:nonzero;fill:rgb(24.705882%,34.901962%,55.29412%);fill-opacity:1;" d="M 12.5 22.75 C 13.074219 23.609375 13.042969 23.996094 13 25 C 12.585938 25.082031 12.175781 25.164062 11.75 25.25 C 11.996094 24.425781 12.246094 23.601562 12.5 22.75 Z M 12.5 22.75 "/>
<path style=" stroke:none;fill-rule:nonzero;fill:rgb(38.039216%,47.843137%,76.862746%);fill-opacity:1;" d="M 13.75 19.75 C 13.503906 20.738281 13.253906 21.730469 13 22.75 C 12.917969 22.75 12.835938 22.75 12.75 22.75 C 12.667969 21.84375 12.585938 20.933594 12.5 20 C 13 19.75 13 19.75 13.75 19.75 Z M 13.75 19.75 "/>
<path style=" stroke:none;fill-rule:nonzero;fill:rgb(42.352942%,32.549021%,72.941178%);fill-opacity:1;" d="M 24.5 18.75 C 24.746094 18.832031 24.996094 18.914062 25.25 19 C 25.25 19.578125 25.25 20.15625 25.25 20.75 C 25.003906 20.832031 24.753906 20.914062 24.5 21 C 24.253906 20.753906 24.003906 20.503906 23.75 20.25 C 23.914062 20.25 24.078125 20.25 24.25 20.25 C 24.332031 19.753906 24.414062 19.261719 24.5 18.75 Z M 24.5 18.75 "/>
<path style=" stroke:none;fill-rule:nonzero;fill:rgb(65.882355%,47.058824%,95.294118%);fill-opacity:1;" d="M 23.25 20.25 C 24.066406 20.492188 24.4375 20.664062 24.953125 21.359375 C 25.25 22 25.25 22 25.25 22.75 C 24.324219 22.441406 24.265625 22.199219 23.828125 21.359375 C 23.71875 21.152344 23.609375 20.945312 23.496094 20.734375 C 23.414062 20.574219 23.335938 20.414062 23.25 20.25 Z M 23.25 20.25 "/>
<path style=" stroke:none;fill-rule:nonzero;fill:rgb(39.215687%,59.215689%,91.37255%);fill-opacity:1;" d="M 17.5 27.25 C 17.914062 27.25 18.324219 27.25 18.75 27.25 C 18.75 27.414062 18.75 27.578125 18.75 27.75 C 19.042969 27.796875 19.042969 27.796875 19.34375 27.84375 C 20 28 20 28 20.5 28.5 C 19.3125 28.382812 18.472656 28.207031 17.5 27.5 C 17.5 27.417969 17.5 27.335938 17.5 27.25 Z M 17.5 27.25 "/>
<path style=" stroke:none;fill-rule:nonzero;fill:rgb(30.980393%,48.235294%,72.549021%);fill-opacity:1;" d="M 19.75 22.5 C 19.9375 22.90625 19.9375 22.90625 20 23.5 C 19.515625 24.3125 19.515625 24.3125 19 25 C 18.753906 24.835938 18.503906 24.671875 18.25 24.5 C 18.25 24.253906 18.25 24.003906 18.25 23.75 C 18.449219 23.683594 18.652344 23.617188 18.859375 23.546875 C 19.070312 23.449219 19.28125 23.351562 19.5 23.25 C 19.582031 23.003906 19.664062 22.753906 19.75 22.5 Z M 19.75 22.5 "/>
<path style=" stroke:none;fill-rule:nonzero;fill:rgb(59.215689%,50.588238%,86.666667%);fill-opacity:1;" d="M 31.84375 19.203125 C 32.070312 19.207031 32.296875 19.210938 32.53125 19.21875 C 32.871094 19.226562 32.871094 19.226562 33.21875 19.234375 C 33.394531 19.238281 33.570312 19.242188 33.75 19.25 C 33.75 19.332031 33.75 19.414062 33.75 19.5 C 33.007812 19.5 32.265625 19.5 31.5 19.5 C 31.582031 19.996094 31.664062 20.488281 31.75 21 C 31.503906 20.917969 31.253906 20.835938 31 20.75 C 30.796875 20.265625 30.796875 20.265625 30.75 19.75 C 31.25 19.25 31.25 19.25 31.84375 19.203125 Z M 31.84375 19.203125 "/>
<path style=" stroke:none;fill-rule:nonzero;fill:rgb(50.588238%,30.588236%,79.215688%);fill-opacity:1;" d="M 25 17.25 C 25.164062 17.332031 25.328125 17.414062 25.5 17.5 C 25.6875 18.234375 25.6875 18.234375 25.75 19 C 25.585938 19.164062 25.421875 19.328125 25.25 19.5 C 25.085938 19.417969 24.921875 19.335938 24.75 19.25 C 24.738281 18.667969 24.738281 18.082031 24.75 17.5 C 24.832031 17.417969 24.914062 17.335938 25 17.25 Z M 25 17.25 "/>
<path style=" stroke:none;fill-rule:nonzero;fill:rgb(38.039216%,69.411767%,72.549021%);fill-opacity:1;" d="M 18.75 31.5 C 19.367188 31.746094 19.367188 31.746094 20 32 C 19.835938 32.328125 19.671875 32.660156 19.5 33 C 19.085938 32.917969 18.675781 32.835938 18.25 32.75 C 18.414062 32.335938 18.578125 31.925781 18.75 31.5 Z M 18.75 31.5 "/>
<path style=" stroke:none;fill-rule:nonzero;fill:rgb(41.568628%,59.215689%,93.725491%);fill-opacity:1;" d="M 10.75 21.25 C 11.332031 21.238281 11.917969 21.238281 12.5 21.25 C 12.75 21.5 12.75 21.5 12.765625 22.140625 C 12.761719 22.339844 12.753906 22.542969 12.75 22.75 C 12.609375 22.632812 12.472656 22.511719 12.328125 22.390625 C 11.703125 21.96875 11.238281 21.851562 10.5 21.75 C 10.582031 21.585938 10.664062 21.421875 10.75 21.25 Z M 10.75 21.25 "/>
<path style=" stroke:none;fill-rule:nonzero;fill:rgb(73.725492%,36.470589%,96.078432%);fill-opacity:1;" d="M 21.5 15 C 21.746094 15.125 21.746094 15.125 22 15.25 C 22 15.414062 22 15.578125 22 15.75 C 22.246094 15.75 22.496094 15.75 22.75 15.75 C 22.832031 16.246094 22.914062 16.738281 23 17.25 C 22.753906 17.25 22.503906 17.25 22.25 17.25 C 22.003906 16.507812 21.753906 15.765625 21.5 15 Z M 21.5 15 "/>
<path style=" stroke:none;fill-rule:nonzero;fill:rgb(42.352942%,52.941179%,84.705883%);fill-opacity:1;" d="M 12 20.25 C 12.246094 20.332031 12.496094 20.414062 12.75 20.5 C 12.667969 20.828125 12.585938 21.160156 12.5 21.5 C 11.921875 21.417969 11.34375 21.335938 10.75 21.25 C 11.160156 20.824219 11.46875 20.515625 12 20.25 Z M 12 20.25 "/>
<path style=" stroke:none;fill-rule:nonzero;fill:rgb(45.490196%,22.352941%,61.176473%);fill-opacity:1;" d="M 28.75 15.5 C 28.832031 15.5 28.914062 15.5 29 15.5 C 29.019531 16.707031 28.988281 17.808594 28.75 19 C 28.667969 19 28.585938 19 28.5 19 C 28.445312 18.511719 28.394531 18.019531 28.34375 17.53125 C 28.316406 17.257812 28.285156 16.984375 28.257812 16.703125 C 28.253906 16.472656 28.253906 16.238281 28.25 16 C 28.414062 15.835938 28.578125 15.671875 28.75 15.5 Z M 28.75 15.5 "/>
<path style=" stroke:none;fill-rule:nonzero;fill:rgb(35.294119%,48.627451%,77.254903%);fill-opacity:1;" d="M 11.5 25 C 12.160156 25 12.820312 25 13.5 25 C 13.582031 25.328125 13.664062 25.660156 13.75 26 C 13.335938 26.082031 12.925781 26.164062 12.5 26.25 C 12.5 26.085938 12.5 25.921875 12.5 25.75 C 12.171875 25.667969 11.839844 25.585938 11.5 25.5 C 11.5 25.335938 11.5 25.171875 11.5 25 Z M 11.5 25 "/>
<path style=" stroke:none;fill-rule:nonzero;fill:rgb(52.941179%,51.372552%,96.470588%);fill-opacity:1;" d="M 35.25 22.75 C 35.496094 22.832031 35.746094 22.914062 36 23 C 36 23.164062 36 23.328125 36 23.5 C 36.414062 23.5 36.824219 23.5 37.25 23.5 C 37.332031 23.664062 37.414062 23.828125 37.5 24 C 35.8125 24.03125 35.8125 24.03125 35.25 23.75 C 35.25 23.421875 35.25 23.089844 35.25 22.75 Z M 35.25 22.75 "/>
<path style=" stroke:none;fill-rule:nonzero;fill:rgb(36.862746%,36.862746%,70.980394%);fill-opacity:1;" d="M 26 20.5 C 26.164062 20.5 26.328125 20.5 26.5 20.5 C 26.335938 21.40625 26.171875 22.316406 26 23.25 C 25.5 23 25.5 23 25.296875 22.578125 C 25.230469 21.738281 25.59375 21.21875 26 20.5 Z M 26 20.5 "/>
<path style=" stroke:none;fill-rule:nonzero;fill:rgb(47.058824%,59.607846%,88.627452%);fill-opacity:1;" d="M 10.5 21 C 10.5 21.246094 10.5 21.496094 10.5 21.75 C 9.796875 22.03125 9.796875 22.03125 9 22.25 C 8.753906 22.085938 8.503906 21.921875 8.25 21.75 C 8.992188 21.503906 9.734375 21.253906 10.5 21 Z M 10.5 21 "/>
<path style=" stroke:none;fill-rule:nonzero;fill:rgb(37.254903%,27.843139%,63.529414%);fill-opacity:1;" d="M 22.75 18.5 C 22.832031 18.664062 22.914062 18.828125 23 19 C 22.917969 19.246094 22.835938 19.496094 22.75 19.75 C 22.996094 19.832031 23.246094 19.914062 23.5 20 C 23.214844 20.171875 23.214844 20.171875 22.921875 20.34375 C 22.441406 20.632812 21.96875 20.9375 21.5 21.25 C 21.863281 20.300781 22.289062 19.402344 22.75 18.5 Z M 22.75 18.5 "/>
<path style=" stroke:none;fill-rule:nonzero;fill:rgb(40.392157%,59.215689%,92.54902%);fill-opacity:1;" d="M 9 22.5 C 8.828125 22.65625 8.828125 22.65625 8.65625 22.8125 C 8.234375 23.265625 8 23.6875 7.75 24.25 C 7.585938 24.167969 7.421875 24.085938 7.25 24 C 7.3125 23.40625 7.3125 23.40625 7.5 22.75 C 8.328125 22.164062 8.328125 22.164062 9 22.5 Z M 9 22.5 "/>
<path style=" stroke:none;fill-rule:nonzero;fill:rgb(70.19608%,52.941179%,94.509804%);fill-opacity:1;" d="M 35 17.25 C 35.46875 17.390625 35.46875 17.390625 36 17.75 C 36.3125 18.65625 36.3125 18.65625 36.5 19.5 C 36.253906 19.582031 36.003906 19.664062 35.75 19.75 C 35.75 19.171875 35.75 18.59375 35.75 18 C 35.585938 18 35.421875 18 35.25 18 C 35.167969 17.753906 35.085938 17.503906 35 17.25 Z M 35 17.25 "/>
<path style=" stroke:none;fill-rule:nonzero;fill:rgb(40.392157%,33.725491%,65.882355%);fill-opacity:1;" d="M 16.75 17.5 C 16.914062 17.5 17.078125 17.5 17.25 17.5 C 17.167969 17.996094 17.085938 18.488281 17 19 C 16.753906 19.082031 16.503906 19.164062 16.25 19.25 C 16.167969 19.003906 16.085938 18.753906 16 18.5 C 16.328125 17.953125 16.328125 17.953125 16.75 17.5 Z M 16.75 17.5 "/>
<path style=" stroke:none;fill-rule:nonzero;fill:rgb(21.176471%,38.431373%,52.156866%);fill-opacity:1;" d="M 11 25.5 C 11.742188 25.625 11.742188 25.625 12.5 25.75 C 12.5 25.996094 12.5 26.246094 12.5 26.5 C 12.085938 26.5 11.675781 26.5 11.25 26.5 C 11.167969 26.171875 11.085938 25.839844 11 25.5 Z M 11 25.5 "/>
<path style=" stroke:none;fill-rule:nonzero;fill:rgb(41.176471%,45.882353%,81.176472%);fill-opacity:1;" d="M 36 24.5 C 36.496094 24.5 36.988281 24.5 37.5 24.5 C 37.417969 24.996094 37.335938 25.488281 37.25 26 C 37.085938 25.917969 36.921875 25.835938 36.75 25.75 C 36.75 25.503906 36.75 25.253906 36.75 25 C 36.503906 24.917969 36.253906 24.835938 36 24.75 C 36 24.667969 36 24.585938 36 24.5 Z M 36 24.5 "/>
<path style=" stroke:none;fill-rule:nonzero;fill:rgb(37.254903%,60.784316%,89.411765%);fill-opacity:1;" d="M 28.5 26.75 C 28.871094 26.996094 28.871094 26.996094 29.25 27.25 C 29.296875 28.15625 29.296875 28.15625 29.25 29 C 29.003906 28.917969 28.753906 28.835938 28.5 28.75 C 28.5 28.089844 28.5 27.429688 28.5 26.75 Z M 28.5 26.75 "/>
<path style=" stroke:none;fill-rule:nonzero;fill:rgb(23.921569%,30.588236%,52.156866%);fill-opacity:1;" d="M 18.5 20 C 18.582031 20 18.664062 20 18.75 20 C 18.667969 20.742188 18.585938 21.484375 18.5 22.25 C 18.664062 22.25 18.828125 22.25 19 22.25 C 19 22.496094 19 22.746094 19 23 C 18.753906 23 18.503906 23 18.25 23 C 18.214844 20.855469 18.214844 20.855469 18.5 20 Z M 18.5 20 "/>
<path style=" stroke:none;fill-rule:nonzero;fill:rgb(39.215687%,39.607844%,76.47059%);fill-opacity:1;" d="M 20.5 19.5 C 20.746094 19.746094 20.996094 19.996094 21.25 20.25 C 21.085938 20.578125 20.921875 20.910156 20.75 21.25 C 20.914062 21.332031 21.078125 21.414062 21.25 21.5 C 21.167969 21.664062 21.085938 21.828125 21 22 C 20.835938 22 20.671875 22 20.5 22 C 20.5 21.175781 20.5 20.351562 20.5 19.5 Z M 20.5 19.5 "/>
<path style=" stroke:none;fill-rule:nonzero;fill:rgb(25.882354%,17.647059%,43.137255%);fill-opacity:1;" d="M 27.25 19 C 27.496094 19 27.746094 19 28 19 C 27.917969 19.414062 27.835938 19.824219 27.75 20.25 C 27.503906 20.332031 27.253906 20.414062 27 20.5 C 27.082031 20.003906 27.164062 19.511719 27.25 19 Z M 27.25 19 "/>
<path style=" stroke:none;fill-rule:nonzero;fill:rgb(70.19608%,51.372552%,93.333334%);fill-opacity:1;" d="M 15 18.25 C 15.414062 18.25 15.824219 18.25 16.25 18.25 C 16.125 18.347656 16.003906 18.445312 15.875 18.546875 C 15.386719 19.136719 15.441406 19.503906 15.5 20.25 C 15.253906 20.375 15.253906 20.375 15 20.5 C 15 19.757812 15 19.015625 15 18.25 Z M 15 18.25 "/>
<path style=" stroke:none;fill-rule:nonzero;fill:rgb(66.666669%,38.82353%,96.078432%);fill-opacity:1;" d="M 26 17.5 C 26.414062 17.5 26.824219 17.5 27.25 17.5 C 27.25 17.914062 27.25 18.324219 27.25 18.75 C 26.921875 18.667969 26.589844 18.585938 26.25 18.5 C 26.167969 18.171875 26.085938 17.839844 26 17.5 Z M 26 17.5 "/>
<path style=" stroke:none;fill-rule:nonzero;fill:rgb(42.745098%,21.176471%,58.823532%);fill-opacity:1;" d="M 20.75 14.25 C 20.832031 14.25 20.914062 14.25 21 14.25 C 21.019531 15.378906 21.027344 16.398438 20.75 17.5 C 20.667969 17.5 20.585938 17.5 20.5 17.5 C 20.144531 15.394531 20.144531 15.394531 20.75 14.25 Z M 20.75 14.25 "/>
<path style=" stroke:none;fill-rule:nonzero;fill:rgb(50.196081%,61.176473%,82.745099%);fill-opacity:1;" d="M 7 24 C 7.609375 24.09375 7.609375 24.09375 8.25 24.25 C 8.332031 24.414062 8.414062 24.578125 8.5 24.75 C 7.59375 24.75 6.683594 24.75 5.75 24.75 C 5.75 24.667969 5.75 24.585938 5.75 24.5 C 6.164062 24.417969 6.574219 24.335938 7 24.25 C 7 24.167969 7 24.085938 7 24 Z M 7 24 "/>
<path style=" stroke:none;fill-rule:nonzero;fill:rgb(27.058825%,25.098041%,50.980395%);fill-opacity:1;" d="M 13.75 19.75 C 13.832031 19.75 13.914062 19.75 14 19.75 C 14 20.410156 14 21.070312 14 21.75 C 13.753906 21.832031 13.503906 21.914062 13.25 22 C 13.46875 20.3125 13.46875 20.3125 13.75 19.75 Z M 13.75 19.75 "/>
<path style=" stroke:none;fill-rule:nonzero;fill:rgb(22.352941%,26.274511%,46.666667%);fill-opacity:1;" d="M 19.5 20 C 19.8125 20.941406 19.59375 21.34375 19.25 22.25 C 19.003906 22.25 18.753906 22.25 18.5 22.25 C 18.582031 21.921875 18.664062 21.589844 18.75 21.25 C 18.914062 21.25 19.078125 21.25 19.25 21.25 C 19.332031 20.835938 19.414062 20.425781 19.5 20 Z M 19.5 20 "/>
<path style=" stroke:none;fill-rule:nonzero;fill:rgb(80.000001%,30.588236%,96.470588%);fill-opacity:1;" d="M 29.5 15 C 29.746094 15.125 29.746094 15.125 30 15.25 C 30.101562 15.832031 30.1875 16.414062 30.25 17 C 30.003906 17 29.753906 17 29.5 17 C 29.5 16.339844 29.5 15.679688 29.5 15 Z M 29.5 15 "/>
<path style=" stroke:none;fill-rule:nonzero;fill:rgb(26.666668%,46.27451%,61.56863%);fill-opacity:1;" d="M 40 26 C 40.5 26.75 40.5 26.75 40.5 27.25 C 40.085938 27.414062 39.675781 27.578125 39.25 27.75 C 39.71875 26.28125 39.71875 26.28125 40 26 Z M 40 26 "/>
<path style=" stroke:none;fill-rule:nonzero;fill:rgb(35.294119%,40.784314%,70.19608%);fill-opacity:1;" d="M 35.25 25 C 35.667969 25.070312 36.085938 25.15625 36.5 25.25 C 36.40625 25.734375 36.40625 25.734375 36.25 26.25 C 36.003906 26.375 36.003906 26.375 35.75 26.5 C 35.75 26.171875 35.75 25.839844 35.75 25.5 C 35.503906 25.417969 35.253906 25.335938 35 25.25 C 35.082031 25.167969 35.164062 25.085938 35.25 25 Z M 35.25 25 "/>
<path style=" stroke:none;fill-rule:nonzero;fill:rgb(51.764709%,66.274512%,97.254902%);fill-opacity:1;" d="M 36.75 22.25 C 36.996094 22.25 37.246094 22.25 37.5 22.25 C 37.582031 22.496094 37.664062 22.746094 37.75 23 C 37.503906 23.371094 37.503906 23.371094 37.25 23.75 C 37.003906 23.335938 36.753906 22.925781 36.5 22.5 C 36.582031 22.417969 36.664062 22.335938 36.75 22.25 Z M 36.75 22.25 "/>
<path style=" stroke:none;fill-rule:nonzero;fill:rgb(41.568628%,55.686277%,87.843138%);fill-opacity:1;" d="M 37 21 C 37.414062 21.246094 37.824219 21.496094 38.25 21.75 C 38.167969 22.078125 38.085938 22.410156 38 22.75 C 37.671875 22.585938 37.339844 22.421875 37 22.25 C 37 21.835938 37 21.425781 37 21 Z M 37 21 "/>
<path style=" stroke:none;fill-rule:nonzero;fill:rgb(69.803923%,57.254905%,91.37255%);fill-opacity:1;" d="M 17.5 16.75 C 17.914062 16.75 18.324219 16.75 18.75 16.75 C 18.832031 16.914062 18.914062 17.078125 19 17.25 C 19.246094 17.332031 19.496094 17.414062 19.75 17.5 C 19.75 17.664062 19.75 17.828125 19.75 18 C 19.335938 17.917969 18.925781 17.835938 18.5 17.75 C 18.5 17.503906 18.5 17.253906 18.5 17 C 18.171875 16.917969 17.839844 16.835938 17.5 16.75 Z M 17.5 16.75 "/>
</g>
</svg>
