<?xml version="1.0" encoding="UTF-8"?>
<svg xmlns="http://www.w3.org/2000/svg" xmlns:xlink="http://www.w3.org/1999/xlink" width="50px" height="50px" viewBox="0 0 50 50" version="1.1">
<g id="surface1">
<path style=" stroke:none;fill-rule:nonzero;fill:rgb(100%,100%,100%);fill-opacity:1;" d="M 28.140625 28.898438 C 27.855469 28.898438 27.582031 29.109375 27.324219 29.546875 C 27.078125 29.996094 26.929688 30.53125 26.929688 31.097656 C 26.929688 31.148438 26.933594 31.195312 26.933594 31.246094 L 26.933594 31.238281 C 28.039062 30.929688 28.59375 30.355469 28.59375 29.519531 C 28.59375 29.105469 28.441406 28.898438 28.140625 28.898438 Z M 33.699219 28.882812 C 33.269531 28.882812 32.859375 29.25 32.472656 29.984375 C 32.132812 30.566406 31.921875 31.261719 31.894531 32.003906 L 31.894531 32.011719 C 31.894531 32.023438 31.890625 32.039062 31.890625 32.054688 C 31.890625 32.25 31.957031 32.433594 32.066406 32.578125 C 32.164062 32.710938 32.320312 32.792969 32.496094 32.792969 C 32.496094 32.792969 32.5 32.792969 32.5 32.792969 C 32.933594 32.792969 33.339844 32.425781 33.722656 31.691406 C 34.058594 31.105469 34.269531 30.40625 34.296875 29.664062 L 34.296875 29.65625 C 34.296875 29.640625 34.296875 29.621094 34.296875 29.601562 C 34.296875 29.410156 34.234375 29.230469 34.132812 29.085938 L 34.132812 29.089844 C 34.035156 28.964844 33.886719 28.886719 33.71875 28.886719 C 33.710938 28.886719 33.703125 28.886719 33.699219 28.886719 Z M 24.597656 25.375 C 24.441406 25.375 24.207031 25.773438 23.902344 26.570312 C 23.5625 27.492188 23.253906 28.613281 23.03125 29.765625 L 23.007812 29.90625 C 23.539062 29.320312 23.984375 28.640625 24.320312 27.90625 L 24.339844 27.855469 C 24.632812 27.289062 24.816406 26.621094 24.851562 25.917969 L 24.851562 25.90625 C 24.851562 25.894531 24.851562 25.882812 24.851562 25.871094 C 24.851562 25.742188 24.824219 25.625 24.777344 25.515625 L 24.78125 25.523438 C 24.730469 25.425781 24.671875 25.375 24.597656 25.375 Z M 34.457031 24.167969 L 34.78125 24.167969 L 34.78125 26.210938 L 34.457031 26.210938 Z M 31.640625 24.167969 L 31.964844 24.167969 L 31.964844 26.210938 L 31.636719 26.210938 Z M 30.464844 24.109375 C 30.46875 24.109375 30.472656 24.109375 30.480469 24.109375 C 30.617188 24.109375 30.75 24.140625 30.863281 24.195312 L 30.859375 24.191406 C 31.03125 24.273438 31.164062 24.421875 31.222656 24.601562 L 31.226562 24.605469 C 31.246094 24.679688 31.265625 24.761719 31.269531 24.847656 L 31.269531 24.851562 L 30.941406 24.851562 C 30.933594 24.722656 30.875 24.609375 30.789062 24.523438 C 30.707031 24.449219 30.597656 24.40625 30.476562 24.40625 C 30.46875 24.40625 30.464844 24.40625 30.457031 24.40625 L 30.460938 24.40625 C 30.457031 24.40625 30.453125 24.40625 30.449219 24.40625 C 30.339844 24.40625 30.238281 24.445312 30.15625 24.503906 C 30.070312 24.574219 30 24.671875 29.964844 24.78125 L 29.960938 24.785156 C 29.921875 24.90625 29.894531 25.046875 29.894531 25.195312 C 29.894531 25.203125 29.894531 25.210938 29.894531 25.222656 C 29.894531 25.230469 29.894531 25.242188 29.894531 25.25 C 29.894531 25.390625 29.921875 25.523438 29.96875 25.648438 L 29.964844 25.640625 C 30.003906 25.75 30.074219 25.835938 30.160156 25.902344 L 30.160156 25.90625 C 30.242188 25.964844 30.34375 26 30.457031 26 C 30.460938 26 30.464844 26 30.46875 26 C 30.746094 26 30.914062 25.835938 30.96875 25.507812 L 31.296875 25.507812 C 31.285156 25.664062 31.238281 25.8125 31.164062 25.941406 L 31.167969 25.9375 C 31.101562 26.050781 31.003906 26.144531 30.886719 26.203125 L 30.882812 26.203125 C 30.765625 26.265625 30.628906 26.296875 30.484375 26.296875 C 30.476562 26.296875 30.46875 26.296875 30.460938 26.296875 L 30.464844 26.296875 C 30.457031 26.296875 30.449219 26.296875 30.441406 26.296875 C 30.273438 26.296875 30.113281 26.25 29.980469 26.167969 L 29.984375 26.167969 C 29.84375 26.078125 29.738281 25.949219 29.671875 25.800781 L 29.667969 25.792969 C 29.597656 25.632812 29.558594 25.445312 29.558594 25.25 C 29.558594 25.242188 29.558594 25.230469 29.558594 25.21875 L 29.558594 25.222656 C 29.558594 25.214844 29.558594 25.207031 29.558594 25.199219 C 29.558594 25.042969 29.582031 24.894531 29.625 24.757812 L 29.621094 24.765625 C 29.660156 24.632812 29.726562 24.511719 29.808594 24.410156 L 29.804688 24.410156 C 29.882812 24.3125 29.980469 24.234375 30.09375 24.183594 L 30.097656 24.183594 C 30.203125 24.132812 30.328125 24.105469 30.460938 24.105469 C 30.464844 24.105469 30.46875 24.105469 30.472656 24.105469 Z M 28.441406 24.109375 C 28.453125 24.109375 28.460938 24.109375 28.472656 24.109375 C 28.609375 24.109375 28.734375 24.136719 28.851562 24.1875 L 28.847656 24.183594 C 28.953125 24.226562 29.039062 24.300781 29.101562 24.394531 L 29.101562 24.398438 C 29.15625 24.488281 29.1875 24.601562 29.1875 24.71875 C 29.1875 24.726562 29.1875 24.730469 29.1875 24.734375 L 28.84375 24.734375 C 28.832031 24.515625 28.699219 24.40625 28.4375 24.40625 C 28.429688 24.40625 28.417969 24.40625 28.40625 24.40625 C 28.300781 24.40625 28.203125 24.4375 28.117188 24.488281 L 28.121094 24.488281 C 28.046875 24.535156 28.003906 24.617188 28.003906 24.707031 C 28.003906 24.710938 28.003906 24.714844 28.003906 24.71875 C 28.003906 24.789062 28.039062 24.851562 28.089844 24.890625 C 28.171875 24.945312 28.273438 24.988281 28.378906 25.007812 L 28.382812 25.007812 L 28.695312 25.082031 C 28.867188 25.113281 29.015625 25.1875 29.136719 25.289062 L 29.132812 25.289062 C 29.21875 25.375 29.273438 25.492188 29.273438 25.625 C 29.273438 25.632812 29.273438 25.640625 29.273438 25.652344 L 29.273438 25.648438 C 29.273438 25.652344 29.273438 25.65625 29.273438 25.664062 C 29.273438 25.785156 29.234375 25.898438 29.167969 25.992188 L 29.171875 25.992188 C 29.097656 26.09375 28.996094 26.171875 28.878906 26.21875 L 28.875 26.21875 C 28.75 26.269531 28.605469 26.296875 28.453125 26.296875 C 28.445312 26.296875 28.4375 26.296875 28.429688 26.296875 L 28.433594 26.296875 C 28.414062 26.300781 28.390625 26.300781 28.367188 26.300781 C 28.164062 26.300781 27.976562 26.234375 27.828125 26.125 C 27.699219 26 27.617188 25.824219 27.617188 25.628906 C 27.617188 25.617188 27.617188 25.609375 27.617188 25.597656 L 27.617188 25.601562 L 27.960938 25.601562 C 27.964844 25.660156 27.976562 25.714844 27.992188 25.769531 L 27.992188 25.765625 C 28.007812 25.804688 28.03125 25.839844 28.058594 25.871094 C 28.15625 25.949219 28.277344 26 28.414062 26 C 28.429688 26 28.445312 26 28.460938 25.996094 C 28.46875 25.996094 28.480469 25.996094 28.488281 25.996094 C 28.605469 25.996094 28.714844 25.964844 28.808594 25.90625 L 28.804688 25.90625 C 28.882812 25.859375 28.9375 25.773438 28.9375 25.675781 C 28.9375 25.671875 28.9375 25.671875 28.9375 25.667969 C 28.9375 25.601562 28.90625 25.539062 28.863281 25.5 C 28.796875 25.445312 28.710938 25.410156 28.625 25.394531 L 28.621094 25.394531 L 28.316406 25.320312 C 28.191406 25.289062 28.089844 25.257812 27.988281 25.21875 L 28.007812 25.222656 C 27.933594 25.191406 27.871094 25.152344 27.8125 25.101562 C 27.765625 25.058594 27.726562 25.003906 27.703125 24.945312 L 27.699219 24.941406 C 27.679688 24.882812 27.667969 24.816406 27.667969 24.746094 C 27.667969 24.742188 27.667969 24.734375 27.667969 24.730469 C 27.667969 24.726562 27.667969 24.71875 27.667969 24.710938 C 27.667969 24.535156 27.75 24.378906 27.882812 24.277344 C 28.027344 24.171875 28.207031 24.105469 28.402344 24.105469 C 28.417969 24.105469 28.433594 24.105469 28.453125 24.109375 Z M 35.398438 23.605469 L 35.71875 23.605469 L 35.71875 24.167969 L 36.054688 24.167969 L 36.054688 24.433594 L 35.71875 24.433594 L 35.71875 25.832031 C 35.71875 25.84375 35.714844 25.859375 35.714844 25.871094 C 35.714844 25.953125 35.78125 26.023438 35.867188 26.023438 C 35.878906 26.023438 35.890625 26.019531 35.90625 26.015625 L 35.902344 26.015625 C 35.910156 26.015625 35.914062 26.015625 35.921875 26.015625 C 35.96875 26.015625 36.015625 26.007812 36.058594 25.996094 L 36.054688 26 L 36.054688 26.273438 C 35.976562 26.289062 35.886719 26.296875 35.792969 26.300781 L 35.789062 26.300781 C 35.78125 26.300781 35.773438 26.300781 35.761719 26.300781 C 35.664062 26.300781 35.570312 26.269531 35.496094 26.214844 L 35.5 26.21875 C 35.4375 26.164062 35.398438 26.085938 35.398438 25.996094 C 35.398438 25.988281 35.398438 25.984375 35.398438 25.976562 L 35.398438 24.4375 L 35.121094 24.4375 L 35.121094 24.171875 L 35.398438 24.171875 Z M 34.457031 23.367188 L 34.78125 23.367188 L 34.78125 23.777344 L 34.457031 23.777344 Z M 32.476562 23.367188 L 32.796875 23.367188 L 32.796875 25.054688 L 33.695312 24.167969 L 34.078125 24.167969 L 33.367188 24.875 L 34.203125 26.210938 L 33.816406 26.210938 L 33.121094 25.085938 L 32.800781 25.410156 L 32.800781 26.210938 L 32.476562 26.210938 Z M 31.640625 23.367188 L 31.964844 23.367188 L 31.964844 23.777344 L 31.636719 23.777344 Z M 7.652344 22.667969 C 7.570312 22.664062 7.476562 22.664062 7.382812 22.664062 C 5.773438 22.664062 4.3125 23.300781 3.234375 24.335938 L 3.238281 24.335938 C 2.222656 25.636719 1.609375 27.296875 1.609375 29.101562 C 1.609375 31.523438 2.71875 33.691406 4.457031 35.117188 L 4.46875 35.128906 C 6.175781 36.550781 8.394531 37.414062 10.8125 37.414062 C 12.433594 37.414062 13.964844 37.023438 15.316406 36.335938 L 15.261719 36.363281 C 15.875 35.078125 16.234375 33.566406 16.234375 31.972656 C 16.234375 29.546875 15.402344 27.316406 14.011719 25.546875 L 14.03125 25.570312 C 12.40625 23.882812 10.164062 22.792969 7.671875 22.671875 Z M 41.257812 28.382812 C 40.542969 29.992188 39.671875 31.375 38.632812 32.609375 L 38.652344 32.585938 C 38.640625 32.671875 38.632812 32.769531 38.628906 32.871094 C 38.628906 32.882812 38.628906 32.898438 38.628906 32.914062 C 38.628906 33.210938 38.734375 33.484375 38.90625 33.703125 L 38.90625 33.699219 C 39.058594 33.902344 39.296875 34.03125 39.566406 34.03125 C 39.566406 34.03125 39.566406 34.03125 39.570312 34.03125 C 40.148438 34.03125 40.960938 33.515625 42.015625 32.492188 C 42.015625 32.570312 42.011719 32.648438 42.011719 32.730469 C 42.011719 33.015625 42.035156 33.449219 42.082031 34.03125 L 43.511719 33.695312 C 43.511719 33.304688 43.519531 32.996094 43.53125 32.769531 C 43.558594 32.386719 43.605469 32.039062 43.667969 31.703125 L 43.660156 31.757812 C 43.707031 31.523438 43.8125 31.3125 43.957031 31.140625 L 43.957031 31.144531 L 44.320312 30.722656 C 44.558594 30.445312 44.796875 30.191406 45.050781 29.953125 L 45.054688 29.945312 C 45.152344 29.859375 45.253906 29.777344 45.363281 29.699219 L 45.371094 29.695312 C 45.4375 29.644531 45.523438 29.613281 45.609375 29.605469 C 45.71875 29.605469 45.773438 29.671875 45.773438 29.8125 C 45.710938 30.175781 45.601562 30.5 45.460938 30.804688 L 45.46875 30.78125 C 45.175781 31.398438 44.972656 32.117188 44.898438 32.871094 L 44.898438 32.898438 C 44.898438 32.914062 44.898438 32.9375 44.898438 32.957031 C 44.898438 33.246094 44.996094 33.507812 45.164062 33.714844 C 45.328125 33.898438 45.5625 34.015625 45.828125 34.015625 C 45.839844 34.015625 45.851562 34.015625 45.863281 34.015625 C 46.917969 33.832031 47.816406 33.257812 48.417969 32.449219 L 48.425781 32.4375 L 48.425781 31.695312 C 47.722656 32.527344 47.210938 32.945312 46.894531 32.945312 C 46.683594 32.945312 46.578125 32.8125 46.578125 32.554688 C 46.652344 32.078125 46.785156 31.652344 46.96875 31.257812 L 46.957031 31.285156 C 47.234375 30.6875 47.433594 29.996094 47.511719 29.269531 L 47.515625 29.238281 C 47.515625 29.230469 47.515625 29.21875 47.515625 29.207031 C 47.515625 28.980469 47.433594 28.773438 47.296875 28.617188 C 47.167969 28.464844 46.976562 28.367188 46.761719 28.367188 C 46.757812 28.367188 46.75 28.367188 46.746094 28.367188 C 46.320312 28.402344 45.9375 28.570312 45.636719 28.828125 L 45.640625 28.824219 C 45.019531 29.324219 44.46875 29.863281 43.96875 30.445312 L 43.953125 30.464844 C 44.148438 29.636719 44.375 28.933594 44.644531 28.253906 L 44.609375 28.355469 L 43.03125 28.660156 C 42.742188 29.246094 42.476562 29.945312 42.273438 30.667969 L 42.25 30.757812 C 42.179688 31.011719 42.117188 31.328125 42.074219 31.652344 L 42.070312 31.695312 C 41.765625 32.003906 41.445312 32.296875 41.113281 32.574219 C 40.992188 32.667969 40.835938 32.726562 40.667969 32.730469 C 40.664062 32.730469 40.65625 32.730469 40.652344 32.730469 C 40.519531 32.730469 40.402344 32.667969 40.328125 32.570312 C 40.25 32.457031 40.203125 32.320312 40.203125 32.171875 C 40.203125 32.160156 40.203125 32.144531 40.203125 32.132812 C 40.210938 31.894531 40.25 31.664062 40.316406 31.445312 L 40.3125 31.464844 C 40.386719 31.210938 40.546875 30.734375 40.796875 30.039062 L 41.398438 28.378906 Z M 32.03125 12.367188 C 27.695312 12.578125 23.835938 14.453125 21.042969 17.359375 L 21.039062 17.367188 C 15.320312 23.085938 16.972656 34.019531 18.914062 35.964844 C 20.484375 37.535156 31.789062 39.5625 37.515625 33.839844 C 37.914062 33.4375 38.292969 33.019531 38.65625 32.582031 C 38.839844 31.761719 39.171875 31.039062 39.621094 30.40625 L 39.609375 30.421875 C 39.304688 30.582031 38.953125 30.703125 38.582031 30.765625 L 38.5625 30.765625 C 38.1875 31.40625 37.75 31.953125 37.242188 32.433594 L 37.242188 32.4375 C 36.789062 32.886719 36.304688 33.308594 35.792969 33.691406 L 35.757812 33.71875 C 35.519531 33.890625 35.226562 34 34.90625 34.015625 L 34.902344 34.015625 C 34.21875 34.015625 33.898438 33.414062 33.9375 32.210938 C 33.59375 32.730469 33.199219 33.179688 32.75 33.570312 L 32.742188 33.574219 C 32.441406 33.835938 32.046875 34 31.617188 34.011719 C 31.210938 34.007812 30.859375 33.796875 30.648438 33.484375 L 30.648438 33.480469 C 30.445312 33.203125 30.308594 32.867188 30.269531 32.5 L 30.269531 32.492188 C 29.851562 32.914062 29.386719 33.289062 28.882812 33.609375 L 28.851562 33.628906 C 28.449219 33.871094 27.960938 34.011719 27.4375 34.011719 C 27.429688 34.011719 27.417969 34.011719 27.40625 34.011719 C 27.382812 34.015625 27.359375 34.015625 27.328125 34.015625 C 26.804688 34.015625 26.328125 33.796875 25.988281 33.449219 C 25.730469 33.179688 25.550781 32.828125 25.488281 32.4375 L 25.488281 32.425781 L 25.488281 32.433594 C 25.03125 32.871094 24.527344 33.265625 23.984375 33.605469 L 23.945312 33.628906 C 23.585938 33.855469 23.148438 34 22.679688 34.011719 C 22.667969 34.011719 22.65625 34.011719 22.640625 34.011719 C 22.203125 34.011719 21.8125 33.804688 21.566406 33.476562 L 21.5625 33.476562 C 21.296875 33.109375 21.132812 32.648438 21.132812 32.148438 C 21.132812 32.109375 21.136719 32.066406 21.136719 32.027344 L 21.136719 32.03125 C 21.175781 30.855469 21.390625 29.738281 21.75 28.691406 L 21.726562 28.773438 C 22.144531 27.414062 22.628906 26.253906 23.210938 25.152344 L 23.160156 25.265625 L 24.804688 24.65625 C 24.835938 24.640625 24.878906 24.632812 24.917969 24.628906 L 24.921875 24.628906 C 25.042969 24.628906 25.148438 24.722656 25.226562 24.902344 C 25.304688 25.101562 25.347656 25.335938 25.347656 25.574219 C 25.347656 25.601562 25.347656 25.625 25.34375 25.648438 L 25.34375 25.644531 C 25.34375 26.578125 25.117188 27.457031 24.71875 28.234375 L 24.734375 28.203125 C 24.203125 29.210938 23.570312 30.082031 22.832031 30.847656 L 22.835938 30.84375 C 22.800781 31.292969 22.78125 31.601562 22.78125 31.769531 C 22.78125 31.792969 22.78125 31.820312 22.78125 31.851562 C 22.78125 32.148438 22.859375 32.429688 22.992188 32.671875 L 22.988281 32.664062 C 23.097656 32.859375 23.304688 32.992188 23.539062 32.992188 C 23.820312 32.980469 24.078125 32.886719 24.289062 32.734375 L 24.285156 32.738281 C 24.71875 32.421875 25.105469 32.085938 25.457031 31.71875 L 25.460938 31.71875 C 25.523438 30.855469 25.867188 30.082031 26.40625 29.484375 L 26.402344 29.488281 C 26.890625 28.835938 27.648438 28.410156 28.503906 28.375 L 28.507812 28.375 C 28.53125 28.375 28.554688 28.375 28.578125 28.375 C 28.917969 28.375 29.230469 28.492188 29.476562 28.691406 L 29.472656 28.6875 C 29.695312 28.878906 29.835938 29.15625 29.835938 29.472656 C 29.835938 29.484375 29.835938 29.492188 29.835938 29.503906 C 29.835938 30.398438 28.886719 31.121094 26.988281 31.679688 C 27.160156 32.515625 27.613281 32.9375 28.34375 32.9375 C 28.644531 32.9375 28.925781 32.851562 29.164062 32.707031 L 29.15625 32.710938 C 29.578125 32.417969 29.945312 32.097656 30.273438 31.746094 L 30.277344 31.742188 C 30.351562 31.207031 30.527344 30.726562 30.792969 30.304688 L 30.78125 30.320312 C 31.132812 29.742188 31.59375 29.265625 32.136719 28.90625 L 32.152344 28.894531 C 32.5625 28.589844 33.070312 28.390625 33.617188 28.351562 L 33.628906 28.351562 C 33.648438 28.351562 33.667969 28.351562 33.6875 28.351562 C 34.175781 28.351562 34.59375 28.65625 34.757812 29.085938 L 34.761719 29.09375 L 36.082031 28.367188 L 36.445312 28.367188 L 35.875 30.261719 C 35.664062 30.832031 35.507812 31.496094 35.4375 32.1875 L 35.433594 32.222656 C 35.433594 32.59375 35.5625 32.777344 35.828125 32.777344 C 36.046875 32.757812 36.242188 32.660156 36.382812 32.511719 C 36.585938 32.332031 36.871094 32.058594 37.234375 31.691406 C 37.503906 31.402344 37.753906 31.085938 37.984375 30.757812 L 38 30.726562 C 37.683594 30.628906 37.453125 30.339844 37.445312 29.996094 C 37.460938 29.597656 37.585938 29.230469 37.789062 28.921875 L 37.785156 28.929688 C 37.960938 28.59375 38.3125 28.367188 38.710938 28.367188 C 38.714844 28.367188 38.71875 28.367188 38.722656 28.367188 C 38.738281 28.363281 38.757812 28.363281 38.78125 28.363281 C 39.027344 28.363281 39.230469 28.5625 39.230469 28.8125 C 39.230469 28.839844 39.230469 28.863281 39.226562 28.886719 L 39.226562 28.882812 C 39.191406 29.3125 39.085938 29.707031 38.925781 30.070312 L 38.933594 30.046875 C 39.652344 29.96875 40.277344 29.417969 40.8125 28.402344 L 41.257812 28.382812 C 42.082031 26.820312 42.566406 24.960938 42.566406 22.996094 C 42.566406 20.015625 41.457031 17.296875 39.625 15.226562 L 39.636719 15.238281 C 37.792969 13.453125 35.277344 12.355469 32.507812 12.355469 C 32.339844 12.355469 32.171875 12.359375 32.007812 12.367188 Z M 32.03125 12.367188 "/>
</g>
</svg>
