<?xml version="1.0" encoding="UTF-8"?>
<svg xmlns="http://www.w3.org/2000/svg" xmlns:xlink="http://www.w3.org/1999/xlink" width="50px" height="50px" viewBox="0 0 50 50" version="1.1">
<g id="surface1">
<path style=" stroke:none;fill-rule:evenodd;fill:rgb(100%,100%,100%);fill-opacity:1;" d="M 7.722656 35.367188 C 10.257812 35.363281 12.308594 33.308594 12.316406 30.773438 L 12.316406 26.179688 L 7.722656 26.179688 C 5.1875 26.183594 3.132812 28.234375 3.125 30.769531 C 3.128906 33.304688 5.183594 35.359375 7.71875 35.363281 Z M 19.226562 26.175781 C 16.691406 26.183594 14.640625 28.238281 14.632812 30.773438 L 14.632812 42.28125 C 14.640625 44.816406 16.695312 46.867188 19.226562 46.875 C 21.761719 46.867188 23.816406 44.816406 23.820312 42.28125 L 23.820312 30.769531 C 23.816406 28.234375 21.761719 26.183594 19.226562 26.175781 Z M 14.632812 7.722656 C 14.636719 10.257812 16.695312 12.3125 19.226562 12.316406 L 23.820312 12.316406 L 23.820312 7.722656 C 23.816406 5.1875 21.765625 3.132812 19.230469 3.125 C 16.695312 3.132812 14.644531 5.183594 14.636719 7.71875 Z M 23.820312 19.226562 C 23.816406 16.695312 21.761719 14.640625 19.226562 14.632812 L 7.71875 14.632812 C 5.183594 14.640625 3.132812 16.695312 3.125 19.226562 C 3.132812 21.765625 5.1875 23.820312 7.71875 23.820312 L 19.230469 23.820312 C 21.765625 23.816406 23.816406 21.761719 23.824219 19.226562 Z M 30.773438 23.824219 C 33.304688 23.816406 35.359375 21.765625 35.367188 19.230469 L 35.367188 7.71875 C 35.359375 5.1875 33.308594 3.132812 30.773438 3.125 C 28.242188 3.132812 26.1875 5.183594 26.179688 7.71875 L 26.179688 19.230469 C 26.1875 21.761719 28.242188 23.820312 30.773438 23.824219 Z M 42.277344 14.632812 C 39.742188 14.640625 37.691406 16.695312 37.683594 19.226562 L 37.683594 23.820312 L 42.277344 23.820312 C 44.8125 23.816406 46.867188 21.765625 46.875 19.230469 C 46.867188 16.695312 44.816406 14.644531 42.28125 14.636719 Z M 26.179688 30.773438 C 26.183594 33.304688 28.238281 35.363281 30.773438 35.367188 L 42.28125 35.367188 C 44.8125 35.359375 46.867188 33.308594 46.875 30.773438 C 46.867188 28.242188 44.816406 26.1875 42.28125 26.179688 L 30.773438 26.179688 C 28.238281 26.1875 26.183594 28.242188 26.179688 30.773438 Z M 35.367188 42.277344 C 35.359375 39.742188 33.304688 37.691406 30.773438 37.683594 L 26.179688 37.683594 L 26.179688 42.277344 C 26.183594 44.816406 28.238281 46.867188 30.773438 46.871094 C 33.304688 46.863281 35.359375 44.8125 35.367188 42.277344 Z M 35.367188 42.277344 "/>
</g>
</svg>
